G04*
G04 #@! TF.GenerationSoftware,Altium Limited,Altium Designer,18.1.6 (161)*
G04*
G04 Layer_Physical_Order=1*
G04 Layer_Color=255*
%FSTAX24Y24*%
%MOIN*%
G70*
G01*
G75*
%ADD10C,0.0100*%
%ADD14R,0.0413X0.0531*%
%ADD15R,0.0531X0.0413*%
%ADD16R,0.0512X0.0472*%
%ADD30O,0.0709X0.0630*%
%ADD31R,0.0709X0.0630*%
G04:AMPARAMS|DCode=32|XSize=63mil|YSize=70.9mil|CornerRadius=15.7mil|HoleSize=0mil|Usage=FLASHONLY|Rotation=0.000|XOffset=0mil|YOffset=0mil|HoleType=Round|Shape=RoundedRectangle|*
%AMROUNDEDRECTD32*
21,1,0.0630,0.0394,0,0,0.0*
21,1,0.0315,0.0709,0,0,0.0*
1,1,0.0315,0.0157,-0.0197*
1,1,0.0315,-0.0157,-0.0197*
1,1,0.0315,-0.0157,0.0197*
1,1,0.0315,0.0157,0.0197*
%
%ADD32ROUNDEDRECTD32*%
%ADD33O,0.0630X0.0709*%
G04:AMPARAMS|DCode=34|XSize=63mil|YSize=70.9mil|CornerRadius=15.7mil|HoleSize=0mil|Usage=FLASHONLY|Rotation=270.000|XOffset=0mil|YOffset=0mil|HoleType=Round|Shape=RoundedRectangle|*
%AMROUNDEDRECTD34*
21,1,0.0630,0.0394,0,0,270.0*
21,1,0.0315,0.0709,0,0,270.0*
1,1,0.0315,-0.0197,-0.0157*
1,1,0.0315,-0.0197,0.0157*
1,1,0.0315,0.0197,0.0157*
1,1,0.0315,0.0197,-0.0157*
%
%ADD34ROUNDEDRECTD34*%
%ADD35O,0.0709X0.0630*%
%ADD36R,0.0256X0.0758*%
%ADD37C,0.0650*%
%ADD38C,0.0500*%
G36*
X045139Y041425D02*
X045078Y041379D01*
X045012Y041292D01*
X04497Y041191D01*
X044955Y041083D01*
Y041004D01*
X04497Y040896D01*
X045012Y040795D01*
X045078Y040708D01*
X045165Y040641D01*
X045221Y040618D01*
Y040539D01*
X045233Y04048D01*
X045266Y040431D01*
X045315Y040398D01*
X045374Y040386D01*
X046693D01*
X046751Y040398D01*
X046801Y040431D01*
X04726Y04089D01*
X052802D01*
X05282Y04084D01*
X052719Y040757D01*
X05262Y040637D01*
X052547Y0405D01*
X052502Y040352D01*
X052487Y040197D01*
X052502Y040042D01*
X052547Y039893D01*
X05262Y039756D01*
X052719Y039636D01*
X052839Y039538D01*
X052976Y039464D01*
X053125Y039419D01*
X05328Y039404D01*
X053434Y039419D01*
X053583Y039464D01*
X05372Y039538D01*
X05384Y039636D01*
X053939Y039756D01*
X054012Y039893D01*
X054057Y040042D01*
X054072Y040197D01*
X054057Y040352D01*
X054012Y0405D01*
X053939Y040637D01*
X05384Y040757D01*
X053739Y04084D01*
X053757Y04089D01*
X053972D01*
X054178Y040685D01*
X054178Y026146D01*
X053846Y025815D01*
X053585D01*
X053568Y025865D01*
X053615Y025901D01*
X053681Y025988D01*
X053723Y026089D01*
X053737Y026197D01*
X053723Y026305D01*
X053681Y026406D01*
X053615Y026493D01*
X053528Y026559D01*
X053427Y026601D01*
X053319Y026615D01*
X05324D01*
X053132Y026601D01*
X053031Y026559D01*
X052944Y026493D01*
X052878Y026406D01*
X052836Y026305D01*
X052822Y026197D01*
X052836Y026089D01*
X052878Y025988D01*
X052944Y025901D01*
X052991Y025865D01*
X052974Y025815D01*
X052851D01*
X052792Y025803D01*
X052743Y02577D01*
X052519Y025547D01*
X041654D01*
X041644Y02557D01*
X041588Y025643D01*
X041515Y025699D01*
X04143Y025735D01*
X041339Y025747D01*
X041247Y025735D01*
X041162Y025699D01*
X041089Y025643D01*
X041033Y02557D01*
X040998Y025485D01*
X040986Y025394D01*
X040998Y025302D01*
X041033Y025217D01*
X041089Y025144D01*
X041162Y025088D01*
X041247Y025053D01*
X041339Y025041D01*
X04143Y025053D01*
X041515Y025088D01*
X041588Y025144D01*
X041644Y025217D01*
X041654Y025241D01*
X052583D01*
X052641Y025252D01*
X052691Y025286D01*
X052837Y025431D01*
X052878Y025406D01*
X052836Y025305D01*
X052822Y025197D01*
X052836Y025089D01*
X052878Y024988D01*
X052944Y024901D01*
X053031Y024834D01*
X053132Y024793D01*
X05324Y024778D01*
X053319D01*
X053427Y024793D01*
X053528Y024834D01*
X053615Y024901D01*
X053681Y024988D01*
X053723Y025089D01*
X053737Y025197D01*
X053723Y025305D01*
X053681Y025406D01*
X053641Y025459D01*
X053666Y025509D01*
X05391D01*
X053968Y025521D01*
X054018Y025554D01*
X054423Y025959D01*
X054473Y025938D01*
Y02285D01*
X054485Y022792D01*
X054518Y022742D01*
X054871Y022389D01*
X054836Y022305D01*
X054822Y022197D01*
X054836Y022089D01*
X054871Y022004D01*
X054518Y021651D01*
X054485Y021602D01*
X054473Y021543D01*
Y020634D01*
X054458Y020619D01*
X05114D01*
X051118Y020664D01*
X051137Y02069D01*
X051173Y020775D01*
X051185Y020866D01*
X051173Y020958D01*
X051137Y021043D01*
X051081Y021116D01*
X051008Y021172D01*
X050923Y021207D01*
X050832Y021219D01*
X05074Y021207D01*
X050655Y021172D01*
X050582Y021116D01*
X050526Y021043D01*
X050516Y021019D01*
X049269D01*
X048724Y021565D01*
X048674Y021598D01*
X048615Y02161D01*
X047277D01*
Y022469D01*
X047352D01*
Y023427D01*
X046902D01*
X046896Y023427D01*
X046852D01*
X046846Y023427D01*
X046777D01*
Y023622D01*
X046765Y023681D01*
X046732Y02373D01*
X046683Y023763D01*
X046624Y023775D01*
X043527D01*
Y024047D01*
X043515Y024106D01*
X043482Y024155D01*
X042726Y024911D01*
X042677Y024944D01*
X042618Y024956D01*
X041064D01*
X041054Y02498D01*
X040998Y025053D01*
X040925Y025109D01*
X040839Y025144D01*
X040748Y025156D01*
X040657Y025144D01*
X040572Y025109D01*
X040498Y025053D01*
X040442Y02498D01*
X040407Y024895D01*
X040395Y024803D01*
X040407Y024712D01*
X040442Y024627D01*
X040498Y024554D01*
X040572Y024497D01*
X040657Y024462D01*
X040748Y02445D01*
X040839Y024462D01*
X040925Y024497D01*
X040998Y024554D01*
X041054Y024627D01*
X041064Y02465D01*
X042555D01*
X042888Y024317D01*
X042867Y024267D01*
X040473D01*
X040463Y024291D01*
X040407Y024364D01*
X040334Y02442D01*
X040249Y024455D01*
X040157Y024467D01*
X040066Y024455D01*
X039981Y02442D01*
X039908Y024364D01*
X039852Y024291D01*
X039816Y024206D01*
X039804Y024114D01*
X039816Y024023D01*
X039852Y023938D01*
X039908Y023865D01*
X039981Y023808D01*
X040066Y023773D01*
X040157Y023761D01*
X040249Y023773D01*
X040334Y023808D01*
X040407Y023865D01*
X040463Y023938D01*
X040473Y023961D01*
X04287D01*
X042971Y02386D01*
Y023427D01*
X042902D01*
X042896Y023427D01*
X042852D01*
X042846Y023427D01*
X042402D01*
X042396Y023427D01*
X042352D01*
X042346Y023427D01*
X042277D01*
Y023524D01*
X042265Y023582D01*
X042232Y023632D01*
X042183Y023665D01*
X042124Y023677D01*
X039939D01*
X03993Y0237D01*
X039874Y023773D01*
X039801Y023829D01*
X039715Y023865D01*
X039624Y023877D01*
X039533Y023865D01*
X039448Y023829D01*
X039374Y023773D01*
X039318Y0237D01*
X039283Y023615D01*
X039271Y023524D01*
X039283Y023432D01*
X039318Y023347D01*
X039374Y023274D01*
X039448Y023218D01*
X039533Y023183D01*
X039624Y023171D01*
X039715Y023183D01*
X039801Y023218D01*
X039874Y023274D01*
X03993Y023347D01*
X039939Y023371D01*
X041396D01*
Y022469D01*
X041852D01*
Y022469D01*
X041896D01*
Y022469D01*
X042346D01*
X042352Y022469D01*
X042396D01*
X042402Y022469D01*
X042846D01*
X042852Y022469D01*
X042896D01*
X042902Y022469D01*
X043346D01*
X043352Y022469D01*
X043396D01*
X043402Y022469D01*
X043846D01*
X043852Y022469D01*
X043896D01*
X043902Y022469D01*
X043971D01*
Y022307D01*
X043765Y022102D01*
X039765D01*
Y022315D01*
X039152D01*
Y021583D01*
X039765D01*
Y021796D01*
X043829D01*
X043887Y021808D01*
X043937Y021841D01*
X044232Y022136D01*
X044265Y022186D01*
X044277Y022244D01*
Y022469D01*
X044346D01*
X044352Y022469D01*
X044396D01*
X044402Y022469D01*
X044471D01*
Y02205D01*
X044139Y021718D01*
X040059D01*
X040001Y021706D01*
X039951Y021673D01*
X039918Y021623D01*
X039906Y021565D01*
Y021413D01*
X036973D01*
X036373Y022012D01*
Y023174D01*
X038284D01*
X03831Y023112D01*
X038378Y023024D01*
X038467Y022956D01*
X038528Y02293D01*
Y022315D01*
X038384D01*
Y021583D01*
X038998D01*
Y022315D01*
X038834D01*
Y02293D01*
X038895Y022956D01*
X038984Y023024D01*
X039052Y023112D01*
X039095Y023216D01*
X03911Y023327D01*
X039095Y023438D01*
X039052Y023541D01*
X038984Y02363D01*
X038895Y023698D01*
X038792Y023741D01*
X038681Y023755D01*
X03857Y023741D01*
X038467Y023698D01*
X038378Y02363D01*
X03831Y023541D01*
X038284Y02348D01*
X035363D01*
X035094Y023748D01*
Y028982D01*
X035144Y028999D01*
X035183Y028947D01*
X035257Y028891D01*
X035342Y028856D01*
X035383Y02885D01*
Y029197D01*
Y029543D01*
X035342Y029538D01*
X035257Y029503D01*
X035183Y029446D01*
X035144Y029395D01*
X035094Y029412D01*
Y030807D01*
X035082Y030866D01*
X035049Y030915D01*
X034733Y031231D01*
X034723Y031305D01*
X034688Y031389D01*
X035049Y03175D01*
X035082Y0318D01*
X035094Y031858D01*
Y035353D01*
X036614D01*
X036673Y035365D01*
X036722Y035398D01*
X036755Y035447D01*
X036767Y035506D01*
Y040989D01*
X041957D01*
Y040846D01*
X041966Y040779D01*
X041992Y040717D01*
X042033Y040663D01*
X042087Y040622D01*
X042149Y040596D01*
X042217Y040587D01*
X042531D01*
X042599Y040596D01*
X042661Y040622D01*
X042715Y040663D01*
X042756Y040717D01*
X042782Y040779D01*
X042791Y040846D01*
Y04124D01*
X042782Y041307D01*
X042756Y04137D01*
X042715Y041424D01*
X042713Y041425D01*
X04273Y041475D01*
X043122D01*
X043139Y041425D01*
X043078Y041379D01*
X043012Y041292D01*
X04297Y041191D01*
X042957Y041093D01*
X043791D01*
X043778Y041191D01*
X043736Y041292D01*
X04367Y041379D01*
X043609Y041425D01*
X043626Y041475D01*
X044122D01*
X044139Y041425D01*
X044078Y041379D01*
X044012Y041292D01*
X04397Y041191D01*
X043955Y041083D01*
Y041004D01*
X04397Y040896D01*
X044012Y040795D01*
X044078Y040708D01*
X044165Y040641D01*
X044266Y0406D01*
X044374Y040585D01*
X044482Y0406D01*
X044583Y040641D01*
X04467Y040708D01*
X044736Y040795D01*
X044778Y040896D01*
X044793Y041004D01*
Y041083D01*
X044778Y041191D01*
X044736Y041292D01*
X04467Y041379D01*
X044609Y041425D01*
X044626Y041475D01*
X045122D01*
X045139Y041425D01*
D02*
G37*
G36*
X042035D02*
X042033Y041424D01*
X041992Y04137D01*
X041966Y041307D01*
X041964Y041295D01*
X036614D01*
X036556Y041283D01*
X036506Y04125D01*
X036473Y0412D01*
X036461Y041142D01*
Y039362D01*
X036423Y03933D01*
X036411Y039332D01*
X035897D01*
Y039486D01*
X035166D01*
Y038872D01*
X035897D01*
Y039026D01*
X036258D01*
Y035954D01*
X033465D01*
X033406Y035942D01*
X033356Y035909D01*
X033061Y035614D01*
X033028Y035564D01*
X033016Y035506D01*
Y031846D01*
X032621D01*
X032605Y031893D01*
X032615Y031901D01*
X032681Y031988D01*
X032723Y032089D01*
X032737Y032197D01*
X032723Y032305D01*
X032681Y032406D01*
X032615Y032493D01*
X032528Y032559D01*
X032427Y032601D01*
X032319Y032615D01*
X03224D01*
X032132Y032601D01*
X032031Y032559D01*
X031944Y032493D01*
X031878Y032406D01*
X031836Y032305D01*
X031822Y032197D01*
X031836Y032089D01*
X031878Y031988D01*
X031944Y031901D01*
X032031Y031834D01*
X032111Y031801D01*
X032135Y031758D01*
X032136Y031742D01*
X032127Y031693D01*
Y031599D01*
X032031Y031559D01*
X031944Y031493D01*
X031878Y031406D01*
X031836Y031305D01*
X031822Y031197D01*
X031836Y031089D01*
X031878Y030988D01*
X031944Y030901D01*
X032031Y030834D01*
X032132Y030793D01*
X03224Y030778D01*
X032319D01*
X032427Y030793D01*
X032528Y030834D01*
X032615Y030901D01*
X032681Y030988D01*
X032705Y031044D01*
X033854D01*
X033878Y030988D01*
X033944Y030901D01*
X034031Y030834D01*
X034132Y030793D01*
X03424Y030778D01*
X034319D01*
X034427Y030793D01*
X034528Y030834D01*
X034615Y030901D01*
X03463Y030902D01*
X034788Y030744D01*
Y023685D01*
X0348Y023627D01*
X034833Y023577D01*
X035191Y023219D01*
X035241Y023185D01*
X035299Y023174D01*
X036068D01*
Y021949D01*
X036079Y02189D01*
X036112Y021841D01*
X036801Y021152D01*
X036851Y021119D01*
X036909Y021107D01*
X040059D01*
X040118Y021119D01*
X040167Y021152D01*
X0402Y021201D01*
X040212Y02126D01*
Y021412D01*
X044203D01*
X044261Y021424D01*
X044311Y021457D01*
X044732Y021878D01*
X044765Y021928D01*
X044777Y021986D01*
Y022469D01*
X044846D01*
X044852Y022469D01*
X044896D01*
X044902Y022469D01*
X045346D01*
X045352Y022469D01*
X045396D01*
X045402Y022469D01*
X045846D01*
X045852Y022469D01*
X045896D01*
X045902Y022469D01*
X046346D01*
X046352Y022469D01*
X046396D01*
X046402Y022469D01*
X046846D01*
X046852Y022469D01*
X046896D01*
X046902Y022469D01*
X046971D01*
Y021457D01*
X046983Y021398D01*
X047016Y021349D01*
X047065Y021315D01*
X047124Y021304D01*
X048552D01*
X049098Y020758D01*
X049147Y020725D01*
X049206Y020713D01*
X050516D01*
X050526Y02069D01*
X050546Y020664D01*
X050524Y020619D01*
X049129D01*
X048605Y021144D01*
X048555Y021177D01*
X048496Y021189D01*
X046725D01*
X046666Y021177D01*
X046617Y021144D01*
X046196Y020724D01*
X046012D01*
X046002Y020747D01*
X045946Y02082D01*
X045873Y020877D01*
X045788Y020912D01*
X045696Y020924D01*
X045605Y020912D01*
X04552Y020877D01*
X045447Y02082D01*
X045391Y020747D01*
X045355Y020662D01*
X045343Y020571D01*
X045355Y02048D01*
X045391Y020394D01*
X045447Y020321D01*
X04552Y020265D01*
X045605Y02023D01*
X045696Y020218D01*
X045788Y02023D01*
X045873Y020265D01*
X045946Y020321D01*
X046002Y020394D01*
X046012Y020418D01*
X04626D01*
X046318Y02043D01*
X046368Y020463D01*
X046616Y02071D01*
X046653Y020677D01*
X04662Y020637D01*
X046547Y0205D01*
X046502Y020352D01*
X046487Y020197D01*
X046502Y020042D01*
X046547Y019893D01*
X04662Y019756D01*
X046719Y019636D01*
X046839Y019538D01*
X046976Y019464D01*
X047053Y019441D01*
X047046Y019391D01*
X035373D01*
X034638Y020126D01*
X03458Y020165D01*
X034512Y020178D01*
X03075D01*
X03074Y020176D01*
X030601Y020195D01*
X030523Y020227D01*
X030227Y020523D01*
X030195Y020601D01*
X030176Y02074D01*
X030178Y02075D01*
Y026728D01*
X030228Y026749D01*
X030412Y026565D01*
X030462Y026532D01*
X03052Y02652D01*
X030902D01*
X030927Y02647D01*
X030878Y026406D01*
X030836Y026305D01*
X030822Y026197D01*
X030836Y026089D01*
X030878Y025988D01*
X030944Y025901D01*
X031031Y025834D01*
X031132Y025793D01*
X03124Y025778D01*
X031319D01*
X031427Y025793D01*
X031528Y025834D01*
X031615Y025901D01*
X031681Y025988D01*
X031723Y026089D01*
X031737Y026197D01*
X031723Y026305D01*
X031681Y026406D01*
X031632Y02647D01*
X031657Y02652D01*
X03174D01*
X031871Y026389D01*
X031836Y026305D01*
X031822Y026197D01*
X031836Y026089D01*
X031878Y025988D01*
X031944Y025901D01*
X032031Y025834D01*
X032132Y025793D01*
X03224Y025778D01*
X032319D01*
X032427Y025793D01*
X032528Y025834D01*
X032615Y025901D01*
X032681Y025988D01*
X032723Y026089D01*
X032737Y026197D01*
X032723Y026305D01*
X032681Y026406D01*
X032615Y026493D01*
X032528Y026559D01*
X032427Y026601D01*
X032319Y026615D01*
X03224D01*
X032132Y026601D01*
X032103Y026589D01*
X031911Y026781D01*
X031862Y026815D01*
X031803Y026826D01*
X0316D01*
X031583Y026876D01*
X031615Y026901D01*
X031681Y026988D01*
X031723Y027089D01*
X031737Y027197D01*
X031723Y027305D01*
X031681Y027406D01*
X031615Y027493D01*
X031528Y027559D01*
X031427Y027601D01*
X031319Y027615D01*
X03124D01*
X031132Y027601D01*
X031031Y027559D01*
X030944Y027493D01*
X030878Y027406D01*
X030836Y027305D01*
X030822Y027197D01*
X030836Y027089D01*
X030878Y026988D01*
X030944Y026901D01*
X030976Y026876D01*
X030959Y026826D01*
X030584D01*
X030468Y026942D01*
Y037338D01*
X030674Y037544D01*
X030933D01*
X030949Y037497D01*
X030944Y037493D01*
X030878Y037406D01*
X030836Y037305D01*
X030822Y037197D01*
X030836Y037089D01*
X030878Y036988D01*
X030944Y036901D01*
X031031Y036834D01*
X031132Y036793D01*
X03124Y036778D01*
X031319D01*
X031427Y036793D01*
X031528Y036834D01*
X031615Y036901D01*
X031681Y036988D01*
X031723Y037089D01*
X031737Y037197D01*
X031723Y037305D01*
X031681Y037406D01*
X031615Y037493D01*
X03161Y037497D01*
X031626Y037544D01*
X031933D01*
X031949Y037497D01*
X031944Y037493D01*
X031878Y037406D01*
X031836Y037305D01*
X031822Y037197D01*
X031836Y037089D01*
X031878Y036988D01*
X031944Y036901D01*
X032031Y036834D01*
X032132Y036793D01*
X03224Y036778D01*
X032319D01*
X032427Y036793D01*
X032528Y036834D01*
X032615Y036901D01*
X032681Y036988D01*
X032723Y037089D01*
X032737Y037197D01*
X032723Y037305D01*
X032681Y037406D01*
X032615Y037493D01*
X03261Y037497D01*
X032626Y037544D01*
X032721D01*
X033016Y037248D01*
Y036713D01*
X033028Y036654D01*
X033061Y036604D01*
X033347Y036319D01*
X033396Y036286D01*
X033455Y036274D01*
X035176D01*
Y036091D01*
X035887D01*
Y036763D01*
X035176D01*
Y03658D01*
X033518D01*
X033322Y036776D01*
Y037312D01*
X033311Y03737D01*
X033277Y03742D01*
X032892Y037805D01*
X032843Y037838D01*
X032784Y03785D01*
X032626D01*
X03261Y037897D01*
X032615Y037901D01*
X032681Y037988D01*
X032723Y038089D01*
X032737Y038197D01*
X032723Y038305D01*
X032681Y038406D01*
X032615Y038493D01*
X032528Y038559D01*
X032427Y038601D01*
X032319Y038615D01*
X03224D01*
X032132Y038601D01*
X032031Y038559D01*
X031944Y038493D01*
X031878Y038406D01*
X031836Y038305D01*
X031822Y038197D01*
X031836Y038089D01*
X031878Y037988D01*
X031944Y037901D01*
X031949Y037897D01*
X031933Y03785D01*
X031626D01*
X03161Y037897D01*
X031615Y037901D01*
X031681Y037988D01*
X031723Y038089D01*
X031737Y038197D01*
X031723Y038305D01*
X031681Y038406D01*
X031615Y038493D01*
X031528Y038559D01*
X031427Y038601D01*
X031319Y038615D01*
X03124D01*
X031132Y038601D01*
X031031Y038559D01*
X030944Y038493D01*
X030878Y038406D01*
X030836Y038305D01*
X030822Y038197D01*
X030836Y038089D01*
X030878Y037988D01*
X030944Y037901D01*
X030949Y037897D01*
X030933Y03785D01*
X03061D01*
X030552Y037838D01*
X030502Y037805D01*
X030228Y037531D01*
X030178Y037552D01*
Y041475D01*
X033931D01*
X033938Y041466D01*
X033926Y041402D01*
X033839Y041356D01*
X033719Y041257D01*
X03362Y041137D01*
X033547Y041D01*
X033502Y040852D01*
X033487Y040697D01*
X033502Y040542D01*
X033547Y040393D01*
X03362Y040256D01*
X033719Y040136D01*
X033839Y040038D01*
X033976Y039964D01*
X034125Y039919D01*
X03428Y039904D01*
X034434Y039919D01*
X034583Y039964D01*
X03472Y040038D01*
X03484Y040136D01*
X034939Y040256D01*
X035012Y040393D01*
X035057Y040542D01*
X035072Y040697D01*
X035057Y040852D01*
X035012Y041D01*
X034939Y041137D01*
X03484Y041257D01*
X03472Y041356D01*
X034633Y041402D01*
X034621Y041466D01*
X034628Y041475D01*
X042018D01*
X042035Y041425D01*
D02*
G37*
G36*
X057381Y02075D02*
X057383Y02074D01*
X057364Y020601D01*
X057332Y020523D01*
X057036Y020227D01*
X056958Y020195D01*
X056819Y020176D01*
X056809Y020178D01*
X049079D01*
X049079Y020178D01*
X04901Y020165D01*
X048953Y020126D01*
X048953Y020126D01*
X048217Y019391D01*
X047513D01*
X047506Y019441D01*
X047583Y019464D01*
X04772Y019538D01*
X04784Y019636D01*
X047939Y019756D01*
X048012Y019893D01*
X048057Y020042D01*
X048072Y020197D01*
X048057Y020352D01*
X048012Y0205D01*
X047939Y020637D01*
X04784Y020757D01*
X047748Y020833D01*
X047766Y020883D01*
X048433D01*
X048958Y020358D01*
X049008Y020325D01*
X049066Y020313D01*
X054521D01*
X05458Y020325D01*
X054629Y020358D01*
X054734Y020463D01*
X054767Y020512D01*
X054779Y020571D01*
Y021138D01*
X054829Y021141D01*
X054836Y021089D01*
X054878Y020988D01*
X054944Y020901D01*
X055031Y020834D01*
X055132Y020793D01*
X05524Y020778D01*
X055319D01*
X055427Y020793D01*
X055528Y020834D01*
X055615Y020901D01*
X055681Y020988D01*
X055723Y021089D01*
X055737Y021197D01*
X055723Y021305D01*
X055681Y021406D01*
X055615Y021493D01*
X055528Y021559D01*
X055427Y021601D01*
X055319Y021615D01*
X05524D01*
X055132Y021601D01*
X055031Y021559D01*
X054944Y021493D01*
X054878Y021406D01*
X054836Y021305D01*
X054829Y021252D01*
X054779Y021256D01*
Y02148D01*
X055103Y021804D01*
X055132Y021793D01*
X05524Y021778D01*
X055319D01*
X055427Y021793D01*
X055528Y021834D01*
X055615Y021901D01*
X055681Y021988D01*
X055723Y022089D01*
X055737Y022197D01*
X055723Y022305D01*
X055681Y022406D01*
X055615Y022493D01*
X055528Y022559D01*
X055427Y022601D01*
X055319Y022615D01*
X05524D01*
X055132Y022601D01*
X055103Y022589D01*
X054779Y022914D01*
Y023138D01*
X054829Y023141D01*
X054836Y023089D01*
X054878Y022988D01*
X054944Y022901D01*
X055031Y022834D01*
X055132Y022793D01*
X05524Y022778D01*
X055319D01*
X055427Y022793D01*
X055528Y022834D01*
X055615Y022901D01*
X055681Y022988D01*
X055723Y023089D01*
X055737Y023197D01*
X055723Y023305D01*
X055681Y023406D01*
X055615Y023493D01*
X055528Y023559D01*
X055427Y023601D01*
X055319Y023615D01*
X05524D01*
X055132Y023601D01*
X055031Y023559D01*
X054944Y023493D01*
X054878Y023406D01*
X054836Y023305D01*
X054829Y023252D01*
X054779Y023256D01*
Y024138D01*
X054829Y024141D01*
X054836Y024089D01*
X054878Y023988D01*
X054944Y023901D01*
X055031Y023834D01*
X055132Y023793D01*
X05524Y023778D01*
X055319D01*
X055427Y023793D01*
X055528Y023834D01*
X055615Y023901D01*
X055681Y023988D01*
X055723Y024089D01*
X055737Y024197D01*
X055723Y024305D01*
X055681Y024406D01*
X055615Y024493D01*
X055528Y024559D01*
X055427Y024601D01*
X055319Y024615D01*
X05524D01*
X055132Y024601D01*
X055031Y024559D01*
X054944Y024493D01*
X054878Y024406D01*
X054836Y024305D01*
X054829Y024252D01*
X054779Y024256D01*
Y025138D01*
X054829Y025141D01*
X054836Y025089D01*
X054878Y024988D01*
X054944Y024901D01*
X055031Y024834D01*
X055132Y024793D01*
X05524Y024778D01*
X055319D01*
X055427Y024793D01*
X055528Y024834D01*
X055615Y024901D01*
X055681Y024988D01*
X055723Y025089D01*
X055737Y025197D01*
X055723Y025305D01*
X055681Y025406D01*
X055615Y025493D01*
X055528Y025559D01*
X055427Y025601D01*
X055319Y025615D01*
X05524D01*
X055132Y025601D01*
X055031Y025559D01*
X054944Y025493D01*
X054878Y025406D01*
X054836Y025305D01*
X054829Y025252D01*
X054779Y025256D01*
Y026138D01*
X054829Y026141D01*
X054836Y026089D01*
X054878Y025988D01*
X054944Y025901D01*
X055031Y025834D01*
X055132Y025793D01*
X05524Y025778D01*
X055319D01*
X055427Y025793D01*
X055528Y025834D01*
X055615Y025901D01*
X055681Y025988D01*
X055723Y026089D01*
X055737Y026197D01*
X055723Y026305D01*
X055681Y026406D01*
X055615Y026493D01*
X055528Y026559D01*
X055427Y026601D01*
X055319Y026615D01*
X05524D01*
X055132Y026601D01*
X055031Y026559D01*
X054944Y026493D01*
X054878Y026406D01*
X054836Y026305D01*
X054829Y026252D01*
X054779Y026256D01*
Y027138D01*
X054829Y027141D01*
X054836Y027089D01*
X054878Y026988D01*
X054944Y026901D01*
X055031Y026834D01*
X055132Y026793D01*
X05524Y026778D01*
X055319D01*
X055427Y026793D01*
X055528Y026834D01*
X055615Y026901D01*
X055681Y026988D01*
X055723Y027089D01*
X055737Y027197D01*
X055723Y027305D01*
X055681Y027406D01*
X055615Y027493D01*
X055528Y027559D01*
X055427Y027601D01*
X055319Y027615D01*
X05524D01*
X055132Y027601D01*
X055031Y027559D01*
X054944Y027493D01*
X054878Y027406D01*
X054836Y027305D01*
X054829Y027252D01*
X054779Y027256D01*
Y028138D01*
X054829Y028141D01*
X054836Y028089D01*
X054878Y027988D01*
X054944Y027901D01*
X055031Y027834D01*
X055132Y027793D01*
X05524Y027778D01*
X055319D01*
X055427Y027793D01*
X055528Y027834D01*
X055615Y027901D01*
X055681Y027988D01*
X055723Y028089D01*
X055737Y028197D01*
X055723Y028305D01*
X055681Y028406D01*
X055615Y028493D01*
X055528Y028559D01*
X055427Y028601D01*
X055319Y028615D01*
X05524D01*
X055132Y028601D01*
X055031Y028559D01*
X054944Y028493D01*
X054878Y028406D01*
X054836Y028305D01*
X054829Y028252D01*
X054779Y028256D01*
Y029138D01*
X054829Y029141D01*
X054836Y029089D01*
X054878Y028988D01*
X054944Y028901D01*
X055031Y028834D01*
X055132Y028793D01*
X05524Y028778D01*
X055319D01*
X055427Y028793D01*
X055528Y028834D01*
X055615Y028901D01*
X055681Y028988D01*
X055723Y029089D01*
X055737Y029197D01*
X055723Y029305D01*
X055681Y029406D01*
X055615Y029493D01*
X055528Y029559D01*
X055427Y029601D01*
X055319Y029615D01*
X05524D01*
X055132Y029601D01*
X055031Y029559D01*
X054944Y029493D01*
X054878Y029406D01*
X054836Y029305D01*
X054829Y029252D01*
X054779Y029256D01*
Y030138D01*
X054829Y030141D01*
X054836Y030089D01*
X054878Y029988D01*
X054944Y029901D01*
X055031Y029834D01*
X055132Y029793D01*
X05524Y029778D01*
X055319D01*
X055427Y029793D01*
X055528Y029834D01*
X055615Y029901D01*
X055681Y029988D01*
X055723Y030089D01*
X055737Y030197D01*
X055723Y030305D01*
X055681Y030406D01*
X055615Y030493D01*
X055528Y030559D01*
X055427Y030601D01*
X055319Y030615D01*
X05524D01*
X055132Y030601D01*
X055031Y030559D01*
X054944Y030493D01*
X054878Y030406D01*
X054836Y030305D01*
X054829Y030252D01*
X054779Y030256D01*
Y031138D01*
X054829Y031141D01*
X054836Y031089D01*
X054878Y030988D01*
X054944Y030901D01*
X055031Y030834D01*
X055132Y030793D01*
X05524Y030778D01*
X055319D01*
X055427Y030793D01*
X055528Y030834D01*
X055615Y030901D01*
X055681Y030988D01*
X055723Y031089D01*
X055737Y031197D01*
X055723Y031305D01*
X055681Y031406D01*
X055615Y031493D01*
X055528Y031559D01*
X055427Y031601D01*
X055319Y031615D01*
X05524D01*
X055132Y031601D01*
X055031Y031559D01*
X054944Y031493D01*
X054878Y031406D01*
X054836Y031305D01*
X054829Y031252D01*
X054779Y031256D01*
Y032138D01*
X054829Y032141D01*
X054836Y032089D01*
X054878Y031988D01*
X054944Y031901D01*
X055031Y031834D01*
X055132Y031793D01*
X05524Y031778D01*
X055319D01*
X055427Y031793D01*
X055528Y031834D01*
X055615Y031901D01*
X055681Y031988D01*
X055723Y032089D01*
X055737Y032197D01*
X055723Y032305D01*
X055681Y032406D01*
X055615Y032493D01*
X055528Y032559D01*
X055427Y032601D01*
X055319Y032615D01*
X05524D01*
X055132Y032601D01*
X055031Y032559D01*
X054944Y032493D01*
X054878Y032406D01*
X054836Y032305D01*
X054829Y032252D01*
X054779Y032256D01*
Y033138D01*
X054829Y033141D01*
X054836Y033089D01*
X054878Y032988D01*
X054944Y032901D01*
X055031Y032834D01*
X055132Y032793D01*
X05524Y032778D01*
X055319D01*
X055427Y032793D01*
X055528Y032834D01*
X055615Y032901D01*
X055681Y032988D01*
X055723Y033089D01*
X055737Y033197D01*
X055723Y033305D01*
X055681Y033406D01*
X055615Y033493D01*
X055528Y033559D01*
X055427Y033601D01*
X055319Y033615D01*
X05524D01*
X055132Y033601D01*
X055031Y033559D01*
X054944Y033493D01*
X054878Y033406D01*
X054836Y033305D01*
X054829Y033252D01*
X054779Y033256D01*
Y034138D01*
X054829Y034141D01*
X054836Y034089D01*
X054878Y033988D01*
X054944Y033901D01*
X055031Y033834D01*
X055132Y033793D01*
X05524Y033778D01*
X055319D01*
X055427Y033793D01*
X055528Y033834D01*
X055615Y033901D01*
X055681Y033988D01*
X055723Y034089D01*
X055737Y034197D01*
X055723Y034305D01*
X055681Y034406D01*
X055615Y034493D01*
X055528Y034559D01*
X055427Y034601D01*
X055319Y034615D01*
X05524D01*
X055132Y034601D01*
X055031Y034559D01*
X054944Y034493D01*
X054878Y034406D01*
X054836Y034305D01*
X054829Y034252D01*
X054779Y034256D01*
Y035138D01*
X054829Y035141D01*
X054836Y035089D01*
X054878Y034988D01*
X054944Y034901D01*
X055031Y034834D01*
X055132Y034793D01*
X05523Y03478D01*
Y035197D01*
Y035614D01*
X055132Y035601D01*
X055031Y035559D01*
X054944Y035493D01*
X054878Y035406D01*
X054836Y035305D01*
X054829Y035252D01*
X054779Y035256D01*
Y036138D01*
X054829Y036141D01*
X054836Y036089D01*
X054878Y035988D01*
X054944Y035901D01*
X055031Y035834D01*
X055132Y035793D01*
X05524Y035778D01*
X055319D01*
X055427Y035793D01*
X055528Y035834D01*
X055615Y035901D01*
X055681Y035988D01*
X055723Y036089D01*
X055737Y036197D01*
X055723Y036305D01*
X055681Y036406D01*
X055615Y036493D01*
X055528Y036559D01*
X055427Y036601D01*
X055319Y036615D01*
X05524D01*
X055132Y036601D01*
X055031Y036559D01*
X054944Y036493D01*
X054878Y036406D01*
X054836Y036305D01*
X054829Y036252D01*
X054779Y036256D01*
Y037138D01*
X054829Y037141D01*
X054836Y037089D01*
X054878Y036988D01*
X054944Y036901D01*
X055031Y036834D01*
X055132Y036793D01*
X05524Y036778D01*
X055319D01*
X055427Y036793D01*
X055528Y036834D01*
X055615Y036901D01*
X055681Y036988D01*
X055723Y037089D01*
X055737Y037197D01*
X055723Y037305D01*
X055681Y037406D01*
X055615Y037493D01*
X055528Y037559D01*
X055427Y037601D01*
X055319Y037615D01*
X05524D01*
X055132Y037601D01*
X055031Y037559D01*
X054944Y037493D01*
X054878Y037406D01*
X054836Y037305D01*
X054829Y037252D01*
X054779Y037256D01*
Y038138D01*
X054829Y038141D01*
X054836Y038089D01*
X054878Y037988D01*
X054944Y037901D01*
X055031Y037834D01*
X055132Y037793D01*
X05524Y037778D01*
X055319D01*
X055427Y037793D01*
X055528Y037834D01*
X055615Y037901D01*
X055681Y037988D01*
X055723Y038089D01*
X055737Y038197D01*
X055723Y038305D01*
X055681Y038406D01*
X055615Y038493D01*
X055528Y038559D01*
X055427Y038601D01*
X055319Y038615D01*
X05524D01*
X055132Y038601D01*
X055031Y038559D01*
X054944Y038493D01*
X054878Y038406D01*
X054836Y038305D01*
X054829Y038252D01*
X054779Y038256D01*
Y038773D01*
X054825Y038782D01*
X054829Y038782D01*
X055734D01*
Y039612D01*
X054829D01*
X054825Y039612D01*
X054779Y039621D01*
Y040945D01*
X054767Y041003D01*
X054734Y041053D01*
X054362Y041425D01*
X054383Y041475D01*
X057381D01*
Y02075D01*
D02*
G37*
%LPC*%
G36*
X043791Y040993D02*
X043424D01*
Y040592D01*
X043482Y0406D01*
X043583Y040641D01*
X04367Y040708D01*
X043736Y040795D01*
X043778Y040896D01*
X043791Y040993D01*
D02*
G37*
G36*
X043324D02*
X042957D01*
X04297Y040896D01*
X043012Y040795D01*
X043078Y040708D01*
X043165Y040641D01*
X043266Y0406D01*
X043324Y040592D01*
Y040993D01*
D02*
G37*
G36*
X039821Y039252D02*
X039427D01*
X03936Y039243D01*
X039297Y039217D01*
X039244Y039176D01*
X039202Y039122D01*
X039176Y039059D01*
X039167Y038992D01*
Y038677D01*
X039176Y03861D01*
X039202Y038547D01*
X039244Y038494D01*
X039297Y038452D01*
X03936Y038426D01*
X039427Y038417D01*
X039821D01*
X039888Y038426D01*
X039951Y038452D01*
X040005Y038494D01*
X040046Y038547D01*
X040072Y03861D01*
X040081Y038677D01*
Y038992D01*
X040072Y039059D01*
X040046Y039122D01*
X040005Y039176D01*
X039951Y039217D01*
X039888Y039243D01*
X039821Y039252D01*
D02*
G37*
G36*
X049163Y039253D02*
X049085D01*
X048976Y039239D01*
X048875Y039197D01*
X048789Y039131D01*
X048722Y039044D01*
X04868Y038943D01*
X048666Y038835D01*
X04868Y038726D01*
X048722Y038625D01*
X048789Y038539D01*
X048875Y038472D01*
X048976Y03843D01*
X049085Y038416D01*
X049163D01*
X049272Y03843D01*
X049373Y038472D01*
X049459Y038539D01*
X049526Y038625D01*
X049568Y038726D01*
X049582Y038835D01*
X049568Y038943D01*
X049526Y039044D01*
X049459Y039131D01*
X049373Y039197D01*
X049272Y039239D01*
X049163Y039253D01*
D02*
G37*
G36*
X053319Y039214D02*
X05324D01*
X053132Y0392D01*
X053031Y039158D01*
X052944Y039091D01*
X052878Y039005D01*
X052836Y038904D01*
X052822Y038795D01*
X052836Y038687D01*
X052878Y038586D01*
X052944Y038499D01*
X053031Y038433D01*
X053132Y038391D01*
X05324Y038377D01*
X053319D01*
X053427Y038391D01*
X053528Y038433D01*
X053615Y038499D01*
X053681Y038586D01*
X053723Y038687D01*
X053737Y038795D01*
X053723Y038904D01*
X053681Y039005D01*
X053615Y039091D01*
X053528Y039158D01*
X053427Y0392D01*
X053319Y039214D01*
D02*
G37*
G36*
X049163Y038253D02*
X049085D01*
X048976Y038239D01*
X048875Y038197D01*
X048789Y038131D01*
X048722Y038044D01*
X04868Y037943D01*
X048666Y037835D01*
X04868Y037726D01*
X048722Y037625D01*
X048789Y037539D01*
X048875Y037472D01*
X048976Y03743D01*
X049085Y037416D01*
X049163D01*
X049272Y03743D01*
X049373Y037472D01*
X049459Y037539D01*
X049526Y037625D01*
X049568Y037726D01*
X049582Y037835D01*
X049568Y037943D01*
X049526Y038044D01*
X049459Y038131D01*
X049373Y038197D01*
X049272Y038239D01*
X049163Y038253D01*
D02*
G37*
G36*
X039663D02*
X039585D01*
X039476Y038239D01*
X039375Y038197D01*
X039289Y038131D01*
X039222Y038044D01*
X03918Y037943D01*
X039166Y037835D01*
X03918Y037726D01*
X039222Y037625D01*
X039289Y037539D01*
X039375Y037472D01*
X039476Y03743D01*
X039585Y037416D01*
X039663D01*
X039772Y03743D01*
X039873Y037472D01*
X039959Y037539D01*
X040026Y037625D01*
X040068Y037726D01*
X040082Y037835D01*
X040068Y037943D01*
X040026Y038044D01*
X039959Y038131D01*
X039873Y038197D01*
X039772Y038239D01*
X039663Y038253D01*
D02*
G37*
G36*
X053319Y038214D02*
X05324D01*
X053132Y0382D01*
X053031Y038158D01*
X052944Y038091D01*
X052878Y038005D01*
X052836Y037904D01*
X052822Y037795D01*
X052836Y037687D01*
X052878Y037586D01*
X052944Y037499D01*
X053031Y037433D01*
X053132Y037391D01*
X05324Y037377D01*
X053319D01*
X053427Y037391D01*
X053528Y037433D01*
X053615Y037499D01*
X053681Y037586D01*
X053723Y037687D01*
X053737Y037795D01*
X053723Y037904D01*
X053681Y038005D01*
X053615Y038091D01*
X053528Y038158D01*
X053427Y0382D01*
X053319Y038214D01*
D02*
G37*
G36*
X049163Y037253D02*
X049085D01*
X048976Y037239D01*
X048875Y037197D01*
X048789Y037131D01*
X048722Y037044D01*
X048699Y036988D01*
X047352D01*
X047293Y036976D01*
X047244Y036943D01*
X047211Y036893D01*
X047199Y036835D01*
Y028007D01*
X043898D01*
X043839Y027996D01*
X043789Y027962D01*
X043756Y027913D01*
X043745Y027854D01*
Y027417D01*
X042124D01*
X042065Y027405D01*
X042016Y027372D01*
X041983Y027322D01*
X041971Y027264D01*
Y027137D01*
X041902D01*
X041896Y027137D01*
X041852D01*
X041846Y027137D01*
X041396D01*
Y026179D01*
X041846D01*
X041852Y026179D01*
X041896D01*
X041902Y026179D01*
X042352D01*
Y026179D01*
X042396D01*
Y026179D01*
X042852D01*
Y026179D01*
X042896D01*
Y026179D01*
X043074D01*
Y026658D01*
X043174D01*
Y026179D01*
X043352D01*
Y026179D01*
X043396D01*
Y026179D01*
X043852D01*
Y026179D01*
X043896D01*
Y026179D01*
X044346D01*
X044352Y026179D01*
X044396D01*
X044402Y026179D01*
X044846D01*
X044852Y026179D01*
X044896D01*
X044902Y026179D01*
X045346D01*
X045352Y026179D01*
X045396D01*
X045402Y026179D01*
X045574D01*
Y026658D01*
Y027137D01*
X045402D01*
X045396Y027137D01*
X045352D01*
X045346Y027137D01*
X044902D01*
X044896Y027137D01*
X044852D01*
X044846Y027137D01*
X044402D01*
X044396Y027137D01*
X044352D01*
X044346Y027137D01*
X044277D01*
Y027406D01*
X046483D01*
X046484Y027405D01*
X046505Y027356D01*
X046483Y027322D01*
X046471Y027264D01*
Y027137D01*
X046402D01*
X046396Y027137D01*
X046352D01*
X046346Y027137D01*
X045902D01*
X045896Y027137D01*
X045852D01*
X045846Y027137D01*
X045674D01*
Y026658D01*
Y026179D01*
X045846D01*
X045852Y026179D01*
X045896D01*
X045902Y026179D01*
X046346D01*
X046352Y026179D01*
X046396D01*
X046402Y026179D01*
X046852D01*
Y026179D01*
X046896D01*
Y026179D01*
X047352D01*
Y026505D01*
X052052D01*
X052111Y026517D01*
X05216Y02655D01*
X052569Y026959D01*
X052602Y027008D01*
X052614Y027067D01*
Y02872D01*
X052637Y02873D01*
X05271Y028786D01*
X052766Y028859D01*
X052802Y028944D01*
X052814Y029035D01*
X052802Y029127D01*
X052766Y029212D01*
X05271Y029285D01*
X052637Y029341D01*
X052552Y029376D01*
X052461Y029388D01*
X052369Y029376D01*
X052284Y029341D01*
X052211Y029285D01*
X052155Y029212D01*
X05212Y029127D01*
X052108Y029035D01*
X05212Y028944D01*
X052155Y028859D01*
X052211Y028786D01*
X052284Y02873D01*
X052308Y02872D01*
Y02713D01*
X051989Y026811D01*
X047352D01*
Y027111D01*
X048228D01*
X048287Y027122D01*
X048336Y027156D01*
X04837Y027205D01*
X048381Y027264D01*
Y031682D01*
X048699D01*
X048722Y031625D01*
X048789Y031539D01*
X048875Y031472D01*
X048976Y03143D01*
X049085Y031416D01*
X049163D01*
X049272Y03143D01*
X049373Y031472D01*
X049425Y031513D01*
X049475Y031488D01*
Y031124D01*
X049487Y031066D01*
X04952Y031016D01*
X049542Y030994D01*
X049592Y030961D01*
X04965Y030949D01*
X049783D01*
X049793Y030926D01*
X049849Y030853D01*
X049922Y030797D01*
X050007Y030761D01*
X050098Y030749D01*
X05019Y030761D01*
X050275Y030797D01*
X050348Y030853D01*
X050404Y030926D01*
X050439Y031011D01*
X050451Y031102D01*
X050439Y031194D01*
X050404Y031279D01*
X050348Y031352D01*
X050275Y031408D01*
X05019Y031443D01*
X050098Y031455D01*
X050007Y031443D01*
X049922Y031408D01*
X049849Y031352D01*
X049831Y031329D01*
X049781Y031346D01*
Y035835D01*
X04977Y035893D01*
X049736Y035943D01*
X049687Y035976D01*
X049628Y035988D01*
X049549D01*
X049526Y036044D01*
X049459Y036131D01*
X049373Y036197D01*
X049272Y036239D01*
X049163Y036253D01*
X049085D01*
X048976Y036239D01*
X048875Y036197D01*
X048789Y036131D01*
X048722Y036044D01*
X04868Y035943D01*
X048666Y035835D01*
X04868Y035726D01*
X048722Y035625D01*
X048789Y035539D01*
X048875Y035472D01*
X048976Y03543D01*
X049085Y035416D01*
X049163D01*
X049272Y03543D01*
X049373Y035472D01*
X049425Y035513D01*
X049475Y035488D01*
Y035181D01*
X049425Y035157D01*
X049373Y035197D01*
X049272Y035239D01*
X049163Y035253D01*
X049085D01*
X048976Y035239D01*
X048875Y035197D01*
X048789Y035131D01*
X048722Y035044D01*
X048699Y034988D01*
X047678D01*
X047619Y034976D01*
X04757Y034943D01*
X047555Y034921D01*
X047505Y034936D01*
Y036682D01*
X048699D01*
X048722Y036625D01*
X048789Y036539D01*
X048875Y036472D01*
X048976Y03643D01*
X049085Y036416D01*
X049163D01*
X049272Y03643D01*
X049373Y036472D01*
X049459Y036539D01*
X049526Y036625D01*
X049568Y036726D01*
X049582Y036835D01*
X049568Y036943D01*
X049526Y037044D01*
X049459Y037131D01*
X049373Y037197D01*
X049272Y037239D01*
X049163Y037253D01*
D02*
G37*
G36*
X039663D02*
X039585D01*
X039476Y037239D01*
X039375Y037197D01*
X039289Y037131D01*
X039222Y037044D01*
X03918Y036943D01*
X039166Y036835D01*
X03918Y036726D01*
X039222Y036625D01*
X039289Y036539D01*
X039375Y036472D01*
X039476Y03643D01*
X039585Y036416D01*
X039663D01*
X039772Y03643D01*
X039873Y036472D01*
X039959Y036539D01*
X040026Y036625D01*
X040068Y036726D01*
X040082Y036835D01*
X040068Y036943D01*
X040026Y037044D01*
X039959Y037131D01*
X039873Y037197D01*
X039772Y037239D01*
X039663Y037253D01*
D02*
G37*
G36*
X053319Y037214D02*
X05324D01*
X053132Y0372D01*
X053031Y037158D01*
X052944Y037091D01*
X052878Y037005D01*
X052836Y036904D01*
X052822Y036795D01*
X052836Y036687D01*
X052878Y036586D01*
X052944Y036499D01*
X053031Y036433D01*
X053132Y036391D01*
X05324Y036377D01*
X053319D01*
X053427Y036391D01*
X053528Y036433D01*
X053615Y036499D01*
X053681Y036586D01*
X053723Y036687D01*
X053737Y036795D01*
X053723Y036904D01*
X053681Y037005D01*
X053615Y037091D01*
X053528Y037158D01*
X053427Y0372D01*
X053319Y037214D01*
D02*
G37*
G36*
X05333Y036212D02*
Y035845D01*
X053731D01*
X053723Y035904D01*
X053681Y036005D01*
X053615Y036091D01*
X053528Y036158D01*
X053427Y0362D01*
X05333Y036212D01*
D02*
G37*
G36*
X05323D02*
X053132Y0362D01*
X053031Y036158D01*
X052944Y036091D01*
X052878Y036005D01*
X052836Y035904D01*
X052828Y035845D01*
X05323D01*
Y036212D01*
D02*
G37*
G36*
X039663Y036253D02*
X039585D01*
X039476Y036239D01*
X039375Y036197D01*
X039289Y036131D01*
X039222Y036044D01*
X03918Y035943D01*
X039166Y035835D01*
X03918Y035726D01*
X039222Y035625D01*
X039289Y035539D01*
X039375Y035472D01*
X039476Y03543D01*
X039585Y035416D01*
X039663D01*
X039772Y03543D01*
X039873Y035472D01*
X039959Y035539D01*
X040026Y035625D01*
X040068Y035726D01*
X040082Y035835D01*
X040068Y035943D01*
X040026Y036044D01*
X039959Y036131D01*
X039873Y036197D01*
X039772Y036239D01*
X039663Y036253D01*
D02*
G37*
G36*
X053731Y035745D02*
X05333D01*
Y035378D01*
X053427Y035391D01*
X053528Y035433D01*
X053615Y035499D01*
X053681Y035586D01*
X053723Y035687D01*
X053731Y035745D01*
D02*
G37*
G36*
X05323D02*
X052828D01*
X052836Y035687D01*
X052878Y035586D01*
X052944Y035499D01*
X053031Y035433D01*
X053132Y035391D01*
X05323Y035378D01*
Y035745D01*
D02*
G37*
G36*
X039663Y035253D02*
X039585D01*
X039476Y035239D01*
X039375Y035197D01*
X039289Y035131D01*
X039222Y035044D01*
X039199Y034988D01*
X037303D01*
X037245Y034976D01*
X037195Y034943D01*
X037162Y034893D01*
X03715Y034835D01*
Y032531D01*
X037096Y03246D01*
X037061Y032375D01*
X037049Y032283D01*
X037061Y032192D01*
X037096Y032107D01*
X037152Y032034D01*
X037225Y031978D01*
X03731Y031942D01*
X037402Y03193D01*
X037493Y031942D01*
X037578Y031978D01*
X037651Y032034D01*
X037707Y032107D01*
X037743Y032192D01*
X037755Y032283D01*
X037743Y032375D01*
X037707Y03246D01*
X037651Y032533D01*
X037578Y032589D01*
X037493Y032624D01*
X037456Y032629D01*
Y034682D01*
X039199D01*
X039222Y034625D01*
X039289Y034539D01*
X039375Y034472D01*
X039476Y03443D01*
X039585Y034416D01*
X039663D01*
X039772Y03443D01*
X039873Y034472D01*
X039959Y034539D01*
X040026Y034625D01*
X040068Y034726D01*
X040082Y034835D01*
X040068Y034943D01*
X040026Y035044D01*
X039959Y035131D01*
X039873Y035197D01*
X039772Y035239D01*
X039663Y035253D01*
D02*
G37*
G36*
X053319Y035214D02*
X05324D01*
X053132Y0352D01*
X053031Y035158D01*
X052944Y035091D01*
X052878Y035005D01*
X052836Y034904D01*
X052822Y034795D01*
X052836Y034687D01*
X052878Y034586D01*
X052944Y034499D01*
X053031Y034433D01*
X053132Y034391D01*
X05324Y034377D01*
X053319D01*
X053427Y034391D01*
X053528Y034433D01*
X053615Y034499D01*
X053681Y034586D01*
X053723Y034687D01*
X053737Y034795D01*
X053723Y034904D01*
X053681Y035005D01*
X053615Y035091D01*
X053528Y035158D01*
X053427Y0352D01*
X053319Y035214D01*
D02*
G37*
G36*
X039663Y034253D02*
X039585D01*
X039476Y034239D01*
X039375Y034197D01*
X039289Y034131D01*
X039222Y034044D01*
X03918Y033943D01*
X039166Y033835D01*
X03918Y033726D01*
X039222Y033625D01*
X039289Y033539D01*
X039375Y033472D01*
X039476Y03343D01*
X039585Y033416D01*
X039663D01*
X039772Y03343D01*
X039873Y033472D01*
X039959Y033539D01*
X040026Y033625D01*
X040068Y033726D01*
X040082Y033835D01*
X040068Y033943D01*
X040026Y034044D01*
X039959Y034131D01*
X039873Y034197D01*
X039772Y034239D01*
X039663Y034253D01*
D02*
G37*
G36*
X053319Y034214D02*
X05324D01*
X053132Y0342D01*
X053031Y034158D01*
X052944Y034091D01*
X052878Y034005D01*
X052836Y033904D01*
X052822Y033795D01*
X052836Y033687D01*
X052878Y033586D01*
X052944Y033499D01*
X053031Y033433D01*
X053132Y033391D01*
X05324Y033377D01*
X053319D01*
X053427Y033391D01*
X053528Y033433D01*
X053615Y033499D01*
X053681Y033586D01*
X053723Y033687D01*
X053737Y033795D01*
X053723Y033904D01*
X053681Y034005D01*
X053615Y034091D01*
X053528Y034158D01*
X053427Y0342D01*
X053319Y034214D01*
D02*
G37*
G36*
X039663Y033253D02*
X039585D01*
X039476Y033239D01*
X039375Y033197D01*
X039289Y033131D01*
X039222Y033044D01*
X03918Y032943D01*
X039166Y032835D01*
X03918Y032726D01*
X039222Y032625D01*
X039289Y032539D01*
X039375Y032472D01*
X039476Y03243D01*
X039585Y032416D01*
X039663D01*
X039772Y03243D01*
X039873Y032472D01*
X039959Y032539D01*
X040026Y032625D01*
X040068Y032726D01*
X040082Y032835D01*
X040068Y032943D01*
X040026Y033044D01*
X039959Y033131D01*
X039873Y033197D01*
X039772Y033239D01*
X039663Y033253D01*
D02*
G37*
G36*
X053319Y033214D02*
X05324D01*
X053132Y0332D01*
X053031Y033158D01*
X052944Y033091D01*
X052878Y033005D01*
X052836Y032904D01*
X052822Y032795D01*
X052836Y032687D01*
X052878Y032586D01*
X052944Y032499D01*
X053031Y032433D01*
X053132Y032391D01*
X05324Y032377D01*
X053319D01*
X053427Y032391D01*
X053528Y032433D01*
X053615Y032499D01*
X053681Y032586D01*
X053723Y032687D01*
X053737Y032795D01*
X053723Y032904D01*
X053681Y033005D01*
X053615Y033091D01*
X053528Y033158D01*
X053427Y0332D01*
X053319Y033214D01*
D02*
G37*
G36*
X039663Y032253D02*
X039585D01*
X039476Y032239D01*
X039375Y032197D01*
X039289Y032131D01*
X039222Y032044D01*
X03918Y031943D01*
X039166Y031835D01*
X03918Y031726D01*
X039222Y031625D01*
X039289Y031539D01*
X039375Y031472D01*
X039476Y03143D01*
X039585Y031416D01*
X039663D01*
X039772Y03143D01*
X039873Y031472D01*
X039959Y031539D01*
X040026Y031625D01*
X040068Y031726D01*
X040082Y031835D01*
X040068Y031943D01*
X040026Y032044D01*
X039959Y032131D01*
X039873Y032197D01*
X039772Y032239D01*
X039663Y032253D01*
D02*
G37*
G36*
X053319Y032214D02*
X05324D01*
X053132Y0322D01*
X053031Y032158D01*
X052944Y032091D01*
X052878Y032005D01*
X052836Y031904D01*
X052822Y031795D01*
X052836Y031687D01*
X052878Y031586D01*
X052944Y031499D01*
X053031Y031433D01*
X053132Y031391D01*
X05324Y031377D01*
X053319D01*
X053427Y031391D01*
X053528Y031433D01*
X053615Y031499D01*
X053681Y031586D01*
X053723Y031687D01*
X053737Y031795D01*
X053723Y031904D01*
X053681Y032005D01*
X053615Y032091D01*
X053528Y032158D01*
X053427Y0322D01*
X053319Y032214D01*
D02*
G37*
G36*
Y031214D02*
X05324D01*
X053132Y0312D01*
X053031Y031158D01*
X052944Y031091D01*
X052878Y031005D01*
X052836Y030904D01*
X052822Y030795D01*
X052836Y030687D01*
X052878Y030586D01*
X052944Y030499D01*
X053031Y030433D01*
X053132Y030391D01*
X05324Y030377D01*
X053319D01*
X053427Y030391D01*
X053528Y030433D01*
X053615Y030499D01*
X053681Y030586D01*
X053723Y030687D01*
X053737Y030795D01*
X053723Y030904D01*
X053681Y031005D01*
X053615Y031091D01*
X053528Y031158D01*
X053427Y0312D01*
X053319Y031214D01*
D02*
G37*
G36*
Y030214D02*
X05324D01*
X053132Y0302D01*
X053031Y030158D01*
X052944Y030091D01*
X052878Y030005D01*
X052836Y029904D01*
X052822Y029795D01*
X052836Y029687D01*
X052878Y029586D01*
X052944Y029499D01*
X053031Y029433D01*
X053132Y029391D01*
X05324Y029377D01*
X053319D01*
X053427Y029391D01*
X053528Y029433D01*
X053615Y029499D01*
X053681Y029586D01*
X053723Y029687D01*
X053737Y029795D01*
X053723Y029904D01*
X053681Y030005D01*
X053615Y030091D01*
X053528Y030158D01*
X053427Y0302D01*
X053319Y030214D01*
D02*
G37*
G36*
X035483Y029543D02*
Y029247D01*
X03578D01*
X035774Y029288D01*
X035739Y029373D01*
X035683Y029446D01*
X03561Y029503D01*
X035524Y029538D01*
X035483Y029543D01*
D02*
G37*
G36*
X03578Y029147D02*
X035483D01*
Y02885D01*
X035524Y028856D01*
X03561Y028891D01*
X035683Y028947D01*
X035739Y02902D01*
X035774Y029105D01*
X03578Y029147D01*
D02*
G37*
G36*
X053319Y028615D02*
X05324D01*
X053132Y028601D01*
X053031Y028559D01*
X052944Y028493D01*
X052878Y028406D01*
X052836Y028305D01*
X052822Y028197D01*
X052836Y028089D01*
X052878Y027988D01*
X052944Y027901D01*
X053031Y027834D01*
X053132Y027793D01*
X05324Y027778D01*
X053319D01*
X053427Y027793D01*
X053528Y027834D01*
X053615Y027901D01*
X053681Y027988D01*
X053723Y028089D01*
X053737Y028197D01*
X053723Y028305D01*
X053681Y028406D01*
X053615Y028493D01*
X053528Y028559D01*
X053427Y028601D01*
X053319Y028615D01*
D02*
G37*
G36*
Y027615D02*
X05324D01*
X053132Y027601D01*
X053031Y027559D01*
X052944Y027493D01*
X052878Y027406D01*
X052836Y027305D01*
X052822Y027197D01*
X052836Y027089D01*
X052878Y026988D01*
X052944Y026901D01*
X053031Y026834D01*
X053132Y026793D01*
X05324Y026778D01*
X053319D01*
X053427Y026793D01*
X053528Y026834D01*
X053615Y026901D01*
X053681Y026988D01*
X053723Y027089D01*
X053737Y027197D01*
X053723Y027305D01*
X053681Y027406D01*
X053615Y027493D01*
X053528Y027559D01*
X053427Y027601D01*
X053319Y027615D01*
D02*
G37*
G36*
X038731Y026749D02*
Y026377D01*
X039103D01*
X039095Y026438D01*
X039052Y026541D01*
X038984Y02663D01*
X038895Y026698D01*
X038792Y026741D01*
X038731Y026749D01*
D02*
G37*
G36*
X038631Y026749D02*
X03857Y026741D01*
X038467Y026698D01*
X038378Y02663D01*
X03831Y026541D01*
X038267Y026438D01*
X038259Y026377D01*
X038631D01*
Y026749D01*
D02*
G37*
G36*
X039103Y026277D02*
X038731D01*
Y025905D01*
X038792Y025913D01*
X038895Y025956D01*
X038984Y026024D01*
X039052Y026112D01*
X039095Y026216D01*
X039103Y026277D01*
D02*
G37*
G36*
X038631D02*
X038259D01*
X038267Y026216D01*
X03831Y026112D01*
X038378Y026024D01*
X038467Y025956D01*
X03857Y025913D01*
X038631Y025905D01*
Y026277D01*
D02*
G37*
G36*
X053319Y024615D02*
X05324D01*
X053132Y024601D01*
X053031Y024559D01*
X052944Y024493D01*
X052878Y024406D01*
X052836Y024305D01*
X052822Y024197D01*
X052836Y024089D01*
X052878Y023988D01*
X052944Y023901D01*
X053031Y023834D01*
X053132Y023793D01*
X05324Y023778D01*
X053319D01*
X053427Y023793D01*
X053528Y023834D01*
X053615Y023901D01*
X053681Y023988D01*
X053723Y024089D01*
X053737Y024197D01*
X053723Y024305D01*
X053681Y024406D01*
X053615Y024493D01*
X053528Y024559D01*
X053427Y024601D01*
X053319Y024615D01*
D02*
G37*
G36*
Y023615D02*
X05324D01*
X053132Y023601D01*
X053031Y023559D01*
X052944Y023493D01*
X052878Y023406D01*
X052836Y023305D01*
X052822Y023197D01*
X052836Y023089D01*
X052878Y022988D01*
X052944Y022901D01*
X053031Y022834D01*
X053132Y022793D01*
X05324Y022778D01*
X053319D01*
X053427Y022793D01*
X053528Y022834D01*
X053615Y022901D01*
X053681Y022988D01*
X053723Y023089D01*
X053737Y023197D01*
X053723Y023305D01*
X053681Y023406D01*
X053615Y023493D01*
X053528Y023559D01*
X053427Y023601D01*
X053319Y023615D01*
D02*
G37*
G36*
Y022615D02*
X05324D01*
X053132Y022601D01*
X053031Y022559D01*
X052944Y022493D01*
X052878Y022406D01*
X052836Y022305D01*
X052822Y022197D01*
X052836Y022089D01*
X052878Y021988D01*
X052944Y021901D01*
X053031Y021834D01*
X053132Y021793D01*
X05324Y021778D01*
X053319D01*
X053427Y021793D01*
X053528Y021834D01*
X053615Y021901D01*
X053681Y021988D01*
X053723Y022089D01*
X053737Y022197D01*
X053723Y022305D01*
X053681Y022406D01*
X053615Y022493D01*
X053528Y022559D01*
X053427Y022601D01*
X053319Y022615D01*
D02*
G37*
G36*
X053734Y021612D02*
X052825D01*
Y020782D01*
X053734D01*
Y021612D01*
D02*
G37*
G36*
X031734Y039612D02*
X030825D01*
Y038782D01*
X031734D01*
Y039612D01*
D02*
G37*
G36*
X032319Y039615D02*
X03224D01*
X032132Y039601D01*
X032031Y039559D01*
X031944Y039493D01*
X031878Y039406D01*
X031836Y039305D01*
X031822Y039197D01*
X031836Y039089D01*
X031878Y038988D01*
X031944Y038901D01*
X032031Y038834D01*
X032132Y038793D01*
X03224Y038778D01*
X032319D01*
X032427Y038793D01*
X032528Y038834D01*
X032615Y038901D01*
X032681Y038988D01*
X032723Y039089D01*
X032737Y039197D01*
X032723Y039305D01*
X032681Y039406D01*
X032615Y039493D01*
X032528Y039559D01*
X032427Y039601D01*
X032319Y039615D01*
D02*
G37*
G36*
X035897Y038718D02*
X035166D01*
Y038105D01*
X035379D01*
Y037531D01*
X035176D01*
Y036859D01*
X035887D01*
Y037531D01*
X035684D01*
Y038105D01*
X035897D01*
Y038718D01*
D02*
G37*
G36*
X03233Y036614D02*
Y036247D01*
X032731D01*
X032723Y036305D01*
X032681Y036406D01*
X032615Y036493D01*
X032528Y036559D01*
X032427Y036601D01*
X03233Y036614D01*
D02*
G37*
G36*
X03223D02*
X032132Y036601D01*
X032031Y036559D01*
X031944Y036493D01*
X031878Y036406D01*
X031836Y036305D01*
X031828Y036247D01*
X03223D01*
Y036614D01*
D02*
G37*
G36*
X032731Y036147D02*
X03233D01*
Y03578D01*
X032427Y035793D01*
X032528Y035834D01*
X032615Y035901D01*
X032681Y035988D01*
X032723Y036089D01*
X032731Y036147D01*
D02*
G37*
G36*
X03223D02*
X031828D01*
X031836Y036089D01*
X031878Y035988D01*
X031944Y035901D01*
X032031Y035834D01*
X032132Y035793D01*
X03223Y03578D01*
Y036147D01*
D02*
G37*
G36*
X031319Y036615D02*
X03124D01*
X031132Y036601D01*
X031031Y036559D01*
X030944Y036493D01*
X030878Y036406D01*
X030836Y036305D01*
X030822Y036197D01*
X030836Y036089D01*
X030878Y035988D01*
X030944Y035901D01*
X031031Y035834D01*
X031132Y035793D01*
X03124Y035778D01*
X031319D01*
X031427Y035793D01*
X031528Y035834D01*
X031615Y035901D01*
X031681Y035988D01*
X031723Y036089D01*
X031737Y036197D01*
X031723Y036305D01*
X031681Y036406D01*
X031615Y036493D01*
X031528Y036559D01*
X031427Y036601D01*
X031319Y036615D01*
D02*
G37*
G36*
X032319Y035615D02*
X03224D01*
X032132Y035601D01*
X032031Y035559D01*
X031944Y035493D01*
X031878Y035406D01*
X031836Y035305D01*
X031822Y035197D01*
X031836Y035089D01*
X031878Y034988D01*
X031944Y034901D01*
X032031Y034834D01*
X032132Y034793D01*
X03224Y034778D01*
X032319D01*
X032427Y034793D01*
X032528Y034834D01*
X032615Y034901D01*
X032681Y034988D01*
X032723Y035089D01*
X032737Y035197D01*
X032723Y035305D01*
X032681Y035406D01*
X032615Y035493D01*
X032528Y035559D01*
X032427Y035601D01*
X032319Y035615D01*
D02*
G37*
G36*
X031319D02*
X03124D01*
X031132Y035601D01*
X031031Y035559D01*
X030944Y035493D01*
X030878Y035406D01*
X030836Y035305D01*
X030822Y035197D01*
X030836Y035089D01*
X030878Y034988D01*
X030944Y034901D01*
X031031Y034834D01*
X031132Y034793D01*
X03124Y034778D01*
X031319D01*
X031427Y034793D01*
X031528Y034834D01*
X031615Y034901D01*
X031681Y034988D01*
X031723Y035089D01*
X031737Y035197D01*
X031723Y035305D01*
X031681Y035406D01*
X031615Y035493D01*
X031528Y035559D01*
X031427Y035601D01*
X031319Y035615D01*
D02*
G37*
G36*
X032319Y034615D02*
X03224D01*
X032132Y034601D01*
X032031Y034559D01*
X031944Y034493D01*
X031878Y034406D01*
X031836Y034305D01*
X031822Y034197D01*
X031836Y034089D01*
X031878Y033988D01*
X031944Y033901D01*
X032031Y033834D01*
X032132Y033793D01*
X03224Y033778D01*
X032319D01*
X032427Y033793D01*
X032528Y033834D01*
X032615Y033901D01*
X032681Y033988D01*
X032723Y034089D01*
X032737Y034197D01*
X032723Y034305D01*
X032681Y034406D01*
X032615Y034493D01*
X032528Y034559D01*
X032427Y034601D01*
X032319Y034615D01*
D02*
G37*
G36*
X031319D02*
X03124D01*
X031132Y034601D01*
X031031Y034559D01*
X030944Y034493D01*
X030878Y034406D01*
X030836Y034305D01*
X030822Y034197D01*
X030836Y034089D01*
X030878Y033988D01*
X030944Y033901D01*
X031031Y033834D01*
X031132Y033793D01*
X03124Y033778D01*
X031319D01*
X031427Y033793D01*
X031528Y033834D01*
X031615Y033901D01*
X031681Y033988D01*
X031723Y034089D01*
X031737Y034197D01*
X031723Y034305D01*
X031681Y034406D01*
X031615Y034493D01*
X031528Y034559D01*
X031427Y034601D01*
X031319Y034615D01*
D02*
G37*
G36*
X032319Y033615D02*
X03224D01*
X032132Y033601D01*
X032031Y033559D01*
X031944Y033493D01*
X031878Y033406D01*
X031836Y033305D01*
X031822Y033197D01*
X031836Y033089D01*
X031878Y032988D01*
X031944Y032901D01*
X032031Y032834D01*
X032132Y032793D01*
X03224Y032778D01*
X032319D01*
X032427Y032793D01*
X032528Y032834D01*
X032615Y032901D01*
X032681Y032988D01*
X032723Y033089D01*
X032737Y033197D01*
X032723Y033305D01*
X032681Y033406D01*
X032615Y033493D01*
X032528Y033559D01*
X032427Y033601D01*
X032319Y033615D01*
D02*
G37*
G36*
X031319D02*
X03124D01*
X031132Y033601D01*
X031031Y033559D01*
X030944Y033493D01*
X030878Y033406D01*
X030836Y033305D01*
X030822Y033197D01*
X030836Y033089D01*
X030878Y032988D01*
X030944Y032901D01*
X031031Y032834D01*
X031132Y032793D01*
X03124Y032778D01*
X031319D01*
X031427Y032793D01*
X031528Y032834D01*
X031615Y032901D01*
X031681Y032988D01*
X031723Y033089D01*
X031737Y033197D01*
X031723Y033305D01*
X031681Y033406D01*
X031615Y033493D01*
X031528Y033559D01*
X031427Y033601D01*
X031319Y033615D01*
D02*
G37*
G36*
Y032615D02*
X03124D01*
X031132Y032601D01*
X031031Y032559D01*
X030944Y032493D01*
X030878Y032406D01*
X030836Y032305D01*
X030822Y032197D01*
X030836Y032089D01*
X030878Y031988D01*
X030944Y031901D01*
X031031Y031834D01*
X031132Y031793D01*
X03124Y031778D01*
X031319D01*
X031427Y031793D01*
X031528Y031834D01*
X031615Y031901D01*
X031681Y031988D01*
X031723Y032089D01*
X031737Y032197D01*
X031723Y032305D01*
X031681Y032406D01*
X031615Y032493D01*
X031528Y032559D01*
X031427Y032601D01*
X031319Y032615D01*
D02*
G37*
G36*
Y031615D02*
X03124D01*
X031132Y031601D01*
X031031Y031559D01*
X030944Y031493D01*
X030878Y031406D01*
X030836Y031305D01*
X030822Y031197D01*
X030836Y031089D01*
X030878Y030988D01*
X030944Y030901D01*
X031031Y030834D01*
X031132Y030793D01*
X03124Y030778D01*
X031319D01*
X031427Y030793D01*
X031528Y030834D01*
X031615Y030901D01*
X031681Y030988D01*
X031723Y031089D01*
X031737Y031197D01*
X031723Y031305D01*
X031681Y031406D01*
X031615Y031493D01*
X031528Y031559D01*
X031427Y031601D01*
X031319Y031615D01*
D02*
G37*
G36*
X03433Y030614D02*
Y030247D01*
X034731D01*
X034723Y030305D01*
X034681Y030406D01*
X034615Y030493D01*
X034528Y030559D01*
X034427Y030601D01*
X03433Y030614D01*
D02*
G37*
G36*
X03423D02*
X034132Y030601D01*
X034031Y030559D01*
X033944Y030493D01*
X033878Y030406D01*
X033836Y030305D01*
X033828Y030247D01*
X03423D01*
Y030614D01*
D02*
G37*
G36*
X03233D02*
Y030247D01*
X032731D01*
X032723Y030305D01*
X032681Y030406D01*
X032615Y030493D01*
X032528Y030559D01*
X032427Y030601D01*
X03233Y030614D01*
D02*
G37*
G36*
X03223D02*
X032132Y030601D01*
X032031Y030559D01*
X031944Y030493D01*
X031878Y030406D01*
X031836Y030305D01*
X031828Y030247D01*
X03223D01*
Y030614D01*
D02*
G37*
G36*
X03133D02*
Y030247D01*
X031731D01*
X031723Y030305D01*
X031681Y030406D01*
X031615Y030493D01*
X031528Y030559D01*
X031427Y030601D01*
X03133Y030614D01*
D02*
G37*
G36*
X03123D02*
X031132Y030601D01*
X031031Y030559D01*
X030944Y030493D01*
X030878Y030406D01*
X030836Y030305D01*
X030828Y030247D01*
X03123D01*
Y030614D01*
D02*
G37*
G36*
X034731Y030147D02*
X03433D01*
Y02978D01*
X034427Y029793D01*
X034528Y029834D01*
X034615Y029901D01*
X034681Y029988D01*
X034723Y030089D01*
X034731Y030147D01*
D02*
G37*
G36*
X03423D02*
X033828D01*
X033836Y030089D01*
X033878Y029988D01*
X033944Y029901D01*
X034031Y029834D01*
X034132Y029793D01*
X03423Y02978D01*
Y030147D01*
D02*
G37*
G36*
X032731D02*
X03233D01*
Y02978D01*
X032427Y029793D01*
X032528Y029834D01*
X032615Y029901D01*
X032681Y029988D01*
X032723Y030089D01*
X032731Y030147D01*
D02*
G37*
G36*
X03223D02*
X031828D01*
X031836Y030089D01*
X031878Y029988D01*
X031944Y029901D01*
X032031Y029834D01*
X032132Y029793D01*
X03223Y02978D01*
Y030147D01*
D02*
G37*
G36*
X031731D02*
X03133D01*
Y02978D01*
X031427Y029793D01*
X031528Y029834D01*
X031615Y029901D01*
X031681Y029988D01*
X031723Y030089D01*
X031731Y030147D01*
D02*
G37*
G36*
X03123D02*
X030828D01*
X030836Y030089D01*
X030878Y029988D01*
X030944Y029901D01*
X031031Y029834D01*
X031132Y029793D01*
X03123Y02978D01*
Y030147D01*
D02*
G37*
G36*
X03433Y029614D02*
Y029247D01*
X034731D01*
X034723Y029305D01*
X034681Y029406D01*
X034615Y029493D01*
X034528Y029559D01*
X034427Y029601D01*
X03433Y029614D01*
D02*
G37*
G36*
X03423D02*
X034132Y029601D01*
X034031Y029559D01*
X033944Y029493D01*
X033878Y029406D01*
X033836Y029305D01*
X033828Y029247D01*
X03423D01*
Y029614D01*
D02*
G37*
G36*
X03233D02*
Y029247D01*
X032731D01*
X032723Y029305D01*
X032681Y029406D01*
X032615Y029493D01*
X032528Y029559D01*
X032427Y029601D01*
X03233Y029614D01*
D02*
G37*
G36*
X03223D02*
X032132Y029601D01*
X032031Y029559D01*
X031944Y029493D01*
X031878Y029406D01*
X031836Y029305D01*
X031828Y029247D01*
X03223D01*
Y029614D01*
D02*
G37*
G36*
X034731Y029147D02*
X03433D01*
Y02878D01*
X034427Y028793D01*
X034528Y028834D01*
X034615Y028901D01*
X034681Y028988D01*
X034723Y029089D01*
X034731Y029147D01*
D02*
G37*
G36*
X03423D02*
X033828D01*
X033836Y029089D01*
X033878Y028988D01*
X033944Y028901D01*
X034031Y028834D01*
X034132Y028793D01*
X03423Y02878D01*
Y029147D01*
D02*
G37*
G36*
X032731D02*
X03233D01*
Y02878D01*
X032427Y028793D01*
X032528Y028834D01*
X032615Y028901D01*
X032681Y028988D01*
X032723Y029089D01*
X032731Y029147D01*
D02*
G37*
G36*
X03223D02*
X031828D01*
X031836Y029089D01*
X031878Y028988D01*
X031944Y028901D01*
X032031Y028834D01*
X032132Y028793D01*
X03223Y02878D01*
Y029147D01*
D02*
G37*
G36*
X031319Y029615D02*
X03124D01*
X031132Y029601D01*
X031031Y029559D01*
X030944Y029493D01*
X030878Y029406D01*
X030836Y029305D01*
X030822Y029197D01*
X030836Y029089D01*
X030878Y028988D01*
X030944Y028901D01*
X031031Y028834D01*
X031132Y028793D01*
X03124Y028778D01*
X031319D01*
X031427Y028793D01*
X031528Y028834D01*
X031615Y028901D01*
X031681Y028988D01*
X031723Y029089D01*
X031737Y029197D01*
X031723Y029305D01*
X031681Y029406D01*
X031615Y029493D01*
X031528Y029559D01*
X031427Y029601D01*
X031319Y029615D01*
D02*
G37*
G36*
X034319Y028615D02*
X03424D01*
X034132Y028601D01*
X034031Y028559D01*
X033944Y028493D01*
X033878Y028406D01*
X033836Y028305D01*
X033822Y028197D01*
X033836Y028089D01*
X033878Y027988D01*
X033944Y027901D01*
X034031Y027834D01*
X034132Y027793D01*
X03424Y027778D01*
X034319D01*
X034427Y027793D01*
X034528Y027834D01*
X034615Y027901D01*
X034681Y027988D01*
X034723Y028089D01*
X034737Y028197D01*
X034723Y028305D01*
X034681Y028406D01*
X034615Y028493D01*
X034528Y028559D01*
X034427Y028601D01*
X034319Y028615D01*
D02*
G37*
G36*
X032319D02*
X03224D01*
X032132Y028601D01*
X032031Y028559D01*
X031944Y028493D01*
X031878Y028406D01*
X031836Y028305D01*
X031822Y028197D01*
X031836Y028089D01*
X031878Y027988D01*
X031944Y027901D01*
X032031Y027834D01*
X032132Y027793D01*
X03224Y027778D01*
X032319D01*
X032427Y027793D01*
X032528Y027834D01*
X032615Y027901D01*
X032681Y027988D01*
X032723Y028089D01*
X032737Y028197D01*
X032723Y028305D01*
X032681Y028406D01*
X032615Y028493D01*
X032528Y028559D01*
X032427Y028601D01*
X032319Y028615D01*
D02*
G37*
G36*
X031319D02*
X03124D01*
X031132Y028601D01*
X031031Y028559D01*
X030944Y028493D01*
X030878Y028406D01*
X030836Y028305D01*
X030822Y028197D01*
X030836Y028089D01*
X030878Y027988D01*
X030944Y027901D01*
X031031Y027834D01*
X031132Y027793D01*
X03124Y027778D01*
X031319D01*
X031427Y027793D01*
X031528Y027834D01*
X031615Y027901D01*
X031681Y027988D01*
X031723Y028089D01*
X031737Y028197D01*
X031723Y028305D01*
X031681Y028406D01*
X031615Y028493D01*
X031528Y028559D01*
X031427Y028601D01*
X031319Y028615D01*
D02*
G37*
G36*
X032319Y027615D02*
X03224D01*
X032132Y027601D01*
X032031Y027559D01*
X031944Y027493D01*
X031878Y027406D01*
X031836Y027305D01*
X031822Y027197D01*
X031836Y027089D01*
X031878Y026988D01*
X031944Y026901D01*
X032031Y026834D01*
X032132Y026793D01*
X03224Y026778D01*
X032319D01*
X032427Y026793D01*
X032528Y026834D01*
X032615Y026901D01*
X032681Y026988D01*
X032723Y027089D01*
X032737Y027197D01*
X032723Y027305D01*
X032681Y027406D01*
X032615Y027493D01*
X032528Y027559D01*
X032427Y027601D01*
X032319Y027615D01*
D02*
G37*
G36*
X034734Y026612D02*
X033825D01*
Y025782D01*
X034734D01*
Y026612D01*
D02*
G37*
G36*
X034319Y025615D02*
X03424D01*
X034132Y025601D01*
X034031Y025559D01*
X033944Y025493D01*
X033878Y025406D01*
X033836Y025305D01*
X033822Y025197D01*
X033836Y025089D01*
X033878Y024988D01*
X033944Y024901D01*
X034031Y024834D01*
X034132Y024793D01*
X03424Y024778D01*
X034319D01*
X034427Y024793D01*
X034528Y024834D01*
X034615Y024901D01*
X034681Y024988D01*
X034723Y025089D01*
X034737Y025197D01*
X034723Y025305D01*
X034681Y025406D01*
X034615Y025493D01*
X034528Y025559D01*
X034427Y025601D01*
X034319Y025615D01*
D02*
G37*
G36*
X032319D02*
X03224D01*
X032132Y025601D01*
X032031Y025559D01*
X031944Y025493D01*
X031878Y025406D01*
X031836Y025305D01*
X031822Y025197D01*
X031836Y025089D01*
X031878Y024988D01*
X031944Y024901D01*
X032031Y024834D01*
X032132Y024793D01*
X03224Y024778D01*
X032319D01*
X032427Y024793D01*
X032528Y024834D01*
X032615Y024901D01*
X032681Y024988D01*
X032723Y025089D01*
X032737Y025197D01*
X032723Y025305D01*
X032681Y025406D01*
X032615Y025493D01*
X032528Y025559D01*
X032427Y025601D01*
X032319Y025615D01*
D02*
G37*
G36*
X031319D02*
X03124D01*
X031132Y025601D01*
X031031Y025559D01*
X030944Y025493D01*
X030878Y025406D01*
X030836Y025305D01*
X030822Y025197D01*
X030836Y025089D01*
X030878Y024988D01*
X030944Y024901D01*
X031031Y024834D01*
X031132Y024793D01*
X03124Y024778D01*
X031319D01*
X031427Y024793D01*
X031528Y024834D01*
X031615Y024901D01*
X031681Y024988D01*
X031723Y025089D01*
X031737Y025197D01*
X031723Y025305D01*
X031681Y025406D01*
X031615Y025493D01*
X031528Y025559D01*
X031427Y025601D01*
X031319Y025615D01*
D02*
G37*
G36*
X034319Y024615D02*
X03424D01*
X034132Y024601D01*
X034031Y024559D01*
X033944Y024493D01*
X033878Y024406D01*
X033836Y024305D01*
X033822Y024197D01*
X033836Y024089D01*
X033878Y023988D01*
X033944Y023901D01*
X034031Y023834D01*
X034132Y023793D01*
X03424Y023778D01*
X034319D01*
X034427Y023793D01*
X034528Y023834D01*
X034615Y023901D01*
X034681Y023988D01*
X034723Y024089D01*
X034737Y024197D01*
X034723Y024305D01*
X034681Y024406D01*
X034615Y024493D01*
X034528Y024559D01*
X034427Y024601D01*
X034319Y024615D01*
D02*
G37*
G36*
X032319D02*
X03224D01*
X032132Y024601D01*
X032031Y024559D01*
X031944Y024493D01*
X031878Y024406D01*
X031836Y024305D01*
X031822Y024197D01*
X031836Y024089D01*
X031878Y023988D01*
X031944Y023901D01*
X032031Y023834D01*
X032132Y023793D01*
X03224Y023778D01*
X032319D01*
X032427Y023793D01*
X032528Y023834D01*
X032615Y023901D01*
X032681Y023988D01*
X032723Y024089D01*
X032737Y024197D01*
X032723Y024305D01*
X032681Y024406D01*
X032615Y024493D01*
X032528Y024559D01*
X032427Y024601D01*
X032319Y024615D01*
D02*
G37*
G36*
X031319D02*
X03124D01*
X031132Y024601D01*
X031031Y024559D01*
X030944Y024493D01*
X030878Y024406D01*
X030836Y024305D01*
X030822Y024197D01*
X030836Y024089D01*
X030878Y023988D01*
X030944Y023901D01*
X031031Y023834D01*
X031132Y023793D01*
X03124Y023778D01*
X031319D01*
X031427Y023793D01*
X031528Y023834D01*
X031615Y023901D01*
X031681Y023988D01*
X031723Y024089D01*
X031737Y024197D01*
X031723Y024305D01*
X031681Y024406D01*
X031615Y024493D01*
X031528Y024559D01*
X031427Y024601D01*
X031319Y024615D01*
D02*
G37*
G36*
X034319Y023615D02*
X03424D01*
X034132Y023601D01*
X034031Y023559D01*
X033944Y023493D01*
X033878Y023406D01*
X033836Y023305D01*
X033822Y023197D01*
X033836Y023089D01*
X033878Y022988D01*
X033944Y022901D01*
X034031Y022834D01*
X034132Y022793D01*
X03424Y022778D01*
X034319D01*
X034427Y022793D01*
X034528Y022834D01*
X034615Y022901D01*
X034681Y022988D01*
X034723Y023089D01*
X034737Y023197D01*
X034723Y023305D01*
X034681Y023406D01*
X034615Y023493D01*
X034528Y023559D01*
X034427Y023601D01*
X034319Y023615D01*
D02*
G37*
G36*
X032319D02*
X03224D01*
X032132Y023601D01*
X032031Y023559D01*
X031944Y023493D01*
X031878Y023406D01*
X031836Y023305D01*
X031822Y023197D01*
X031836Y023089D01*
X031878Y022988D01*
X031944Y022901D01*
X032031Y022834D01*
X032132Y022793D01*
X03224Y022778D01*
X032319D01*
X032427Y022793D01*
X032528Y022834D01*
X032615Y022901D01*
X032681Y022988D01*
X032723Y023089D01*
X032737Y023197D01*
X032723Y023305D01*
X032681Y023406D01*
X032615Y023493D01*
X032528Y023559D01*
X032427Y023601D01*
X032319Y023615D01*
D02*
G37*
G36*
X031319D02*
X03124D01*
X031132Y023601D01*
X031031Y023559D01*
X030944Y023493D01*
X030878Y023406D01*
X030836Y023305D01*
X030822Y023197D01*
X030836Y023089D01*
X030878Y022988D01*
X030944Y022901D01*
X031031Y022834D01*
X031132Y022793D01*
X03124Y022778D01*
X031319D01*
X031427Y022793D01*
X031528Y022834D01*
X031615Y022901D01*
X031681Y022988D01*
X031723Y023089D01*
X031737Y023197D01*
X031723Y023305D01*
X031681Y023406D01*
X031615Y023493D01*
X031528Y023559D01*
X031427Y023601D01*
X031319Y023615D01*
D02*
G37*
G36*
X034319Y022615D02*
X03424D01*
X034132Y022601D01*
X034031Y022559D01*
X033944Y022493D01*
X033878Y022406D01*
X033836Y022305D01*
X033822Y022197D01*
X033836Y022089D01*
X033878Y021988D01*
X033944Y021901D01*
X034031Y021834D01*
X034132Y021793D01*
X03424Y021778D01*
X034319D01*
X034427Y021793D01*
X034528Y021834D01*
X034615Y021901D01*
X034681Y021988D01*
X034723Y022089D01*
X034737Y022197D01*
X034723Y022305D01*
X034681Y022406D01*
X034615Y022493D01*
X034528Y022559D01*
X034427Y022601D01*
X034319Y022615D01*
D02*
G37*
G36*
X032319D02*
X03224D01*
X032132Y022601D01*
X032031Y022559D01*
X031944Y022493D01*
X031878Y022406D01*
X031836Y022305D01*
X031822Y022197D01*
X031836Y022089D01*
X031878Y021988D01*
X031944Y021901D01*
X032031Y021834D01*
X032132Y021793D01*
X03224Y021778D01*
X032319D01*
X032427Y021793D01*
X032528Y021834D01*
X032615Y021901D01*
X032681Y021988D01*
X032723Y022089D01*
X032737Y022197D01*
X032723Y022305D01*
X032681Y022406D01*
X032615Y022493D01*
X032528Y022559D01*
X032427Y022601D01*
X032319Y022615D01*
D02*
G37*
G36*
X031319D02*
X03124D01*
X031132Y022601D01*
X031031Y022559D01*
X030944Y022493D01*
X030878Y022406D01*
X030836Y022305D01*
X030822Y022197D01*
X030836Y022089D01*
X030878Y021988D01*
X030944Y021901D01*
X031031Y021834D01*
X031132Y021793D01*
X03124Y021778D01*
X031319D01*
X031427Y021793D01*
X031528Y021834D01*
X031615Y021901D01*
X031681Y021988D01*
X031723Y022089D01*
X031737Y022197D01*
X031723Y022305D01*
X031681Y022406D01*
X031615Y022493D01*
X031528Y022559D01*
X031427Y022601D01*
X031319Y022615D01*
D02*
G37*
G36*
X034319Y021615D02*
X03424D01*
X034132Y021601D01*
X034031Y021559D01*
X033944Y021493D01*
X033878Y021406D01*
X033836Y021305D01*
X033822Y021197D01*
X033836Y021089D01*
X033878Y020988D01*
X033944Y020901D01*
X034031Y020834D01*
X034132Y020793D01*
X03424Y020778D01*
X034319D01*
X034427Y020793D01*
X034528Y020834D01*
X034615Y020901D01*
X034681Y020988D01*
X034723Y021089D01*
X034737Y021197D01*
X034723Y021305D01*
X034681Y021406D01*
X034615Y021493D01*
X034528Y021559D01*
X034427Y021601D01*
X034319Y021615D01*
D02*
G37*
G36*
X032319D02*
X03224D01*
X032132Y021601D01*
X032031Y021559D01*
X031944Y021493D01*
X031878Y021406D01*
X031836Y021305D01*
X031822Y021197D01*
X031836Y021089D01*
X031878Y020988D01*
X031944Y020901D01*
X032031Y020834D01*
X032132Y020793D01*
X03224Y020778D01*
X032319D01*
X032427Y020793D01*
X032528Y020834D01*
X032615Y020901D01*
X032681Y020988D01*
X032723Y021089D01*
X032737Y021197D01*
X032723Y021305D01*
X032681Y021406D01*
X032615Y021493D01*
X032528Y021559D01*
X032427Y021601D01*
X032319Y021615D01*
D02*
G37*
G36*
X031319D02*
X03124D01*
X031132Y021601D01*
X031031Y021559D01*
X030944Y021493D01*
X030878Y021406D01*
X030836Y021305D01*
X030822Y021197D01*
X030836Y021089D01*
X030878Y020988D01*
X030944Y020901D01*
X031031Y020834D01*
X031132Y020793D01*
X03124Y020778D01*
X031319D01*
X031427Y020793D01*
X031528Y020834D01*
X031615Y020901D01*
X031681Y020988D01*
X031723Y021089D01*
X031737Y021197D01*
X031723Y021305D01*
X031681Y021406D01*
X031615Y021493D01*
X031528Y021559D01*
X031427Y021601D01*
X031319Y021615D01*
D02*
G37*
G36*
X056319Y039615D02*
X05624D01*
X056132Y039601D01*
X056031Y039559D01*
X055944Y039493D01*
X055878Y039406D01*
X055836Y039305D01*
X055822Y039197D01*
X055836Y039089D01*
X055878Y038988D01*
X055944Y038901D01*
X056031Y038834D01*
X056132Y038793D01*
X05624Y038778D01*
X056319D01*
X056427Y038793D01*
X056528Y038834D01*
X056615Y038901D01*
X056681Y038988D01*
X056723Y039089D01*
X056737Y039197D01*
X056723Y039305D01*
X056681Y039406D01*
X056615Y039493D01*
X056528Y039559D01*
X056427Y039601D01*
X056319Y039615D01*
D02*
G37*
G36*
Y038615D02*
X05624D01*
X056132Y038601D01*
X056031Y038559D01*
X055944Y038493D01*
X055878Y038406D01*
X055836Y038305D01*
X055822Y038197D01*
X055836Y038089D01*
X055878Y037988D01*
X055944Y037901D01*
X056031Y037834D01*
X056132Y037793D01*
X05624Y037778D01*
X056319D01*
X056427Y037793D01*
X056528Y037834D01*
X056615Y037901D01*
X056681Y037988D01*
X056723Y038089D01*
X056737Y038197D01*
X056723Y038305D01*
X056681Y038406D01*
X056615Y038493D01*
X056528Y038559D01*
X056427Y038601D01*
X056319Y038615D01*
D02*
G37*
G36*
Y037615D02*
X05624D01*
X056132Y037601D01*
X056031Y037559D01*
X055944Y037493D01*
X055878Y037406D01*
X055836Y037305D01*
X055822Y037197D01*
X055836Y037089D01*
X055878Y036988D01*
X055944Y036901D01*
X056031Y036834D01*
X056132Y036793D01*
X05624Y036778D01*
X056319D01*
X056427Y036793D01*
X056528Y036834D01*
X056615Y036901D01*
X056681Y036988D01*
X056723Y037089D01*
X056737Y037197D01*
X056723Y037305D01*
X056681Y037406D01*
X056615Y037493D01*
X056528Y037559D01*
X056427Y037601D01*
X056319Y037615D01*
D02*
G37*
G36*
Y036615D02*
X05624D01*
X056132Y036601D01*
X056031Y036559D01*
X055944Y036493D01*
X055878Y036406D01*
X055836Y036305D01*
X055822Y036197D01*
X055836Y036089D01*
X055878Y035988D01*
X055944Y035901D01*
X056031Y035834D01*
X056132Y035793D01*
X05624Y035778D01*
X056319D01*
X056427Y035793D01*
X056528Y035834D01*
X056615Y035901D01*
X056681Y035988D01*
X056723Y036089D01*
X056737Y036197D01*
X056723Y036305D01*
X056681Y036406D01*
X056615Y036493D01*
X056528Y036559D01*
X056427Y036601D01*
X056319Y036615D01*
D02*
G37*
G36*
X05533Y035614D02*
Y035247D01*
X055731D01*
X055723Y035305D01*
X055681Y035406D01*
X055615Y035493D01*
X055528Y035559D01*
X055427Y035601D01*
X05533Y035614D01*
D02*
G37*
G36*
X055731Y035147D02*
X05533D01*
Y03478D01*
X055427Y034793D01*
X055528Y034834D01*
X055615Y034901D01*
X055681Y034988D01*
X055723Y035089D01*
X055731Y035147D01*
D02*
G37*
G36*
X056319Y035615D02*
X05624D01*
X056132Y035601D01*
X056031Y035559D01*
X055944Y035493D01*
X055878Y035406D01*
X055836Y035305D01*
X055822Y035197D01*
X055836Y035089D01*
X055878Y034988D01*
X055944Y034901D01*
X056031Y034834D01*
X056132Y034793D01*
X05624Y034778D01*
X056319D01*
X056427Y034793D01*
X056528Y034834D01*
X056615Y034901D01*
X056681Y034988D01*
X056723Y035089D01*
X056737Y035197D01*
X056723Y035305D01*
X056681Y035406D01*
X056615Y035493D01*
X056528Y035559D01*
X056427Y035601D01*
X056319Y035615D01*
D02*
G37*
G36*
Y034615D02*
X05624D01*
X056132Y034601D01*
X056031Y034559D01*
X055944Y034493D01*
X055878Y034406D01*
X055836Y034305D01*
X055822Y034197D01*
X055836Y034089D01*
X055878Y033988D01*
X055944Y033901D01*
X056031Y033834D01*
X056132Y033793D01*
X05624Y033778D01*
X056319D01*
X056427Y033793D01*
X056528Y033834D01*
X056615Y033901D01*
X056681Y033988D01*
X056723Y034089D01*
X056737Y034197D01*
X056723Y034305D01*
X056681Y034406D01*
X056615Y034493D01*
X056528Y034559D01*
X056427Y034601D01*
X056319Y034615D01*
D02*
G37*
G36*
Y033615D02*
X05624D01*
X056132Y033601D01*
X056031Y033559D01*
X055944Y033493D01*
X055878Y033406D01*
X055836Y033305D01*
X055822Y033197D01*
X055836Y033089D01*
X055878Y032988D01*
X055944Y032901D01*
X056031Y032834D01*
X056132Y032793D01*
X05624Y032778D01*
X056319D01*
X056427Y032793D01*
X056528Y032834D01*
X056615Y032901D01*
X056681Y032988D01*
X056723Y033089D01*
X056737Y033197D01*
X056723Y033305D01*
X056681Y033406D01*
X056615Y033493D01*
X056528Y033559D01*
X056427Y033601D01*
X056319Y033615D01*
D02*
G37*
G36*
Y032615D02*
X05624D01*
X056132Y032601D01*
X056031Y032559D01*
X055944Y032493D01*
X055878Y032406D01*
X055836Y032305D01*
X055822Y032197D01*
X055836Y032089D01*
X055878Y031988D01*
X055944Y031901D01*
X056031Y031834D01*
X056132Y031793D01*
X05624Y031778D01*
X056319D01*
X056427Y031793D01*
X056528Y031834D01*
X056615Y031901D01*
X056681Y031988D01*
X056723Y032089D01*
X056737Y032197D01*
X056723Y032305D01*
X056681Y032406D01*
X056615Y032493D01*
X056528Y032559D01*
X056427Y032601D01*
X056319Y032615D01*
D02*
G37*
G36*
Y031615D02*
X05624D01*
X056132Y031601D01*
X056031Y031559D01*
X055944Y031493D01*
X055878Y031406D01*
X055836Y031305D01*
X055822Y031197D01*
X055836Y031089D01*
X055878Y030988D01*
X055944Y030901D01*
X056031Y030834D01*
X056132Y030793D01*
X05624Y030778D01*
X056319D01*
X056427Y030793D01*
X056528Y030834D01*
X056615Y030901D01*
X056681Y030988D01*
X056723Y031089D01*
X056737Y031197D01*
X056723Y031305D01*
X056681Y031406D01*
X056615Y031493D01*
X056528Y031559D01*
X056427Y031601D01*
X056319Y031615D01*
D02*
G37*
G36*
X05633Y030614D02*
Y030247D01*
X056731D01*
X056723Y030305D01*
X056681Y030406D01*
X056615Y030493D01*
X056528Y030559D01*
X056427Y030601D01*
X05633Y030614D01*
D02*
G37*
G36*
X05623D02*
X056132Y030601D01*
X056031Y030559D01*
X055944Y030493D01*
X055878Y030406D01*
X055836Y030305D01*
X055828Y030247D01*
X05623D01*
Y030614D01*
D02*
G37*
G36*
X056731Y030147D02*
X05633D01*
Y02978D01*
X056427Y029793D01*
X056528Y029834D01*
X056615Y029901D01*
X056681Y029988D01*
X056723Y030089D01*
X056731Y030147D01*
D02*
G37*
G36*
X05623D02*
X055828D01*
X055836Y030089D01*
X055878Y029988D01*
X055944Y029901D01*
X056031Y029834D01*
X056132Y029793D01*
X05623Y02978D01*
Y030147D01*
D02*
G37*
G36*
X056319Y029615D02*
X05624D01*
X056132Y029601D01*
X056031Y029559D01*
X055944Y029493D01*
X055878Y029406D01*
X055836Y029305D01*
X055822Y029197D01*
X055836Y029089D01*
X055878Y028988D01*
X055944Y028901D01*
X056031Y028834D01*
X056132Y028793D01*
X05624Y028778D01*
X056319D01*
X056427Y028793D01*
X056528Y028834D01*
X056615Y028901D01*
X056681Y028988D01*
X056723Y029089D01*
X056737Y029197D01*
X056723Y029305D01*
X056681Y029406D01*
X056615Y029493D01*
X056528Y029559D01*
X056427Y029601D01*
X056319Y029615D01*
D02*
G37*
G36*
Y028615D02*
X05624D01*
X056132Y028601D01*
X056031Y028559D01*
X055944Y028493D01*
X055878Y028406D01*
X055836Y028305D01*
X055822Y028197D01*
X055836Y028089D01*
X055878Y027988D01*
X055944Y027901D01*
X056031Y027834D01*
X056132Y027793D01*
X05624Y027778D01*
X056319D01*
X056427Y027793D01*
X056528Y027834D01*
X056615Y027901D01*
X056681Y027988D01*
X056723Y028089D01*
X056737Y028197D01*
X056723Y028305D01*
X056681Y028406D01*
X056615Y028493D01*
X056528Y028559D01*
X056427Y028601D01*
X056319Y028615D01*
D02*
G37*
G36*
Y027615D02*
X05624D01*
X056132Y027601D01*
X056031Y027559D01*
X055944Y027493D01*
X055878Y027406D01*
X055836Y027305D01*
X055822Y027197D01*
X055836Y027089D01*
X055878Y026988D01*
X055944Y026901D01*
X056031Y026834D01*
X056132Y026793D01*
X05624Y026778D01*
X056319D01*
X056427Y026793D01*
X056528Y026834D01*
X056615Y026901D01*
X056681Y026988D01*
X056723Y027089D01*
X056737Y027197D01*
X056723Y027305D01*
X056681Y027406D01*
X056615Y027493D01*
X056528Y027559D01*
X056427Y027601D01*
X056319Y027615D01*
D02*
G37*
G36*
Y026615D02*
X05624D01*
X056132Y026601D01*
X056031Y026559D01*
X055944Y026493D01*
X055878Y026406D01*
X055836Y026305D01*
X055822Y026197D01*
X055836Y026089D01*
X055878Y025988D01*
X055944Y025901D01*
X056031Y025834D01*
X056132Y025793D01*
X05624Y025778D01*
X056319D01*
X056427Y025793D01*
X056528Y025834D01*
X056615Y025901D01*
X056681Y025988D01*
X056723Y026089D01*
X056737Y026197D01*
X056723Y026305D01*
X056681Y026406D01*
X056615Y026493D01*
X056528Y026559D01*
X056427Y026601D01*
X056319Y026615D01*
D02*
G37*
G36*
Y025615D02*
X05624D01*
X056132Y025601D01*
X056031Y025559D01*
X055944Y025493D01*
X055878Y025406D01*
X055836Y025305D01*
X055822Y025197D01*
X055836Y025089D01*
X055878Y024988D01*
X055944Y024901D01*
X056031Y024834D01*
X056132Y024793D01*
X05624Y024778D01*
X056319D01*
X056427Y024793D01*
X056528Y024834D01*
X056615Y024901D01*
X056681Y024988D01*
X056723Y025089D01*
X056737Y025197D01*
X056723Y025305D01*
X056681Y025406D01*
X056615Y025493D01*
X056528Y025559D01*
X056427Y025601D01*
X056319Y025615D01*
D02*
G37*
G36*
Y024615D02*
X05624D01*
X056132Y024601D01*
X056031Y024559D01*
X055944Y024493D01*
X055878Y024406D01*
X055836Y024305D01*
X055822Y024197D01*
X055836Y024089D01*
X055878Y023988D01*
X055944Y023901D01*
X056031Y023834D01*
X056132Y023793D01*
X05624Y023778D01*
X056319D01*
X056427Y023793D01*
X056528Y023834D01*
X056615Y023901D01*
X056681Y023988D01*
X056723Y024089D01*
X056737Y024197D01*
X056723Y024305D01*
X056681Y024406D01*
X056615Y024493D01*
X056528Y024559D01*
X056427Y024601D01*
X056319Y024615D01*
D02*
G37*
G36*
Y023615D02*
X05624D01*
X056132Y023601D01*
X056031Y023559D01*
X055944Y023493D01*
X055878Y023406D01*
X055836Y023305D01*
X055822Y023197D01*
X055836Y023089D01*
X055878Y022988D01*
X055944Y022901D01*
X056031Y022834D01*
X056132Y022793D01*
X05624Y022778D01*
X056319D01*
X056427Y022793D01*
X056528Y022834D01*
X056615Y022901D01*
X056681Y022988D01*
X056723Y023089D01*
X056737Y023197D01*
X056723Y023305D01*
X056681Y023406D01*
X056615Y023493D01*
X056528Y023559D01*
X056427Y023601D01*
X056319Y023615D01*
D02*
G37*
G36*
Y022615D02*
X05624D01*
X056132Y022601D01*
X056031Y022559D01*
X055944Y022493D01*
X055878Y022406D01*
X055836Y022305D01*
X055822Y022197D01*
X055836Y022089D01*
X055878Y021988D01*
X055944Y021901D01*
X056031Y021834D01*
X056132Y021793D01*
X05624Y021778D01*
X056319D01*
X056427Y021793D01*
X056528Y021834D01*
X056615Y021901D01*
X056681Y021988D01*
X056723Y022089D01*
X056737Y022197D01*
X056723Y022305D01*
X056681Y022406D01*
X056615Y022493D01*
X056528Y022559D01*
X056427Y022601D01*
X056319Y022615D01*
D02*
G37*
G36*
Y021615D02*
X05624D01*
X056132Y021601D01*
X056031Y021559D01*
X055944Y021493D01*
X055878Y021406D01*
X055836Y021305D01*
X055822Y021197D01*
X055836Y021089D01*
X055878Y020988D01*
X055944Y020901D01*
X056031Y020834D01*
X056132Y020793D01*
X05624Y020778D01*
X056319D01*
X056427Y020793D01*
X056528Y020834D01*
X056615Y020901D01*
X056681Y020988D01*
X056723Y021089D01*
X056737Y021197D01*
X056723Y021305D01*
X056681Y021406D01*
X056615Y021493D01*
X056528Y021559D01*
X056427Y021601D01*
X056319Y021615D01*
D02*
G37*
%LPD*%
D10*
X052461Y027067D02*
Y029035D01*
X052052Y026658D02*
X052461Y027067D01*
X04965Y031102D02*
X050098D01*
X049628Y031124D02*
X04965Y031102D01*
X049628Y031124D02*
Y035835D01*
X048228Y031835D02*
X049124D01*
X048228Y027264D02*
Y031835D01*
X046624Y027264D02*
X048228D01*
Y033835D02*
X049124D01*
X048228Y032305D02*
Y033835D01*
X047678Y034835D02*
X049124D01*
X047678Y027559D02*
Y034835D01*
X044124Y027559D02*
X047678D01*
X047352Y036835D02*
X049124D01*
X047352Y027854D02*
Y036835D01*
X043898Y027854D02*
X047352D01*
X030315Y037402D02*
X03061Y037697D01*
X030315Y026879D02*
Y037402D01*
Y026879D02*
X03052Y026673D01*
X043374Y040354D02*
Y041142D01*
X05328Y035531D02*
X053839D01*
X041634Y040354D02*
X043374D01*
X041634D02*
Y040846D01*
X046374Y041142D02*
X046472Y041043D01*
X046752D02*
X047047Y041339D01*
X046472Y041043D02*
X046752D01*
X047047Y041339D02*
X054232D01*
X045374Y041142D02*
X045525Y040991D01*
X045374D02*
X045525D01*
X045374Y040539D02*
Y040991D01*
Y040539D02*
X046693D01*
X047197Y041043D01*
X054035D01*
X036614Y041142D02*
X042374D01*
X041339Y025394D02*
X052583D01*
X052851Y025662D01*
X043374Y023622D02*
X046624D01*
X043374D02*
Y024047D01*
X042618Y024803D02*
X043374Y024047D01*
X040748Y024803D02*
X042618D01*
X043124Y022948D02*
Y023924D01*
X042933Y024114D02*
X043124Y023924D01*
X040157Y024114D02*
X042933D01*
X040059Y021565D02*
X044203D01*
X040059Y02126D02*
Y021565D01*
X036909Y02126D02*
X040059D01*
X044203Y021565D02*
X044624Y021986D01*
X052851Y025662D02*
X05391D01*
X036909Y040846D02*
X041634D01*
X036909Y035236D02*
Y040846D01*
X035236Y035236D02*
X036909D01*
X035433Y026327D02*
X038681D01*
X035433D02*
Y029197D01*
X037303Y032382D02*
Y034835D01*
Y032382D02*
X037402Y032283D01*
X037303Y034835D02*
X039624D01*
X035236Y031791D02*
Y035236D01*
X034941Y031858D02*
Y035506D01*
X036614D01*
X043898Y027264D02*
Y027854D01*
X042124Y027264D02*
X043898D01*
X042124Y026658D02*
Y027264D01*
X044124Y026658D02*
Y027559D01*
X039624Y023524D02*
X042124D01*
X039811Y025886D02*
X04311D01*
X046624Y022948D02*
Y023622D01*
X046725Y021036D02*
X048496D01*
X04626Y020571D02*
X046725Y021036D01*
X045696Y020571D02*
X04626D01*
X049066Y020466D02*
X054521D01*
X048496Y021036D02*
X049066Y020466D01*
X049206Y020866D02*
X050832D01*
X054521Y020466D02*
X054626Y020571D01*
X048615Y021457D02*
X049206Y020866D01*
X035433Y029197D02*
Y03087D01*
X034941Y023685D02*
Y030807D01*
Y023685D02*
X035299Y023327D01*
X034874Y031429D02*
X035433Y03087D01*
X034874Y031429D02*
X035236Y031791D01*
X03428Y031197D02*
X034941Y031858D01*
X036614Y035506D02*
Y041142D01*
X042124Y022948D02*
Y023524D01*
X046624Y026658D02*
Y027264D01*
X049124Y035835D02*
X049628D01*
X054035Y027067D02*
Y035335D01*
X053839Y035531D02*
X054035Y035335D01*
X05328Y035531D02*
Y035795D01*
X053476D01*
X053642Y026673D02*
X054035Y027067D01*
X052953Y026673D02*
X053642D01*
X052165Y025886D02*
X052953Y026673D01*
X045624Y025886D02*
X052165D01*
X047124Y026658D02*
X052052D01*
X054331Y040748D02*
X054331Y026083D01*
X05391Y025662D02*
X054331Y026083D01*
X054035Y041043D02*
X054331Y040748D01*
X043124Y0259D02*
Y026658D01*
X04311Y025886D02*
X045624D01*
X03937Y026327D02*
X039811Y025886D01*
X038681Y026327D02*
X03937D01*
X04311Y025886D02*
X043124Y0259D01*
X045624Y025886D02*
Y026658D01*
X047124Y021457D02*
Y022948D01*
Y021457D02*
X048615D01*
X054626Y02285D02*
X05528Y022197D01*
X054626Y02285D02*
Y040945D01*
X054232Y041339D02*
X054626Y040945D01*
X043829Y021949D02*
X044124Y022244D01*
X039459Y021949D02*
X043829D01*
X044124Y022244D02*
Y022948D01*
X044624Y021986D02*
Y022948D01*
X03622Y021949D02*
X036909Y02126D01*
X054626Y021543D02*
X05528Y022197D01*
X054626Y020571D02*
Y021543D01*
X032784Y037697D02*
X033169Y037312D01*
X03061Y037697D02*
X032784D01*
X03622Y021949D02*
Y023327D01*
X038681D01*
X035299D02*
X03622D01*
X034551Y031197D02*
X034941Y030807D01*
X03428Y031197D02*
X034551D01*
X038681Y021959D02*
X038691Y021949D01*
X038681Y021959D02*
Y023327D01*
X03228Y031197D02*
Y031693D01*
X033169D01*
Y035506D01*
X033465Y035801D01*
X036411D01*
Y039179D01*
X035531D02*
X036411D01*
X035531Y037195D02*
Y038411D01*
X033455Y036427D02*
X035531D01*
X033169Y036713D02*
X033455Y036427D01*
X033169Y036713D02*
Y037312D01*
X031764Y036713D02*
X03228Y036197D01*
X031004Y036713D02*
X031764D01*
X03061Y036319D02*
X031004Y036713D01*
X03052Y026673D02*
X031803D01*
X03228Y026197D01*
X03061Y030315D02*
Y036319D01*
Y030315D02*
X030728Y030197D01*
X03128D01*
X03228Y031197D02*
X03428D01*
X03228Y029197D02*
X03428D01*
D14*
X038691Y021949D02*
D03*
X039459D02*
D03*
D15*
X035531Y038411D02*
D03*
Y039179D02*
D03*
D16*
Y036427D02*
D03*
Y037195D02*
D03*
D30*
X05328Y038795D02*
D03*
Y037795D02*
D03*
Y036795D02*
D03*
Y035795D02*
D03*
Y034795D02*
D03*
Y033795D02*
D03*
Y032795D02*
D03*
Y031795D02*
D03*
Y030795D02*
D03*
Y029795D02*
D03*
X05628Y039197D02*
D03*
X05528Y038197D02*
D03*
X05628D02*
D03*
X05528Y037197D02*
D03*
X05628D02*
D03*
X05528Y036197D02*
D03*
X05628D02*
D03*
X05528Y035197D02*
D03*
X05628D02*
D03*
X05528Y034197D02*
D03*
X05628D02*
D03*
X05528Y033197D02*
D03*
X05628D02*
D03*
X05528Y032197D02*
D03*
X05628D02*
D03*
X05528Y031197D02*
D03*
X05628D02*
D03*
X05528Y030197D02*
D03*
X05628D02*
D03*
X05528Y029197D02*
D03*
X05628D02*
D03*
X05528Y028197D02*
D03*
X05628D02*
D03*
X05528Y027197D02*
D03*
X05628D02*
D03*
X05528Y026197D02*
D03*
X05628D02*
D03*
X05528Y025197D02*
D03*
X05628D02*
D03*
X05528Y024197D02*
D03*
X05628D02*
D03*
X05528Y023197D02*
D03*
X05628D02*
D03*
X05528Y022197D02*
D03*
X05628D02*
D03*
X05528Y021197D02*
D03*
X05628D02*
D03*
X03228Y039197D02*
D03*
X03128Y038197D02*
D03*
X03228D02*
D03*
X03128Y037197D02*
D03*
X03228D02*
D03*
X03128Y036197D02*
D03*
X03228D02*
D03*
X03128Y035197D02*
D03*
X03228D02*
D03*
X03128Y034197D02*
D03*
X03228D02*
D03*
X03128Y033197D02*
D03*
X03228D02*
D03*
X03128Y032197D02*
D03*
X03228D02*
D03*
X03128Y031197D02*
D03*
X03228D02*
D03*
X03128Y030197D02*
D03*
X03228D02*
D03*
X03128Y029197D02*
D03*
X03228D02*
D03*
X03128Y028197D02*
D03*
X03228D02*
D03*
X03128Y027197D02*
D03*
X03228D02*
D03*
X03128Y026197D02*
D03*
X03228D02*
D03*
X03128Y025197D02*
D03*
X03228D02*
D03*
X03128Y024197D02*
D03*
X03228D02*
D03*
X03128Y023197D02*
D03*
X03228D02*
D03*
X03128Y022197D02*
D03*
X03228D02*
D03*
X03128Y021197D02*
D03*
X03228D02*
D03*
X03428Y025197D02*
D03*
Y024197D02*
D03*
Y023197D02*
D03*
Y022197D02*
D03*
Y021197D02*
D03*
Y028197D02*
D03*
Y029197D02*
D03*
Y030197D02*
D03*
Y031197D02*
D03*
Y032197D02*
D03*
Y033197D02*
D03*
Y034197D02*
D03*
X05328Y028197D02*
D03*
Y027197D02*
D03*
Y026197D02*
D03*
Y025197D02*
D03*
Y024197D02*
D03*
Y023197D02*
D03*
Y022197D02*
D03*
D31*
X05528Y039197D02*
D03*
X03128D02*
D03*
X03428Y026197D02*
D03*
Y035197D02*
D03*
X05328Y021197D02*
D03*
D32*
X042374Y041043D02*
D03*
D33*
X043374D02*
D03*
X044374D02*
D03*
X045374D02*
D03*
X046374D02*
D03*
D34*
X039624Y038835D02*
D03*
D35*
Y037835D02*
D03*
Y036835D02*
D03*
Y035835D02*
D03*
Y034835D02*
D03*
Y033835D02*
D03*
Y032835D02*
D03*
Y031835D02*
D03*
X049124D02*
D03*
Y032835D02*
D03*
Y033835D02*
D03*
Y034835D02*
D03*
Y035835D02*
D03*
Y036835D02*
D03*
Y037835D02*
D03*
Y038835D02*
D03*
D36*
X047124Y026658D02*
D03*
X046624D02*
D03*
X046124D02*
D03*
X045624D02*
D03*
X045124D02*
D03*
X044624D02*
D03*
X044124D02*
D03*
X043624D02*
D03*
X043124D02*
D03*
X042624D02*
D03*
X042124D02*
D03*
X041624D02*
D03*
Y022948D02*
D03*
X042124D02*
D03*
X042624D02*
D03*
X043124D02*
D03*
X043624D02*
D03*
X044124D02*
D03*
X044624D02*
D03*
X045124D02*
D03*
X045624D02*
D03*
X046124D02*
D03*
X046624D02*
D03*
X047124D02*
D03*
D37*
X038681Y026327D02*
D03*
Y023327D02*
D03*
D38*
X052461Y029035D02*
D03*
X050098Y031102D02*
D03*
X048228Y032305D02*
D03*
X037402Y032283D02*
D03*
X039624Y023524D02*
D03*
X040748Y024803D02*
D03*
X041339Y025394D02*
D03*
X040157Y024114D02*
D03*
X050832Y020866D02*
D03*
X045696Y020571D02*
D03*
X035433Y029197D02*
D03*
M02*
