G04*
G04 #@! TF.GenerationSoftware,Altium Limited,Altium Designer,18.1.6 (161)*
G04*
G04 Layer_Physical_Order=2*
G04 Layer_Color=16711680*
%FSTAX24Y24*%
%MOIN*%
G70*
G01*
G75*
%ADD10C,0.0100*%
%ADD30O,0.0709X0.0630*%
%ADD31R,0.0709X0.0630*%
G04:AMPARAMS|DCode=32|XSize=63mil|YSize=70.9mil|CornerRadius=15.7mil|HoleSize=0mil|Usage=FLASHONLY|Rotation=0.000|XOffset=0mil|YOffset=0mil|HoleType=Round|Shape=RoundedRectangle|*
%AMROUNDEDRECTD32*
21,1,0.0630,0.0394,0,0,0.0*
21,1,0.0315,0.0709,0,0,0.0*
1,1,0.0315,0.0157,-0.0197*
1,1,0.0315,-0.0157,-0.0197*
1,1,0.0315,-0.0157,0.0197*
1,1,0.0315,0.0157,0.0197*
%
%ADD32ROUNDEDRECTD32*%
%ADD33O,0.0630X0.0709*%
G04:AMPARAMS|DCode=34|XSize=63mil|YSize=70.9mil|CornerRadius=15.7mil|HoleSize=0mil|Usage=FLASHONLY|Rotation=270.000|XOffset=0mil|YOffset=0mil|HoleType=Round|Shape=RoundedRectangle|*
%AMROUNDEDRECTD34*
21,1,0.0630,0.0394,0,0,270.0*
21,1,0.0315,0.0709,0,0,270.0*
1,1,0.0315,-0.0197,-0.0157*
1,1,0.0315,-0.0197,0.0157*
1,1,0.0315,0.0197,0.0157*
1,1,0.0315,0.0197,-0.0157*
%
%ADD34ROUNDEDRECTD34*%
%ADD35O,0.0709X0.0630*%
%ADD36R,0.0256X0.0758*%
%ADD37C,0.0650*%
%ADD38C,0.0500*%
G36*
X057381Y02075D02*
X057383Y02074D01*
X057364Y020601D01*
X057332Y020523D01*
X057036Y020227D01*
X056958Y020195D01*
X056819Y020176D01*
X056809Y020178D01*
X049079D01*
X049079Y020178D01*
X04901Y020165D01*
X048953Y020126D01*
X048953Y020126D01*
X048217Y019391D01*
X047513D01*
X047506Y019441D01*
X047583Y019464D01*
X04772Y019538D01*
X04784Y019636D01*
X047939Y019756D01*
X048012Y019893D01*
X048057Y020042D01*
X048072Y020197D01*
X048057Y020352D01*
X048012Y0205D01*
X047939Y020637D01*
X04784Y020757D01*
X04772Y020856D01*
X047583Y020929D01*
X047434Y020974D01*
X04728Y02099D01*
X047125Y020974D01*
X046976Y020929D01*
X046839Y020856D01*
X046719Y020757D01*
X04662Y020637D01*
X046547Y0205D01*
X046502Y020352D01*
X046487Y020197D01*
X046502Y020042D01*
X046547Y019893D01*
X04662Y019756D01*
X046719Y019636D01*
X046839Y019538D01*
X046976Y019464D01*
X047053Y019441D01*
X047046Y019391D01*
X035373D01*
X034638Y020126D01*
X03458Y020165D01*
X034512Y020178D01*
X03075D01*
X03074Y020176D01*
X030601Y020195D01*
X030523Y020227D01*
X030227Y020523D01*
X030195Y020601D01*
X030176Y02074D01*
X030178Y02075D01*
Y041475D01*
X033931D01*
X033938Y041466D01*
X033926Y041402D01*
X033839Y041356D01*
X033719Y041257D01*
X03362Y041137D01*
X033547Y041D01*
X033502Y040852D01*
X033487Y040697D01*
X033502Y040542D01*
X033547Y040393D01*
X03362Y040256D01*
X033719Y040136D01*
X033839Y040038D01*
X033976Y039964D01*
X034125Y039919D01*
X03428Y039904D01*
X034434Y039919D01*
X034583Y039964D01*
X03472Y040038D01*
X03484Y040136D01*
X034939Y040256D01*
X035012Y040393D01*
X035057Y040542D01*
X035072Y040697D01*
X035057Y040852D01*
X035012Y041D01*
X034939Y041137D01*
X03484Y041257D01*
X03472Y041356D01*
X034633Y041402D01*
X034621Y041466D01*
X034628Y041475D01*
X042018D01*
X042035Y041425D01*
X042033Y041424D01*
X041992Y04137D01*
X041966Y041307D01*
X041957Y04124D01*
Y040846D01*
X041966Y040779D01*
X041992Y040717D01*
X042033Y040663D01*
X042087Y040622D01*
X042149Y040596D01*
X042217Y040587D01*
X042531D01*
X042599Y040596D01*
X042661Y040622D01*
X042715Y040663D01*
X042756Y040717D01*
X042782Y040779D01*
X042791Y040846D01*
Y04124D01*
X042782Y041307D01*
X042756Y04137D01*
X042715Y041424D01*
X042713Y041425D01*
X04273Y041475D01*
X043122D01*
X043139Y041425D01*
X043078Y041379D01*
X043012Y041292D01*
X04297Y041191D01*
X042957Y041093D01*
X043791D01*
X043778Y041191D01*
X043736Y041292D01*
X04367Y041379D01*
X043609Y041425D01*
X043626Y041475D01*
X044122D01*
X044139Y041425D01*
X044078Y041379D01*
X044012Y041292D01*
X04397Y041191D01*
X043955Y041083D01*
Y041004D01*
X04397Y040896D01*
X044012Y040795D01*
X044078Y040708D01*
X044165Y040641D01*
X044221Y040618D01*
Y040354D01*
X044233Y040296D01*
X044266Y040246D01*
X044315Y040213D01*
X044374Y040201D01*
X046902D01*
X04696Y040213D01*
X04701Y040246D01*
X047359Y040595D01*
X051413D01*
X051816Y040193D01*
Y037975D01*
X051814Y037974D01*
X051766Y037953D01*
X051732Y037976D01*
X051673Y037988D01*
X049549D01*
X049526Y038044D01*
X049459Y038131D01*
X049373Y038197D01*
X049272Y038239D01*
X049163Y038253D01*
X049085D01*
X048976Y038239D01*
X048875Y038197D01*
X048789Y038131D01*
X048722Y038044D01*
X04868Y037943D01*
X048666Y037835D01*
X04868Y037726D01*
X048722Y037625D01*
X048789Y037539D01*
X048831Y037506D01*
X048814Y037456D01*
X048578D01*
Y038682D01*
X048699D01*
X048722Y038625D01*
X048789Y038539D01*
X048875Y038472D01*
X048976Y03843D01*
X049085Y038416D01*
X049163D01*
X049272Y03843D01*
X049373Y038472D01*
X049459Y038539D01*
X049526Y038625D01*
X049568Y038726D01*
X049582Y038835D01*
X049568Y038943D01*
X049526Y039044D01*
X049459Y039131D01*
X049373Y039197D01*
X049272Y039239D01*
X049163Y039253D01*
X049085D01*
X048976Y039239D01*
X048875Y039197D01*
X048789Y039131D01*
X048722Y039044D01*
X048699Y038988D01*
X048425D01*
X048367Y038976D01*
X048317Y038943D01*
X048284Y038893D01*
X048272Y038835D01*
Y037303D01*
X048284Y037245D01*
X048317Y037195D01*
X048367Y037162D01*
X048425Y03715D01*
X048741D01*
X048765Y0371D01*
X048722Y037044D01*
X04868Y036943D01*
X048666Y036835D01*
X04868Y036726D01*
X048722Y036625D01*
X048789Y036539D01*
X048875Y036472D01*
X048976Y03643D01*
X049085Y036416D01*
X049163D01*
X049272Y03643D01*
X049373Y036472D01*
X049459Y036539D01*
X049526Y036625D01*
X049568Y036726D01*
X049582Y036835D01*
X049568Y036943D01*
X049526Y037044D01*
X049483Y0371D01*
X049507Y03715D01*
X051225D01*
Y032975D01*
X051224Y032974D01*
X051175Y032953D01*
X051141Y032976D01*
X051083Y032988D01*
X049549D01*
X049526Y033044D01*
X049459Y033131D01*
X049373Y033197D01*
X049272Y033239D01*
X049163Y033253D01*
X049085D01*
X048976Y033239D01*
X048875Y033197D01*
X048789Y033131D01*
X048722Y033044D01*
X04868Y032943D01*
X048666Y032835D01*
X04868Y032726D01*
X048722Y032625D01*
X048763Y032573D01*
X048738Y032523D01*
X048503D01*
X048478Y032555D01*
X048405Y032611D01*
X04832Y032646D01*
X048228Y032658D01*
X048137Y032646D01*
X048052Y032611D01*
X047979Y032555D01*
X047923Y032482D01*
X047887Y032397D01*
X047875Y032305D01*
X047887Y032214D01*
X047923Y032129D01*
X047979Y032056D01*
X048052Y031999D01*
X048137Y031964D01*
X048228Y031952D01*
X04832Y031964D01*
X048405Y031999D01*
X048478Y032056D01*
X048534Y032129D01*
X048569Y032214D01*
X04857Y032217D01*
X048819D01*
X048836Y032167D01*
X048789Y032131D01*
X048722Y032044D01*
X04868Y031943D01*
X048666Y031835D01*
X04868Y031726D01*
X048722Y031625D01*
X048789Y031539D01*
X048875Y031472D01*
X048976Y03143D01*
X049085Y031416D01*
X049163D01*
X049272Y03143D01*
X049373Y031472D01*
X049459Y031539D01*
X049526Y031625D01*
X049568Y031726D01*
X049582Y031835D01*
X049568Y031943D01*
X049526Y032044D01*
X049459Y032131D01*
X049412Y032167D01*
X049429Y032217D01*
X050634D01*
Y031243D01*
X050633Y031242D01*
X050584Y031221D01*
X050551Y031244D01*
X050492Y031255D01*
X050414D01*
X050404Y031279D01*
X050348Y031352D01*
X050275Y031408D01*
X05019Y031443D01*
X050098Y031455D01*
X050007Y031443D01*
X049922Y031408D01*
X049849Y031352D01*
X049793Y031279D01*
X049757Y031194D01*
X049745Y031102D01*
X049757Y031011D01*
X049793Y030926D01*
X049849Y030853D01*
X049922Y030797D01*
X050007Y030761D01*
X050098Y030749D01*
X05019Y030761D01*
X050275Y030797D01*
X050294Y030812D01*
X050339Y030789D01*
Y0228D01*
X050035Y022495D01*
X047352D01*
Y023427D01*
X046896D01*
Y023427D01*
X046852D01*
Y023427D01*
X046396D01*
Y023427D01*
X046352D01*
Y023427D01*
X045896D01*
Y023427D01*
X045852D01*
Y023427D01*
X045396D01*
Y023427D01*
X045352D01*
Y023427D01*
X044902D01*
X044896Y023427D01*
X044852D01*
X044846Y023427D01*
X044402D01*
X044396Y023427D01*
X044352D01*
X044346Y023427D01*
X043902D01*
X043896Y023427D01*
X043852D01*
X043846Y023427D01*
X043402D01*
X043396Y023427D01*
X043352D01*
X043346Y023427D01*
X042902D01*
X042896Y023427D01*
X042852D01*
X042846Y023427D01*
X042402D01*
X042396Y023427D01*
X042352D01*
X042346Y023427D01*
X041902D01*
X041896Y023427D01*
X041852D01*
X041846Y023427D01*
X041492D01*
Y025078D01*
X041515Y025088D01*
X041588Y025144D01*
X041644Y025217D01*
X04168Y025302D01*
X041692Y025394D01*
X04168Y025485D01*
X041644Y02557D01*
X041588Y025643D01*
X041515Y025699D01*
X041492Y025709D01*
Y026179D01*
X041846D01*
X041852Y026179D01*
X041896D01*
X041902Y026179D01*
X042346D01*
X042352Y026179D01*
X042396D01*
X042402Y026179D01*
X042846D01*
X042852Y026179D01*
X042896D01*
X042902Y026179D01*
X043074D01*
Y026658D01*
Y027137D01*
X042902D01*
X042896Y027137D01*
X042852D01*
X042846Y027137D01*
X042777D01*
Y027657D01*
X042765Y027716D01*
X042743Y02775D01*
X042764Y027798D01*
X042765Y0278D01*
X043471D01*
Y027137D01*
X043402D01*
X043396Y027137D01*
X043352D01*
X043346Y027137D01*
X043174D01*
Y026658D01*
Y026179D01*
X043346D01*
X043352Y026179D01*
X043396D01*
X043402Y026179D01*
X043846D01*
X043852Y026179D01*
X043896D01*
X043902Y026179D01*
X044346D01*
X044352Y026179D01*
X044396D01*
X044402Y026179D01*
X044846D01*
X044852Y026179D01*
X044896D01*
X044902Y026179D01*
X045346D01*
X045352Y026179D01*
X045396D01*
X045402Y026179D01*
X045574D01*
Y026658D01*
Y027137D01*
X045402D01*
X045396Y027137D01*
X045352D01*
X045346Y027137D01*
X045277D01*
Y02874D01*
X045265Y028799D01*
X045243Y028832D01*
X045264Y028881D01*
X045265Y028882D01*
X045971D01*
Y027137D01*
X045902D01*
X045896Y027137D01*
X045852D01*
X045846Y027137D01*
X045674D01*
Y026658D01*
Y026179D01*
X045846D01*
X045852Y026179D01*
X045896D01*
X045902Y026179D01*
X046346D01*
X046352Y026179D01*
X046396D01*
X046402Y026179D01*
X046846D01*
X046852Y026179D01*
X046896D01*
X046902Y026179D01*
X047352D01*
Y027137D01*
X046902D01*
X046896Y027137D01*
X046852D01*
X046846Y027137D01*
X046402D01*
X046396Y027137D01*
X046352D01*
X046346Y027137D01*
X046277D01*
Y029035D01*
X046265Y029094D01*
X046232Y029144D01*
X046183Y029177D01*
X046124Y029188D01*
X038539D01*
Y030654D01*
X04065D01*
X040708Y030666D01*
X040758Y030699D01*
X040791Y030749D01*
X040803Y030807D01*
Y038795D01*
X040791Y038854D01*
X040758Y038903D01*
X040708Y038937D01*
X04065Y038948D01*
X040081D01*
Y038992D01*
X040072Y039059D01*
X040046Y039122D01*
X040005Y039176D01*
X039951Y039217D01*
X039888Y039243D01*
X039821Y039252D01*
X039427D01*
X03936Y039243D01*
X039297Y039217D01*
X039244Y039176D01*
X039202Y039122D01*
X039176Y039059D01*
X039167Y038992D01*
Y038677D01*
X039176Y03861D01*
X039202Y038547D01*
X039244Y038494D01*
X039297Y038452D01*
X03936Y038426D01*
X039427Y038417D01*
X039821D01*
X039888Y038426D01*
X039951Y038452D01*
X040005Y038494D01*
X040046Y038547D01*
X040072Y03861D01*
X040076Y038642D01*
X040497D01*
Y03096D01*
X038386D01*
X038327Y030948D01*
X038293Y030926D01*
X038245Y030947D01*
X038243Y030948D01*
Y031048D01*
X040256D01*
X040314Y031059D01*
X040364Y031093D01*
X040397Y031142D01*
X040409Y031201D01*
Y037835D01*
X040397Y037893D01*
X040364Y037943D01*
X040314Y037976D01*
X040256Y037988D01*
X040049D01*
X040026Y038044D01*
X039959Y038131D01*
X039873Y038197D01*
X039772Y038239D01*
X039663Y038253D01*
X039585D01*
X039476Y038239D01*
X039375Y038197D01*
X039289Y038131D01*
X039222Y038044D01*
X03918Y037943D01*
X039166Y037835D01*
X03918Y037726D01*
X039222Y037625D01*
X039289Y037539D01*
X039375Y037472D01*
X039476Y03743D01*
X039585Y037416D01*
X039663D01*
X039772Y03743D01*
X039873Y037472D01*
X039959Y037539D01*
X040026Y037625D01*
X040049Y037682D01*
X040103D01*
Y036988D01*
X040053Y036978D01*
X040026Y037044D01*
X039959Y037131D01*
X039873Y037197D01*
X039772Y037239D01*
X039663Y037253D01*
X039585D01*
X039476Y037239D01*
X039375Y037197D01*
X039289Y037131D01*
X039222Y037044D01*
X039199Y036988D01*
X036024D01*
X035965Y036976D01*
X035915Y036943D01*
X035882Y036893D01*
X035871Y036835D01*
Y026802D01*
X035882Y026743D01*
X035915Y026694D01*
X035965Y02666D01*
X036024Y026649D01*
X03833D01*
X038354Y026599D01*
X03831Y026541D01*
X038267Y026438D01*
X038259Y026377D01*
X038681D01*
X039103D01*
X039095Y026438D01*
X039052Y026541D01*
X039008Y026599D01*
X039033Y026649D01*
X039471D01*
Y023839D01*
X039448Y023829D01*
X039374Y023773D01*
X039318Y0237D01*
X039283Y023615D01*
X039271Y023524D01*
X039283Y023432D01*
X039318Y023347D01*
X039374Y023274D01*
X039448Y023218D01*
X039533Y023183D01*
X039624Y023171D01*
X039715Y023183D01*
X039801Y023218D01*
X039874Y023274D01*
X03993Y023347D01*
X039965Y023432D01*
X039977Y023524D01*
X039965Y023615D01*
X03993Y0237D01*
X039874Y023773D01*
X039801Y023829D01*
X039777Y023839D01*
Y023903D01*
X039824Y023942D01*
X039852Y023938D01*
X039908Y023865D01*
X039981Y023808D01*
X040066Y023773D01*
X040157Y023761D01*
X040249Y023773D01*
X040334Y023808D01*
X040407Y023865D01*
X040463Y023938D01*
X040498Y024023D01*
X040511Y024114D01*
X040498Y024206D01*
X040463Y024291D01*
X040407Y024364D01*
X040334Y02442D01*
X040249Y024455D01*
X040157Y024467D01*
X040066Y024455D01*
X040057Y024451D01*
X040015Y024479D01*
Y024662D01*
X040017Y024664D01*
X040065Y024684D01*
X040099Y024662D01*
X040157Y02465D01*
X040433D01*
X040442Y024627D01*
X040498Y024554D01*
X040572Y024497D01*
X040657Y024462D01*
X040748Y02445D01*
X040839Y024462D01*
X040925Y024497D01*
X040998Y024554D01*
X041054Y024627D01*
X041089Y024712D01*
X041101Y024803D01*
X041089Y024895D01*
X041054Y02498D01*
X040998Y025053D01*
X040925Y025109D01*
X040839Y025144D01*
X040748Y025156D01*
X040657Y025144D01*
X040572Y025109D01*
X040498Y025053D01*
X040442Y02498D01*
X040433Y024956D01*
X04031D01*
Y027362D01*
X040299Y027421D01*
X040276Y027455D01*
X040297Y027503D01*
X040298Y027505D01*
X042471D01*
Y027137D01*
X042402D01*
X042396Y027137D01*
X042352D01*
X042346Y027137D01*
X041902D01*
X041896Y027137D01*
X041852D01*
X041846Y027137D01*
X041396D01*
Y026811D01*
X041339D01*
X04128Y0268D01*
X04123Y026766D01*
X041197Y026717D01*
X041186Y026658D01*
Y025709D01*
X041162Y025699D01*
X041089Y025643D01*
X041033Y02557D01*
X040998Y025485D01*
X040986Y025394D01*
X040998Y025302D01*
X041033Y025217D01*
X041089Y025144D01*
X041162Y025088D01*
X041186Y025078D01*
Y021618D01*
X040783Y021216D01*
X035433D01*
X035375Y021204D01*
X035325Y021171D01*
X034779Y020625D01*
X033626D01*
X032996Y021256D01*
Y024736D01*
X032984Y024795D01*
X032951Y024844D01*
X032718Y025077D01*
X032723Y025089D01*
X032737Y025197D01*
X032723Y025305D01*
X032681Y025406D01*
X032615Y025493D01*
X032528Y025559D01*
X032427Y025601D01*
X032319Y025615D01*
X03224D01*
X032132Y025601D01*
X032031Y025559D01*
X031944Y025493D01*
X031878Y025406D01*
X031836Y025305D01*
X031822Y025197D01*
X031836Y025089D01*
X031878Y024988D01*
X031944Y024901D01*
X032031Y024834D01*
X032132Y024793D01*
X03224Y024778D01*
X032319D01*
X032427Y024793D01*
X032528Y024834D01*
X03269Y024673D01*
Y024477D01*
X03264Y02446D01*
X032615Y024493D01*
X032528Y024559D01*
X032427Y024601D01*
X032319Y024615D01*
X03224D01*
X032132Y024601D01*
X032031Y024559D01*
X031944Y024493D01*
X031878Y024406D01*
X031836Y024305D01*
X031822Y024197D01*
X031836Y024089D01*
X031878Y023988D01*
X031944Y023901D01*
X032031Y023834D01*
X032132Y023793D01*
X03224Y023778D01*
X032319D01*
X032427Y023793D01*
X032528Y023834D01*
X032615Y023901D01*
X03264Y023933D01*
X03269Y023916D01*
Y023477D01*
X03264Y02346D01*
X032615Y023493D01*
X032528Y023559D01*
X032427Y023601D01*
X032319Y023615D01*
X03224D01*
X032132Y023601D01*
X032031Y023559D01*
X031944Y023493D01*
X031878Y023406D01*
X031836Y023305D01*
X031822Y023197D01*
X031836Y023089D01*
X031878Y022988D01*
X031944Y022901D01*
X032031Y022834D01*
X032132Y022793D01*
X03224Y022778D01*
X032319D01*
X032427Y022793D01*
X032528Y022834D01*
X032615Y022901D01*
X03264Y022933D01*
X03269Y022916D01*
Y022477D01*
X03264Y02246D01*
X032615Y022493D01*
X032528Y022559D01*
X032427Y022601D01*
X032319Y022615D01*
X03224D01*
X032132Y022601D01*
X032031Y022559D01*
X031944Y022493D01*
X031878Y022406D01*
X031836Y022305D01*
X031822Y022197D01*
X031836Y022089D01*
X031878Y021988D01*
X031944Y021901D01*
X032031Y021834D01*
X032132Y021793D01*
X03224Y021778D01*
X032319D01*
X032427Y021793D01*
X032528Y021834D01*
X032615Y021901D01*
X03264Y021933D01*
X03269Y021916D01*
Y021477D01*
X03264Y02146D01*
X032615Y021493D01*
X032528Y021559D01*
X032427Y021601D01*
X032319Y021615D01*
X03224D01*
X032132Y021601D01*
X032031Y021559D01*
X031944Y021493D01*
X031878Y021406D01*
X031836Y021305D01*
X031822Y021197D01*
X031836Y021089D01*
X031878Y020988D01*
X031944Y020901D01*
X032031Y020834D01*
X032132Y020793D01*
X03224Y020778D01*
X032319D01*
X032427Y020793D01*
X032528Y020834D01*
X032615Y020901D01*
X032681Y020988D01*
X032705Y021044D01*
X032764Y021056D01*
X033455Y020364D01*
X033504Y020331D01*
X033563Y020319D01*
X034843D01*
X034901Y020331D01*
X034951Y020364D01*
X035496Y02091D01*
X040846D01*
X040905Y020922D01*
X040955Y020955D01*
X041447Y021447D01*
X041455Y021459D01*
X041515D01*
X041516Y021457D01*
X04251Y020463D01*
X04256Y02043D01*
X042618Y020418D01*
X045381D01*
X045391Y020394D01*
X045447Y020321D01*
X04552Y020265D01*
X045605Y02023D01*
X045696Y020218D01*
X045788Y02023D01*
X045873Y020265D01*
X045946Y020321D01*
X046002Y020394D01*
X046037Y02048D01*
X046049Y020571D01*
X046037Y020662D01*
X046002Y020747D01*
X045946Y02082D01*
X045873Y020877D01*
X045788Y020912D01*
X045696Y020924D01*
X045605Y020912D01*
X04552Y020877D01*
X045447Y02082D01*
X045391Y020747D01*
X045381Y020724D01*
X042681D01*
X041777Y021628D01*
Y022469D01*
X041846D01*
X041852Y022469D01*
X041896D01*
X041902Y022469D01*
X042346D01*
X042352Y022469D01*
X042396D01*
X042402Y022469D01*
X042471D01*
Y02126D01*
X042483Y021201D01*
X042516Y021152D01*
X042565Y021119D01*
X042624Y021107D01*
X050519D01*
X050541Y021062D01*
X050526Y021043D01*
X050491Y020958D01*
X050479Y020866D01*
X050491Y020775D01*
X050526Y02069D01*
X050582Y020617D01*
X050655Y02056D01*
X05074Y020525D01*
X050832Y020513D01*
X050923Y020525D01*
X051008Y02056D01*
X051081Y020617D01*
X051137Y02069D01*
X051173Y020775D01*
X051185Y020866D01*
X051173Y020958D01*
X051137Y021043D01*
X051081Y021116D01*
X05108Y021139D01*
X052077Y022136D01*
X05211Y022186D01*
X052121Y022244D01*
Y02882D01*
X052171Y028837D01*
X052211Y028786D01*
X052284Y02873D01*
X052369Y028694D01*
X052461Y028682D01*
X052552Y028694D01*
X052633Y028728D01*
X052738Y028624D01*
X052788Y028591D01*
X052846Y028579D01*
X052974D01*
X052991Y028529D01*
X052944Y028493D01*
X052878Y028406D01*
X052836Y028305D01*
X052822Y028197D01*
X052836Y028089D01*
X052878Y027988D01*
X052944Y027901D01*
X053031Y027834D01*
X053132Y027793D01*
X05324Y027778D01*
X053319D01*
X053427Y027793D01*
X053528Y027834D01*
X053615Y027901D01*
X053681Y027988D01*
X053723Y028089D01*
X053737Y028197D01*
X053723Y028305D01*
X053681Y028406D01*
X053615Y028493D01*
X053568Y028529D01*
X053585Y028579D01*
X054974D01*
X054991Y028529D01*
X054944Y028493D01*
X054878Y028406D01*
X054836Y028305D01*
X054822Y028197D01*
X054836Y028089D01*
X054878Y027988D01*
X054944Y027901D01*
X055031Y027834D01*
X055132Y027793D01*
X05524Y027778D01*
X055319D01*
X055427Y027793D01*
X055528Y027834D01*
X055615Y027901D01*
X055681Y027988D01*
X055723Y028089D01*
X055737Y028197D01*
X055723Y028305D01*
X055681Y028406D01*
X055615Y028493D01*
X055568Y028529D01*
X055585Y028579D01*
X055974D01*
X055991Y028529D01*
X055944Y028493D01*
X055878Y028406D01*
X055836Y028305D01*
X055822Y028197D01*
X055836Y028089D01*
X055878Y027988D01*
X055944Y027901D01*
X056031Y027834D01*
X056132Y027793D01*
X05624Y027778D01*
X056319D01*
X056427Y027793D01*
X056528Y027834D01*
X056615Y027901D01*
X056681Y027988D01*
X056723Y028089D01*
X056737Y028197D01*
X056723Y028305D01*
X056681Y028406D01*
X056615Y028493D01*
X056557Y028537D01*
X056557Y028538D01*
X056574Y028587D01*
X056728D01*
X056934Y028382D01*
Y021225D01*
X056763Y021054D01*
X056721Y021082D01*
X056723Y021089D01*
X056737Y021197D01*
X056723Y021305D01*
X056681Y021406D01*
X056615Y021493D01*
X056528Y021559D01*
X056427Y021601D01*
X056319Y021615D01*
X05624D01*
X056132Y021601D01*
X056031Y021559D01*
X055944Y021493D01*
X055878Y021406D01*
X055836Y021305D01*
X055822Y021197D01*
X055836Y021089D01*
X055878Y020988D01*
X055944Y020901D01*
X055982Y020872D01*
X055965Y020822D01*
X05587D01*
X055688Y021004D01*
X055723Y021089D01*
X055737Y021197D01*
X055723Y021305D01*
X055681Y021406D01*
X055615Y021493D01*
X055528Y021559D01*
X055427Y021601D01*
X055319Y021615D01*
X05524D01*
X055132Y021601D01*
X055031Y021559D01*
X054944Y021493D01*
X054878Y021406D01*
X054836Y021305D01*
X054822Y021197D01*
X054836Y021089D01*
X054878Y020988D01*
X054944Y020901D01*
X055031Y020834D01*
X055132Y020793D01*
X05524Y020778D01*
X055319D01*
X055427Y020793D01*
X055456Y020804D01*
X055699Y020561D01*
X055749Y020528D01*
X055807Y020516D01*
X056594D01*
X056653Y020528D01*
X056703Y020561D01*
X057195Y021053D01*
X057228Y021103D01*
X05724Y021161D01*
Y028445D01*
X057228Y028503D01*
X057195Y028553D01*
X056899Y028848D01*
X05685Y028881D01*
X056791Y028893D01*
X056672D01*
X056647Y028943D01*
X056681Y028988D01*
X056723Y029089D01*
X056737Y029197D01*
X056723Y029305D01*
X056681Y029406D01*
X056615Y029493D01*
X056528Y029559D01*
X056427Y029601D01*
X056319Y029615D01*
X05624D01*
X056132Y029601D01*
X056031Y029559D01*
X055944Y029493D01*
X055878Y029406D01*
X055836Y029305D01*
X055822Y029197D01*
X055836Y029089D01*
X055878Y028988D01*
X055918Y028935D01*
X055894Y028885D01*
X055666D01*
X055641Y028935D01*
X055681Y028988D01*
X055723Y029089D01*
X055737Y029197D01*
X055723Y029305D01*
X055681Y029406D01*
X055615Y029493D01*
X055528Y029559D01*
X055427Y029601D01*
X055319Y029615D01*
X05524D01*
X055132Y029601D01*
X055031Y029559D01*
X054944Y029493D01*
X054878Y029406D01*
X054836Y029305D01*
X054822Y029197D01*
X054836Y029089D01*
X054878Y028988D01*
X054918Y028935D01*
X054894Y028885D01*
X052909D01*
X052807Y028987D01*
X052814Y029035D01*
X052802Y029127D01*
X052766Y029212D01*
X05271Y029285D01*
X052637Y029341D01*
X052552Y029376D01*
X052461Y029388D01*
X052369Y029376D01*
X052284Y029341D01*
X052211Y029285D01*
X052171Y029233D01*
X052121Y02925D01*
Y040256D01*
X05211Y040314D01*
X052077Y040364D01*
X051585Y040856D01*
X051535Y040889D01*
X051476Y040901D01*
X047295D01*
X047237Y040889D01*
X047187Y040856D01*
X046838Y040507D01*
X044527D01*
Y040618D01*
X044583Y040641D01*
X04467Y040708D01*
X044736Y040795D01*
X044778Y040896D01*
X044793Y041004D01*
Y041083D01*
X044778Y041191D01*
X044736Y041292D01*
X04467Y041379D01*
X044609Y041425D01*
X044626Y041475D01*
X045122D01*
X045139Y041425D01*
X045078Y041379D01*
X045012Y041292D01*
X04497Y041191D01*
X044955Y041083D01*
Y041004D01*
X04497Y040896D01*
X045012Y040795D01*
X045078Y040708D01*
X045165Y040641D01*
X045266Y0406D01*
X045374Y040585D01*
X045482Y0406D01*
X045583Y040641D01*
X04567Y040708D01*
X045736Y040795D01*
X045778Y040896D01*
X045793Y041004D01*
Y041083D01*
X045778Y041191D01*
X045736Y041292D01*
X04567Y041379D01*
X045609Y041425D01*
X045626Y041475D01*
X046122D01*
X046139Y041425D01*
X046078Y041379D01*
X046012Y041292D01*
X04597Y041191D01*
X045955Y041083D01*
Y041004D01*
X04597Y040896D01*
X046012Y040795D01*
X046078Y040708D01*
X046165Y040641D01*
X046266Y0406D01*
X046374Y040585D01*
X046482Y0406D01*
X046583Y040641D01*
X04667Y040708D01*
X046736Y040795D01*
X046778Y040896D01*
X046793Y041004D01*
Y041083D01*
X046778Y041191D01*
X046736Y041292D01*
X04667Y041379D01*
X046609Y041425D01*
X046626Y041475D01*
X057381D01*
Y02075D01*
D02*
G37*
%LPC*%
G36*
X043791Y040993D02*
X043424D01*
Y040592D01*
X043482Y0406D01*
X043583Y040641D01*
X04367Y040708D01*
X043736Y040795D01*
X043778Y040896D01*
X043791Y040993D01*
D02*
G37*
G36*
X043324D02*
X042957D01*
X04297Y040896D01*
X043012Y040795D01*
X043078Y040708D01*
X043165Y040641D01*
X043266Y0406D01*
X043324Y040592D01*
Y040993D01*
D02*
G37*
G36*
X05328Y04099D02*
X053125Y040974D01*
X052976Y040929D01*
X052839Y040856D01*
X052719Y040757D01*
X05262Y040637D01*
X052547Y0405D01*
X052502Y040352D01*
X052487Y040197D01*
X052502Y040042D01*
X052547Y039893D01*
X05262Y039756D01*
X052719Y039636D01*
X052839Y039538D01*
X052976Y039464D01*
X053125Y039419D01*
X05328Y039404D01*
X053434Y039419D01*
X053583Y039464D01*
X05372Y039538D01*
X05384Y039636D01*
X053939Y039756D01*
X054012Y039893D01*
X054057Y040042D01*
X054072Y040197D01*
X054057Y040352D01*
X054012Y0405D01*
X053939Y040637D01*
X05384Y040757D01*
X05372Y040856D01*
X053583Y040929D01*
X053434Y040974D01*
X05328Y04099D01*
D02*
G37*
G36*
X045751Y040141D02*
X045091D01*
Y039281D01*
X045751D01*
Y040141D01*
D02*
G37*
G36*
X046735D02*
X046075D01*
Y038981D01*
X046735D01*
Y040141D01*
D02*
G37*
G36*
X043782D02*
X043122D01*
Y038981D01*
X043782D01*
Y040141D01*
D02*
G37*
G36*
X042798D02*
X042138D01*
Y038981D01*
X042798D01*
Y040141D01*
D02*
G37*
G36*
X055734Y039612D02*
X054825D01*
Y038782D01*
X055734D01*
Y039612D01*
D02*
G37*
G36*
X031734D02*
X030825D01*
Y038782D01*
X031734D01*
Y039612D01*
D02*
G37*
G36*
X056319Y039615D02*
X05624D01*
X056132Y039601D01*
X056031Y039559D01*
X055944Y039493D01*
X055878Y039406D01*
X055836Y039305D01*
X055822Y039197D01*
X055836Y039089D01*
X055878Y038988D01*
X055944Y038901D01*
X056031Y038834D01*
X056132Y038793D01*
X05624Y038778D01*
X056319D01*
X056427Y038793D01*
X056528Y038834D01*
X056615Y038901D01*
X056681Y038988D01*
X056723Y039089D01*
X056737Y039197D01*
X056723Y039305D01*
X056681Y039406D01*
X056615Y039493D01*
X056528Y039559D01*
X056427Y039601D01*
X056319Y039615D01*
D02*
G37*
G36*
X032319D02*
X03224D01*
X032132Y039601D01*
X032031Y039559D01*
X031944Y039493D01*
X031878Y039406D01*
X031836Y039305D01*
X031822Y039197D01*
X031836Y039089D01*
X031878Y038988D01*
X031944Y038901D01*
X032031Y038834D01*
X032132Y038793D01*
X03224Y038778D01*
X032319D01*
X032427Y038793D01*
X032528Y038834D01*
X032615Y038901D01*
X032681Y038988D01*
X032723Y039089D01*
X032737Y039197D01*
X032723Y039305D01*
X032681Y039406D01*
X032615Y039493D01*
X032528Y039559D01*
X032427Y039601D01*
X032319Y039615D01*
D02*
G37*
G36*
X044804Y040141D02*
X044144D01*
Y038681D01*
X044804D01*
Y040141D01*
D02*
G37*
G36*
X053319Y039214D02*
X05324D01*
X053132Y0392D01*
X053031Y039158D01*
X052944Y039091D01*
X052878Y039005D01*
X052836Y038904D01*
X052822Y038795D01*
X052836Y038687D01*
X052878Y038586D01*
X052944Y038499D01*
X053031Y038433D01*
X053132Y038391D01*
X05324Y038377D01*
X053319D01*
X053427Y038391D01*
X053528Y038433D01*
X053615Y038499D01*
X053681Y038586D01*
X053723Y038687D01*
X053737Y038795D01*
X053723Y038904D01*
X053681Y039005D01*
X053615Y039091D01*
X053528Y039158D01*
X053427Y0392D01*
X053319Y039214D01*
D02*
G37*
G36*
X056319Y038615D02*
X05624D01*
X056132Y038601D01*
X056031Y038559D01*
X055944Y038493D01*
X055878Y038406D01*
X055836Y038305D01*
X055822Y038197D01*
X055836Y038089D01*
X055878Y037988D01*
X055944Y037901D01*
X056031Y037834D01*
X056132Y037793D01*
X05624Y037778D01*
X056319D01*
X056427Y037793D01*
X056528Y037834D01*
X056615Y037901D01*
X056681Y037988D01*
X056723Y038089D01*
X056737Y038197D01*
X056723Y038305D01*
X056681Y038406D01*
X056615Y038493D01*
X056528Y038559D01*
X056427Y038601D01*
X056319Y038615D01*
D02*
G37*
G36*
X055319D02*
X05524D01*
X055132Y038601D01*
X055031Y038559D01*
X054944Y038493D01*
X054878Y038406D01*
X054836Y038305D01*
X054822Y038197D01*
X054836Y038089D01*
X054878Y037988D01*
X054944Y037901D01*
X055031Y037834D01*
X055132Y037793D01*
X05524Y037778D01*
X055319D01*
X055427Y037793D01*
X055528Y037834D01*
X055615Y037901D01*
X055681Y037988D01*
X055723Y038089D01*
X055737Y038197D01*
X055723Y038305D01*
X055681Y038406D01*
X055615Y038493D01*
X055528Y038559D01*
X055427Y038601D01*
X055319Y038615D01*
D02*
G37*
G36*
X032319D02*
X03224D01*
X032132Y038601D01*
X032031Y038559D01*
X031944Y038493D01*
X031878Y038406D01*
X031836Y038305D01*
X031822Y038197D01*
X031836Y038089D01*
X031878Y037988D01*
X031944Y037901D01*
X032031Y037834D01*
X032132Y037793D01*
X03224Y037778D01*
X032319D01*
X032427Y037793D01*
X032528Y037834D01*
X032615Y037901D01*
X032681Y037988D01*
X032723Y038089D01*
X032737Y038197D01*
X032723Y038305D01*
X032681Y038406D01*
X032615Y038493D01*
X032528Y038559D01*
X032427Y038601D01*
X032319Y038615D01*
D02*
G37*
G36*
X031319D02*
X03124D01*
X031132Y038601D01*
X031031Y038559D01*
X030944Y038493D01*
X030878Y038406D01*
X030836Y038305D01*
X030822Y038197D01*
X030836Y038089D01*
X030878Y037988D01*
X030944Y037901D01*
X031031Y037834D01*
X031132Y037793D01*
X03124Y037778D01*
X031319D01*
X031427Y037793D01*
X031528Y037834D01*
X031615Y037901D01*
X031681Y037988D01*
X031723Y038089D01*
X031737Y038197D01*
X031723Y038305D01*
X031681Y038406D01*
X031615Y038493D01*
X031528Y038559D01*
X031427Y038601D01*
X031319Y038615D01*
D02*
G37*
G36*
X053319Y038214D02*
X05324D01*
X053132Y0382D01*
X053031Y038158D01*
X052944Y038091D01*
X052878Y038005D01*
X052836Y037904D01*
X052822Y037795D01*
X052836Y037687D01*
X052878Y037586D01*
X052944Y037499D01*
X053031Y037433D01*
X053132Y037391D01*
X05324Y037377D01*
X053319D01*
X053427Y037391D01*
X053528Y037433D01*
X053615Y037499D01*
X053681Y037586D01*
X053723Y037687D01*
X053737Y037795D01*
X053723Y037904D01*
X053681Y038005D01*
X053615Y038091D01*
X053528Y038158D01*
X053427Y0382D01*
X053319Y038214D01*
D02*
G37*
G36*
X056319Y037615D02*
X05624D01*
X056132Y037601D01*
X056031Y037559D01*
X055944Y037493D01*
X055878Y037406D01*
X055836Y037305D01*
X055822Y037197D01*
X055836Y037089D01*
X055878Y036988D01*
X055944Y036901D01*
X056031Y036834D01*
X056132Y036793D01*
X05624Y036778D01*
X056319D01*
X056427Y036793D01*
X056528Y036834D01*
X056615Y036901D01*
X056681Y036988D01*
X056723Y037089D01*
X056737Y037197D01*
X056723Y037305D01*
X056681Y037406D01*
X056615Y037493D01*
X056528Y037559D01*
X056427Y037601D01*
X056319Y037615D01*
D02*
G37*
G36*
X055319D02*
X05524D01*
X055132Y037601D01*
X055031Y037559D01*
X054944Y037493D01*
X054878Y037406D01*
X054836Y037305D01*
X054822Y037197D01*
X054836Y037089D01*
X054878Y036988D01*
X054944Y036901D01*
X055031Y036834D01*
X055132Y036793D01*
X05524Y036778D01*
X055319D01*
X055427Y036793D01*
X055528Y036834D01*
X055615Y036901D01*
X055681Y036988D01*
X055723Y037089D01*
X055737Y037197D01*
X055723Y037305D01*
X055681Y037406D01*
X055615Y037493D01*
X055528Y037559D01*
X055427Y037601D01*
X055319Y037615D01*
D02*
G37*
G36*
X032319D02*
X03224D01*
X032132Y037601D01*
X032031Y037559D01*
X031944Y037493D01*
X031878Y037406D01*
X031836Y037305D01*
X031822Y037197D01*
X031836Y037089D01*
X031878Y036988D01*
X031944Y036901D01*
X032031Y036834D01*
X032132Y036793D01*
X03224Y036778D01*
X032319D01*
X032427Y036793D01*
X032528Y036834D01*
X032615Y036901D01*
X032681Y036988D01*
X032723Y037089D01*
X032737Y037197D01*
X032723Y037305D01*
X032681Y037406D01*
X032615Y037493D01*
X032528Y037559D01*
X032427Y037601D01*
X032319Y037615D01*
D02*
G37*
G36*
X031319D02*
X03124D01*
X031132Y037601D01*
X031031Y037559D01*
X030944Y037493D01*
X030878Y037406D01*
X030836Y037305D01*
X030822Y037197D01*
X030836Y037089D01*
X030878Y036988D01*
X030944Y036901D01*
X031031Y036834D01*
X031132Y036793D01*
X03124Y036778D01*
X031319D01*
X031427Y036793D01*
X031528Y036834D01*
X031615Y036901D01*
X031681Y036988D01*
X031723Y037089D01*
X031737Y037197D01*
X031723Y037305D01*
X031681Y037406D01*
X031615Y037493D01*
X031528Y037559D01*
X031427Y037601D01*
X031319Y037615D01*
D02*
G37*
G36*
X053319Y037214D02*
X05324D01*
X053132Y0372D01*
X053031Y037158D01*
X052944Y037091D01*
X052878Y037005D01*
X052836Y036904D01*
X052822Y036795D01*
X052836Y036687D01*
X052878Y036586D01*
X052944Y036499D01*
X053031Y036433D01*
X053132Y036391D01*
X05324Y036377D01*
X053319D01*
X053427Y036391D01*
X053528Y036433D01*
X053615Y036499D01*
X053681Y036586D01*
X053723Y036687D01*
X053737Y036795D01*
X053723Y036904D01*
X053681Y037005D01*
X053615Y037091D01*
X053528Y037158D01*
X053427Y0372D01*
X053319Y037214D01*
D02*
G37*
G36*
X03233Y036614D02*
Y036247D01*
X032731D01*
X032723Y036305D01*
X032681Y036406D01*
X032615Y036493D01*
X032528Y036559D01*
X032427Y036601D01*
X03233Y036614D01*
D02*
G37*
G36*
X03223D02*
X032132Y036601D01*
X032031Y036559D01*
X031944Y036493D01*
X031878Y036406D01*
X031836Y036305D01*
X031828Y036247D01*
X03223D01*
Y036614D01*
D02*
G37*
G36*
X05333Y036212D02*
Y035845D01*
X053731D01*
X053723Y035904D01*
X053681Y036005D01*
X053615Y036091D01*
X053528Y036158D01*
X053427Y0362D01*
X05333Y036212D01*
D02*
G37*
G36*
X05323D02*
X053132Y0362D01*
X053031Y036158D01*
X052944Y036091D01*
X052878Y036005D01*
X052836Y035904D01*
X052828Y035845D01*
X05323D01*
Y036212D01*
D02*
G37*
G36*
X032731Y036147D02*
X03233D01*
Y03578D01*
X032427Y035793D01*
X032528Y035834D01*
X032615Y035901D01*
X032681Y035988D01*
X032723Y036089D01*
X032731Y036147D01*
D02*
G37*
G36*
X03223D02*
X031828D01*
X031836Y036089D01*
X031878Y035988D01*
X031944Y035901D01*
X032031Y035834D01*
X032132Y035793D01*
X03223Y03578D01*
Y036147D01*
D02*
G37*
G36*
X056319Y036615D02*
X05624D01*
X056132Y036601D01*
X056031Y036559D01*
X055944Y036493D01*
X055878Y036406D01*
X055836Y036305D01*
X055822Y036197D01*
X055836Y036089D01*
X055878Y035988D01*
X055944Y035901D01*
X056031Y035834D01*
X056132Y035793D01*
X05624Y035778D01*
X056319D01*
X056427Y035793D01*
X056528Y035834D01*
X056615Y035901D01*
X056681Y035988D01*
X056723Y036089D01*
X056737Y036197D01*
X056723Y036305D01*
X056681Y036406D01*
X056615Y036493D01*
X056528Y036559D01*
X056427Y036601D01*
X056319Y036615D01*
D02*
G37*
G36*
X055319D02*
X05524D01*
X055132Y036601D01*
X055031Y036559D01*
X054944Y036493D01*
X054878Y036406D01*
X054836Y036305D01*
X054822Y036197D01*
X054836Y036089D01*
X054878Y035988D01*
X054944Y035901D01*
X055031Y035834D01*
X055132Y035793D01*
X05524Y035778D01*
X055319D01*
X055427Y035793D01*
X055528Y035834D01*
X055615Y035901D01*
X055681Y035988D01*
X055723Y036089D01*
X055737Y036197D01*
X055723Y036305D01*
X055681Y036406D01*
X055615Y036493D01*
X055528Y036559D01*
X055427Y036601D01*
X055319Y036615D01*
D02*
G37*
G36*
X031319D02*
X03124D01*
X031132Y036601D01*
X031031Y036559D01*
X030944Y036493D01*
X030878Y036406D01*
X030836Y036305D01*
X030822Y036197D01*
X030836Y036089D01*
X030878Y035988D01*
X030944Y035901D01*
X031031Y035834D01*
X031132Y035793D01*
X03124Y035778D01*
X031319D01*
X031427Y035793D01*
X031528Y035834D01*
X031615Y035901D01*
X031681Y035988D01*
X031723Y036089D01*
X031737Y036197D01*
X031723Y036305D01*
X031681Y036406D01*
X031615Y036493D01*
X031528Y036559D01*
X031427Y036601D01*
X031319Y036615D01*
D02*
G37*
G36*
X049163Y036253D02*
X049085D01*
X048976Y036239D01*
X048875Y036197D01*
X048789Y036131D01*
X048722Y036044D01*
X04868Y035943D01*
X048666Y035835D01*
X04868Y035726D01*
X048722Y035625D01*
X048789Y035539D01*
X048875Y035472D01*
X048976Y03543D01*
X049085Y035416D01*
X049163D01*
X049272Y03543D01*
X049373Y035472D01*
X049459Y035539D01*
X049526Y035625D01*
X049568Y035726D01*
X049582Y035835D01*
X049568Y035943D01*
X049526Y036044D01*
X049459Y036131D01*
X049373Y036197D01*
X049272Y036239D01*
X049163Y036253D01*
D02*
G37*
G36*
X053731Y035745D02*
X05333D01*
Y035378D01*
X053427Y035391D01*
X053528Y035433D01*
X053615Y035499D01*
X053681Y035586D01*
X053723Y035687D01*
X053731Y035745D01*
D02*
G37*
G36*
X05323D02*
X052828D01*
X052836Y035687D01*
X052878Y035586D01*
X052944Y035499D01*
X053031Y035433D01*
X053132Y035391D01*
X05323Y035378D01*
Y035745D01*
D02*
G37*
G36*
X05533Y035614D02*
Y035247D01*
X055731D01*
X055723Y035305D01*
X055681Y035406D01*
X055615Y035493D01*
X055528Y035559D01*
X055427Y035601D01*
X05533Y035614D01*
D02*
G37*
G36*
X05523D02*
X055132Y035601D01*
X055031Y035559D01*
X054944Y035493D01*
X054878Y035406D01*
X054836Y035305D01*
X054828Y035247D01*
X05523D01*
Y035614D01*
D02*
G37*
G36*
X034734Y035612D02*
X033825D01*
Y034782D01*
X034734D01*
Y035612D01*
D02*
G37*
G36*
X055731Y035147D02*
X05533D01*
Y03478D01*
X055427Y034793D01*
X055528Y034834D01*
X055615Y034901D01*
X055681Y034988D01*
X055723Y035089D01*
X055731Y035147D01*
D02*
G37*
G36*
X05523D02*
X054828D01*
X054836Y035089D01*
X054878Y034988D01*
X054944Y034901D01*
X055031Y034834D01*
X055132Y034793D01*
X05523Y03478D01*
Y035147D01*
D02*
G37*
G36*
X056319Y035615D02*
X05624D01*
X056132Y035601D01*
X056031Y035559D01*
X055944Y035493D01*
X055878Y035406D01*
X055836Y035305D01*
X055822Y035197D01*
X055836Y035089D01*
X055878Y034988D01*
X055944Y034901D01*
X056031Y034834D01*
X056132Y034793D01*
X05624Y034778D01*
X056319D01*
X056427Y034793D01*
X056528Y034834D01*
X056615Y034901D01*
X056681Y034988D01*
X056723Y035089D01*
X056737Y035197D01*
X056723Y035305D01*
X056681Y035406D01*
X056615Y035493D01*
X056528Y035559D01*
X056427Y035601D01*
X056319Y035615D01*
D02*
G37*
G36*
X032319D02*
X03224D01*
X032132Y035601D01*
X032031Y035559D01*
X031944Y035493D01*
X031878Y035406D01*
X031836Y035305D01*
X031822Y035197D01*
X031836Y035089D01*
X031878Y034988D01*
X031944Y034901D01*
X032031Y034834D01*
X032132Y034793D01*
X03224Y034778D01*
X032319D01*
X032427Y034793D01*
X032528Y034834D01*
X032615Y034901D01*
X032681Y034988D01*
X032723Y035089D01*
X032737Y035197D01*
X032723Y035305D01*
X032681Y035406D01*
X032615Y035493D01*
X032528Y035559D01*
X032427Y035601D01*
X032319Y035615D01*
D02*
G37*
G36*
X031319D02*
X03124D01*
X031132Y035601D01*
X031031Y035559D01*
X030944Y035493D01*
X030878Y035406D01*
X030836Y035305D01*
X030822Y035197D01*
X030836Y035089D01*
X030878Y034988D01*
X030944Y034901D01*
X031031Y034834D01*
X031132Y034793D01*
X03124Y034778D01*
X031319D01*
X031427Y034793D01*
X031528Y034834D01*
X031615Y034901D01*
X031681Y034988D01*
X031723Y035089D01*
X031737Y035197D01*
X031723Y035305D01*
X031681Y035406D01*
X031615Y035493D01*
X031528Y035559D01*
X031427Y035601D01*
X031319Y035615D01*
D02*
G37*
G36*
X049163Y035253D02*
X049085D01*
X048976Y035239D01*
X048875Y035197D01*
X048789Y035131D01*
X048722Y035044D01*
X04868Y034943D01*
X048666Y034835D01*
X04868Y034726D01*
X048722Y034625D01*
X048789Y034539D01*
X048875Y034472D01*
X048976Y03443D01*
X049085Y034416D01*
X049163D01*
X049272Y03443D01*
X049373Y034472D01*
X049459Y034539D01*
X049526Y034625D01*
X049568Y034726D01*
X049582Y034835D01*
X049568Y034943D01*
X049526Y035044D01*
X049459Y035131D01*
X049373Y035197D01*
X049272Y035239D01*
X049163Y035253D01*
D02*
G37*
G36*
X053319Y035214D02*
X05324D01*
X053132Y0352D01*
X053031Y035158D01*
X052944Y035091D01*
X052878Y035005D01*
X052836Y034904D01*
X052822Y034795D01*
X052836Y034687D01*
X052878Y034586D01*
X052944Y034499D01*
X053031Y034433D01*
X053132Y034391D01*
X05324Y034377D01*
X053319D01*
X053427Y034391D01*
X053528Y034433D01*
X053615Y034499D01*
X053681Y034586D01*
X053723Y034687D01*
X053737Y034795D01*
X053723Y034904D01*
X053681Y035005D01*
X053615Y035091D01*
X053528Y035158D01*
X053427Y0352D01*
X053319Y035214D01*
D02*
G37*
G36*
X056319Y034615D02*
X05624D01*
X056132Y034601D01*
X056031Y034559D01*
X055944Y034493D01*
X055878Y034406D01*
X055836Y034305D01*
X055822Y034197D01*
X055836Y034089D01*
X055878Y033988D01*
X055944Y033901D01*
X056031Y033834D01*
X056132Y033793D01*
X05624Y033778D01*
X056319D01*
X056427Y033793D01*
X056528Y033834D01*
X056615Y033901D01*
X056681Y033988D01*
X056723Y034089D01*
X056737Y034197D01*
X056723Y034305D01*
X056681Y034406D01*
X056615Y034493D01*
X056528Y034559D01*
X056427Y034601D01*
X056319Y034615D01*
D02*
G37*
G36*
X055319D02*
X05524D01*
X055132Y034601D01*
X055031Y034559D01*
X054944Y034493D01*
X054878Y034406D01*
X054836Y034305D01*
X054822Y034197D01*
X054836Y034089D01*
X054878Y033988D01*
X054944Y033901D01*
X055031Y033834D01*
X055132Y033793D01*
X05524Y033778D01*
X055319D01*
X055427Y033793D01*
X055528Y033834D01*
X055615Y033901D01*
X055681Y033988D01*
X055723Y034089D01*
X055737Y034197D01*
X055723Y034305D01*
X055681Y034406D01*
X055615Y034493D01*
X055528Y034559D01*
X055427Y034601D01*
X055319Y034615D01*
D02*
G37*
G36*
X034319D02*
X03424D01*
X034132Y034601D01*
X034031Y034559D01*
X033944Y034493D01*
X033878Y034406D01*
X033836Y034305D01*
X033822Y034197D01*
X033836Y034089D01*
X033878Y033988D01*
X033944Y033901D01*
X034031Y033834D01*
X034132Y033793D01*
X03424Y033778D01*
X034319D01*
X034427Y033793D01*
X034528Y033834D01*
X034615Y033901D01*
X034681Y033988D01*
X034723Y034089D01*
X034737Y034197D01*
X034723Y034305D01*
X034681Y034406D01*
X034615Y034493D01*
X034528Y034559D01*
X034427Y034601D01*
X034319Y034615D01*
D02*
G37*
G36*
X032319D02*
X03224D01*
X032132Y034601D01*
X032031Y034559D01*
X031944Y034493D01*
X031878Y034406D01*
X031836Y034305D01*
X031822Y034197D01*
X031836Y034089D01*
X031878Y033988D01*
X031944Y033901D01*
X032031Y033834D01*
X032132Y033793D01*
X03224Y033778D01*
X032319D01*
X032427Y033793D01*
X032528Y033834D01*
X032615Y033901D01*
X032681Y033988D01*
X032723Y034089D01*
X032737Y034197D01*
X032723Y034305D01*
X032681Y034406D01*
X032615Y034493D01*
X032528Y034559D01*
X032427Y034601D01*
X032319Y034615D01*
D02*
G37*
G36*
X031319D02*
X03124D01*
X031132Y034601D01*
X031031Y034559D01*
X030944Y034493D01*
X030878Y034406D01*
X030836Y034305D01*
X030822Y034197D01*
X030836Y034089D01*
X030878Y033988D01*
X030944Y033901D01*
X031031Y033834D01*
X031132Y033793D01*
X03124Y033778D01*
X031319D01*
X031427Y033793D01*
X031528Y033834D01*
X031615Y033901D01*
X031681Y033988D01*
X031723Y034089D01*
X031737Y034197D01*
X031723Y034305D01*
X031681Y034406D01*
X031615Y034493D01*
X031528Y034559D01*
X031427Y034601D01*
X031319Y034615D01*
D02*
G37*
G36*
X049163Y034253D02*
X049085D01*
X048976Y034239D01*
X048875Y034197D01*
X048789Y034131D01*
X048722Y034044D01*
X04868Y033943D01*
X048666Y033835D01*
X04868Y033726D01*
X048722Y033625D01*
X048789Y033539D01*
X048875Y033472D01*
X048976Y03343D01*
X049085Y033416D01*
X049163D01*
X049272Y03343D01*
X049373Y033472D01*
X049459Y033539D01*
X049526Y033625D01*
X049568Y033726D01*
X049582Y033835D01*
X049568Y033943D01*
X049526Y034044D01*
X049459Y034131D01*
X049373Y034197D01*
X049272Y034239D01*
X049163Y034253D01*
D02*
G37*
G36*
X053319Y034214D02*
X05324D01*
X053132Y0342D01*
X053031Y034158D01*
X052944Y034091D01*
X052878Y034005D01*
X052836Y033904D01*
X052822Y033795D01*
X052836Y033687D01*
X052878Y033586D01*
X052944Y033499D01*
X053031Y033433D01*
X053132Y033391D01*
X05324Y033377D01*
X053319D01*
X053427Y033391D01*
X053528Y033433D01*
X053615Y033499D01*
X053681Y033586D01*
X053723Y033687D01*
X053737Y033795D01*
X053723Y033904D01*
X053681Y034005D01*
X053615Y034091D01*
X053528Y034158D01*
X053427Y0342D01*
X053319Y034214D01*
D02*
G37*
G36*
X056319Y033615D02*
X05624D01*
X056132Y033601D01*
X056031Y033559D01*
X055944Y033493D01*
X055878Y033406D01*
X055836Y033305D01*
X055822Y033197D01*
X055836Y033089D01*
X055878Y032988D01*
X055944Y032901D01*
X056031Y032834D01*
X056132Y032793D01*
X05624Y032778D01*
X056319D01*
X056427Y032793D01*
X056528Y032834D01*
X056615Y032901D01*
X056681Y032988D01*
X056723Y033089D01*
X056737Y033197D01*
X056723Y033305D01*
X056681Y033406D01*
X056615Y033493D01*
X056528Y033559D01*
X056427Y033601D01*
X056319Y033615D01*
D02*
G37*
G36*
X055319D02*
X05524D01*
X055132Y033601D01*
X055031Y033559D01*
X054944Y033493D01*
X054878Y033406D01*
X054836Y033305D01*
X054822Y033197D01*
X054836Y033089D01*
X054878Y032988D01*
X054944Y032901D01*
X055031Y032834D01*
X055132Y032793D01*
X05524Y032778D01*
X055319D01*
X055427Y032793D01*
X055528Y032834D01*
X055615Y032901D01*
X055681Y032988D01*
X055723Y033089D01*
X055737Y033197D01*
X055723Y033305D01*
X055681Y033406D01*
X055615Y033493D01*
X055528Y033559D01*
X055427Y033601D01*
X055319Y033615D01*
D02*
G37*
G36*
X034319D02*
X03424D01*
X034132Y033601D01*
X034031Y033559D01*
X033944Y033493D01*
X033878Y033406D01*
X033836Y033305D01*
X033822Y033197D01*
X033836Y033089D01*
X033878Y032988D01*
X033944Y032901D01*
X034031Y032834D01*
X034132Y032793D01*
X03424Y032778D01*
X034319D01*
X034427Y032793D01*
X034528Y032834D01*
X034615Y032901D01*
X034681Y032988D01*
X034723Y033089D01*
X034737Y033197D01*
X034723Y033305D01*
X034681Y033406D01*
X034615Y033493D01*
X034528Y033559D01*
X034427Y033601D01*
X034319Y033615D01*
D02*
G37*
G36*
X032319D02*
X03224D01*
X032132Y033601D01*
X032031Y033559D01*
X031944Y033493D01*
X031878Y033406D01*
X031836Y033305D01*
X031822Y033197D01*
X031836Y033089D01*
X031878Y032988D01*
X031944Y032901D01*
X032031Y032834D01*
X032132Y032793D01*
X03224Y032778D01*
X032319D01*
X032427Y032793D01*
X032528Y032834D01*
X032615Y032901D01*
X032681Y032988D01*
X032723Y033089D01*
X032737Y033197D01*
X032723Y033305D01*
X032681Y033406D01*
X032615Y033493D01*
X032528Y033559D01*
X032427Y033601D01*
X032319Y033615D01*
D02*
G37*
G36*
X031319D02*
X03124D01*
X031132Y033601D01*
X031031Y033559D01*
X030944Y033493D01*
X030878Y033406D01*
X030836Y033305D01*
X030822Y033197D01*
X030836Y033089D01*
X030878Y032988D01*
X030944Y032901D01*
X031031Y032834D01*
X031132Y032793D01*
X03124Y032778D01*
X031319D01*
X031427Y032793D01*
X031528Y032834D01*
X031615Y032901D01*
X031681Y032988D01*
X031723Y033089D01*
X031737Y033197D01*
X031723Y033305D01*
X031681Y033406D01*
X031615Y033493D01*
X031528Y033559D01*
X031427Y033601D01*
X031319Y033615D01*
D02*
G37*
G36*
X053319Y033214D02*
X05324D01*
X053132Y0332D01*
X053031Y033158D01*
X052944Y033091D01*
X052878Y033005D01*
X052836Y032904D01*
X052822Y032795D01*
X052836Y032687D01*
X052878Y032586D01*
X052944Y032499D01*
X053031Y032433D01*
X053132Y032391D01*
X05324Y032377D01*
X053319D01*
X053427Y032391D01*
X053528Y032433D01*
X053615Y032499D01*
X053681Y032586D01*
X053723Y032687D01*
X053737Y032795D01*
X053723Y032904D01*
X053681Y033005D01*
X053615Y033091D01*
X053528Y033158D01*
X053427Y0332D01*
X053319Y033214D01*
D02*
G37*
G36*
X056319Y032615D02*
X05624D01*
X056132Y032601D01*
X056031Y032559D01*
X055944Y032493D01*
X055878Y032406D01*
X055836Y032305D01*
X055822Y032197D01*
X055836Y032089D01*
X055878Y031988D01*
X055944Y031901D01*
X056031Y031834D01*
X056132Y031793D01*
X05624Y031778D01*
X056319D01*
X056427Y031793D01*
X056528Y031834D01*
X056615Y031901D01*
X056681Y031988D01*
X056723Y032089D01*
X056737Y032197D01*
X056723Y032305D01*
X056681Y032406D01*
X056615Y032493D01*
X056528Y032559D01*
X056427Y032601D01*
X056319Y032615D01*
D02*
G37*
G36*
X055319D02*
X05524D01*
X055132Y032601D01*
X055031Y032559D01*
X054944Y032493D01*
X054878Y032406D01*
X054836Y032305D01*
X054822Y032197D01*
X054836Y032089D01*
X054878Y031988D01*
X054944Y031901D01*
X055031Y031834D01*
X055132Y031793D01*
X05524Y031778D01*
X055319D01*
X055427Y031793D01*
X055528Y031834D01*
X055615Y031901D01*
X055681Y031988D01*
X055723Y032089D01*
X055737Y032197D01*
X055723Y032305D01*
X055681Y032406D01*
X055615Y032493D01*
X055528Y032559D01*
X055427Y032601D01*
X055319Y032615D01*
D02*
G37*
G36*
X034319D02*
X03424D01*
X034132Y032601D01*
X034031Y032559D01*
X033944Y032493D01*
X033878Y032406D01*
X033836Y032305D01*
X033822Y032197D01*
X033836Y032089D01*
X033878Y031988D01*
X033944Y031901D01*
X034031Y031834D01*
X034132Y031793D01*
X03424Y031778D01*
X034319D01*
X034427Y031793D01*
X034528Y031834D01*
X034615Y031901D01*
X034681Y031988D01*
X034723Y032089D01*
X034737Y032197D01*
X034723Y032305D01*
X034681Y032406D01*
X034615Y032493D01*
X034528Y032559D01*
X034427Y032601D01*
X034319Y032615D01*
D02*
G37*
G36*
X032319D02*
X03224D01*
X032132Y032601D01*
X032031Y032559D01*
X031944Y032493D01*
X031878Y032406D01*
X031836Y032305D01*
X031822Y032197D01*
X031836Y032089D01*
X031878Y031988D01*
X031944Y031901D01*
X032031Y031834D01*
X032132Y031793D01*
X03224Y031778D01*
X032319D01*
X032427Y031793D01*
X032528Y031834D01*
X032615Y031901D01*
X032681Y031988D01*
X032723Y032089D01*
X032737Y032197D01*
X032723Y032305D01*
X032681Y032406D01*
X032615Y032493D01*
X032528Y032559D01*
X032427Y032601D01*
X032319Y032615D01*
D02*
G37*
G36*
X031319D02*
X03124D01*
X031132Y032601D01*
X031031Y032559D01*
X030944Y032493D01*
X030878Y032406D01*
X030836Y032305D01*
X030822Y032197D01*
X030836Y032089D01*
X030878Y031988D01*
X030944Y031901D01*
X031031Y031834D01*
X031132Y031793D01*
X03124Y031778D01*
X031319D01*
X031427Y031793D01*
X031528Y031834D01*
X031615Y031901D01*
X031681Y031988D01*
X031723Y032089D01*
X031737Y032197D01*
X031723Y032305D01*
X031681Y032406D01*
X031615Y032493D01*
X031528Y032559D01*
X031427Y032601D01*
X031319Y032615D01*
D02*
G37*
G36*
X053319Y032214D02*
X05324D01*
X053132Y0322D01*
X053031Y032158D01*
X052944Y032091D01*
X052878Y032005D01*
X052836Y031904D01*
X052822Y031795D01*
X052836Y031687D01*
X052878Y031586D01*
X052944Y031499D01*
X053031Y031433D01*
X053132Y031391D01*
X05324Y031377D01*
X053319D01*
X053427Y031391D01*
X053528Y031433D01*
X053615Y031499D01*
X053681Y031586D01*
X053723Y031687D01*
X053737Y031795D01*
X053723Y031904D01*
X053681Y032005D01*
X053615Y032091D01*
X053528Y032158D01*
X053427Y0322D01*
X053319Y032214D01*
D02*
G37*
G36*
X056319Y031615D02*
X05624D01*
X056132Y031601D01*
X056031Y031559D01*
X055944Y031493D01*
X055878Y031406D01*
X055836Y031305D01*
X055822Y031197D01*
X055836Y031089D01*
X055878Y030988D01*
X055944Y030901D01*
X056031Y030834D01*
X056132Y030793D01*
X05624Y030778D01*
X056319D01*
X056427Y030793D01*
X056528Y030834D01*
X056615Y030901D01*
X056681Y030988D01*
X056723Y031089D01*
X056737Y031197D01*
X056723Y031305D01*
X056681Y031406D01*
X056615Y031493D01*
X056528Y031559D01*
X056427Y031601D01*
X056319Y031615D01*
D02*
G37*
G36*
X055319D02*
X05524D01*
X055132Y031601D01*
X055031Y031559D01*
X054944Y031493D01*
X054878Y031406D01*
X054836Y031305D01*
X054822Y031197D01*
X054836Y031089D01*
X054878Y030988D01*
X054944Y030901D01*
X055031Y030834D01*
X055132Y030793D01*
X05524Y030778D01*
X055319D01*
X055427Y030793D01*
X055528Y030834D01*
X055615Y030901D01*
X055681Y030988D01*
X055723Y031089D01*
X055737Y031197D01*
X055723Y031305D01*
X055681Y031406D01*
X055615Y031493D01*
X055528Y031559D01*
X055427Y031601D01*
X055319Y031615D01*
D02*
G37*
G36*
X034319D02*
X03424D01*
X034132Y031601D01*
X034031Y031559D01*
X033944Y031493D01*
X033878Y031406D01*
X033836Y031305D01*
X033822Y031197D01*
X033836Y031089D01*
X033878Y030988D01*
X033944Y030901D01*
X034031Y030834D01*
X034132Y030793D01*
X03424Y030778D01*
X034319D01*
X034427Y030793D01*
X034528Y030834D01*
X034615Y030901D01*
X034681Y030988D01*
X034723Y031089D01*
X034737Y031197D01*
X034723Y031305D01*
X034681Y031406D01*
X034615Y031493D01*
X034528Y031559D01*
X034427Y031601D01*
X034319Y031615D01*
D02*
G37*
G36*
X032319D02*
X03224D01*
X032132Y031601D01*
X032031Y031559D01*
X031944Y031493D01*
X031878Y031406D01*
X031836Y031305D01*
X031822Y031197D01*
X031836Y031089D01*
X031878Y030988D01*
X031944Y030901D01*
X032031Y030834D01*
X032132Y030793D01*
X03224Y030778D01*
X032319D01*
X032427Y030793D01*
X032528Y030834D01*
X032615Y030901D01*
X032681Y030988D01*
X032723Y031089D01*
X032737Y031197D01*
X032723Y031305D01*
X032681Y031406D01*
X032615Y031493D01*
X032528Y031559D01*
X032427Y031601D01*
X032319Y031615D01*
D02*
G37*
G36*
X031319D02*
X03124D01*
X031132Y031601D01*
X031031Y031559D01*
X030944Y031493D01*
X030878Y031406D01*
X030836Y031305D01*
X030822Y031197D01*
X030836Y031089D01*
X030878Y030988D01*
X030944Y030901D01*
X031031Y030834D01*
X031132Y030793D01*
X03124Y030778D01*
X031319D01*
X031427Y030793D01*
X031528Y030834D01*
X031615Y030901D01*
X031681Y030988D01*
X031723Y031089D01*
X031737Y031197D01*
X031723Y031305D01*
X031681Y031406D01*
X031615Y031493D01*
X031528Y031559D01*
X031427Y031601D01*
X031319Y031615D01*
D02*
G37*
G36*
X053319Y031214D02*
X05324D01*
X053132Y0312D01*
X053031Y031158D01*
X052944Y031091D01*
X052878Y031005D01*
X052836Y030904D01*
X052822Y030795D01*
X052836Y030687D01*
X052878Y030586D01*
X052944Y030499D01*
X053031Y030433D01*
X053132Y030391D01*
X05324Y030377D01*
X053319D01*
X053427Y030391D01*
X053528Y030433D01*
X053615Y030499D01*
X053681Y030586D01*
X053723Y030687D01*
X053737Y030795D01*
X053723Y030904D01*
X053681Y031005D01*
X053615Y031091D01*
X053528Y031158D01*
X053427Y0312D01*
X053319Y031214D01*
D02*
G37*
G36*
X05633Y030614D02*
Y030247D01*
X056731D01*
X056723Y030305D01*
X056681Y030406D01*
X056615Y030493D01*
X056528Y030559D01*
X056427Y030601D01*
X05633Y030614D01*
D02*
G37*
G36*
X05623D02*
X056132Y030601D01*
X056031Y030559D01*
X055944Y030493D01*
X055878Y030406D01*
X055836Y030305D01*
X055828Y030247D01*
X05623D01*
Y030614D01*
D02*
G37*
G36*
X03433D02*
Y030247D01*
X034731D01*
X034723Y030305D01*
X034681Y030406D01*
X034615Y030493D01*
X034528Y030559D01*
X034427Y030601D01*
X03433Y030614D01*
D02*
G37*
G36*
X03423D02*
X034132Y030601D01*
X034031Y030559D01*
X033944Y030493D01*
X033878Y030406D01*
X033836Y030305D01*
X033828Y030247D01*
X03423D01*
Y030614D01*
D02*
G37*
G36*
X03233D02*
Y030247D01*
X032731D01*
X032723Y030305D01*
X032681Y030406D01*
X032615Y030493D01*
X032528Y030559D01*
X032427Y030601D01*
X03233Y030614D01*
D02*
G37*
G36*
X03223D02*
X032132Y030601D01*
X032031Y030559D01*
X031944Y030493D01*
X031878Y030406D01*
X031836Y030305D01*
X031828Y030247D01*
X03223D01*
Y030614D01*
D02*
G37*
G36*
X03133D02*
Y030247D01*
X031731D01*
X031723Y030305D01*
X031681Y030406D01*
X031615Y030493D01*
X031528Y030559D01*
X031427Y030601D01*
X03133Y030614D01*
D02*
G37*
G36*
X03123D02*
X031132Y030601D01*
X031031Y030559D01*
X030944Y030493D01*
X030878Y030406D01*
X030836Y030305D01*
X030828Y030247D01*
X03123D01*
Y030614D01*
D02*
G37*
G36*
X056731Y030147D02*
X05633D01*
Y02978D01*
X056427Y029793D01*
X056528Y029834D01*
X056615Y029901D01*
X056681Y029988D01*
X056723Y030089D01*
X056731Y030147D01*
D02*
G37*
G36*
X05623D02*
X055828D01*
X055836Y030089D01*
X055878Y029988D01*
X055944Y029901D01*
X056031Y029834D01*
X056132Y029793D01*
X05623Y02978D01*
Y030147D01*
D02*
G37*
G36*
X034731D02*
X03433D01*
Y02978D01*
X034427Y029793D01*
X034528Y029834D01*
X034615Y029901D01*
X034681Y029988D01*
X034723Y030089D01*
X034731Y030147D01*
D02*
G37*
G36*
X03423D02*
X033828D01*
X033836Y030089D01*
X033878Y029988D01*
X033944Y029901D01*
X034031Y029834D01*
X034132Y029793D01*
X03423Y02978D01*
Y030147D01*
D02*
G37*
G36*
X032731D02*
X03233D01*
Y02978D01*
X032427Y029793D01*
X032528Y029834D01*
X032615Y029901D01*
X032681Y029988D01*
X032723Y030089D01*
X032731Y030147D01*
D02*
G37*
G36*
X03223D02*
X031828D01*
X031836Y030089D01*
X031878Y029988D01*
X031944Y029901D01*
X032031Y029834D01*
X032132Y029793D01*
X03223Y02978D01*
Y030147D01*
D02*
G37*
G36*
X031731D02*
X03133D01*
Y02978D01*
X031427Y029793D01*
X031528Y029834D01*
X031615Y029901D01*
X031681Y029988D01*
X031723Y030089D01*
X031731Y030147D01*
D02*
G37*
G36*
X03123D02*
X030828D01*
X030836Y030089D01*
X030878Y029988D01*
X030944Y029901D01*
X031031Y029834D01*
X031132Y029793D01*
X03123Y02978D01*
Y030147D01*
D02*
G37*
G36*
X055319Y030615D02*
X05524D01*
X055132Y030601D01*
X055031Y030559D01*
X054944Y030493D01*
X054878Y030406D01*
X054836Y030305D01*
X054822Y030197D01*
X054836Y030089D01*
X054878Y029988D01*
X054944Y029901D01*
X055031Y029834D01*
X055132Y029793D01*
X05524Y029778D01*
X055319D01*
X055427Y029793D01*
X055528Y029834D01*
X055615Y029901D01*
X055681Y029988D01*
X055723Y030089D01*
X055737Y030197D01*
X055723Y030305D01*
X055681Y030406D01*
X055615Y030493D01*
X055528Y030559D01*
X055427Y030601D01*
X055319Y030615D01*
D02*
G37*
G36*
X053319Y030214D02*
X05324D01*
X053132Y0302D01*
X053031Y030158D01*
X052944Y030091D01*
X052878Y030005D01*
X052836Y029904D01*
X052822Y029795D01*
X052836Y029687D01*
X052878Y029586D01*
X052944Y029499D01*
X053031Y029433D01*
X053132Y029391D01*
X05324Y029377D01*
X053319D01*
X053427Y029391D01*
X053528Y029433D01*
X053615Y029499D01*
X053681Y029586D01*
X053723Y029687D01*
X053737Y029795D01*
X053723Y029904D01*
X053681Y030005D01*
X053615Y030091D01*
X053528Y030158D01*
X053427Y0302D01*
X053319Y030214D01*
D02*
G37*
G36*
X035483Y029543D02*
Y029247D01*
X03578D01*
X035774Y029288D01*
X035739Y029373D01*
X035683Y029446D01*
X03561Y029503D01*
X035524Y029538D01*
X035483Y029543D01*
D02*
G37*
G36*
X035383D02*
X035342Y029538D01*
X035257Y029503D01*
X035183Y029446D01*
X035127Y029373D01*
X035092Y029288D01*
X035087Y029247D01*
X035383D01*
Y029543D01*
D02*
G37*
G36*
X03433Y029614D02*
Y029247D01*
X034731D01*
X034723Y029305D01*
X034681Y029406D01*
X034615Y029493D01*
X034528Y029559D01*
X034427Y029601D01*
X03433Y029614D01*
D02*
G37*
G36*
X03423D02*
X034132Y029601D01*
X034031Y029559D01*
X033944Y029493D01*
X033878Y029406D01*
X033836Y029305D01*
X033828Y029247D01*
X03423D01*
Y029614D01*
D02*
G37*
G36*
X03233D02*
Y029247D01*
X032731D01*
X032723Y029305D01*
X032681Y029406D01*
X032615Y029493D01*
X032528Y029559D01*
X032427Y029601D01*
X03233Y029614D01*
D02*
G37*
G36*
X03223D02*
X032132Y029601D01*
X032031Y029559D01*
X031944Y029493D01*
X031878Y029406D01*
X031836Y029305D01*
X031828Y029247D01*
X03223D01*
Y029614D01*
D02*
G37*
G36*
X03578Y029147D02*
X035483D01*
Y02885D01*
X035524Y028856D01*
X03561Y028891D01*
X035683Y028947D01*
X035739Y02902D01*
X035774Y029105D01*
X03578Y029147D01*
D02*
G37*
G36*
X035383D02*
X035087D01*
X035092Y029105D01*
X035127Y02902D01*
X035183Y028947D01*
X035257Y028891D01*
X035342Y028856D01*
X035383Y02885D01*
Y029147D01*
D02*
G37*
G36*
X034731D02*
X03433D01*
Y02878D01*
X034427Y028793D01*
X034528Y028834D01*
X034615Y028901D01*
X034681Y028988D01*
X034723Y029089D01*
X034731Y029147D01*
D02*
G37*
G36*
X03423D02*
X033828D01*
X033836Y029089D01*
X033878Y028988D01*
X033944Y028901D01*
X034031Y028834D01*
X034132Y028793D01*
X03423Y02878D01*
Y029147D01*
D02*
G37*
G36*
X032731D02*
X03233D01*
Y02878D01*
X032427Y028793D01*
X032528Y028834D01*
X032615Y028901D01*
X032681Y028988D01*
X032723Y029089D01*
X032731Y029147D01*
D02*
G37*
G36*
X03223D02*
X031828D01*
X031836Y029089D01*
X031878Y028988D01*
X031944Y028901D01*
X032031Y028834D01*
X032132Y028793D01*
X03223Y02878D01*
Y029147D01*
D02*
G37*
G36*
X031319Y029615D02*
X03124D01*
X031132Y029601D01*
X031031Y029559D01*
X030944Y029493D01*
X030878Y029406D01*
X030836Y029305D01*
X030822Y029197D01*
X030836Y029089D01*
X030878Y028988D01*
X030944Y028901D01*
X031031Y028834D01*
X031132Y028793D01*
X03124Y028778D01*
X031319D01*
X031427Y028793D01*
X031528Y028834D01*
X031615Y028901D01*
X031681Y028988D01*
X031723Y029089D01*
X031737Y029197D01*
X031723Y029305D01*
X031681Y029406D01*
X031615Y029493D01*
X031528Y029559D01*
X031427Y029601D01*
X031319Y029615D01*
D02*
G37*
G36*
X034319Y028615D02*
X03424D01*
X034132Y028601D01*
X034031Y028559D01*
X033944Y028493D01*
X033878Y028406D01*
X033836Y028305D01*
X033822Y028197D01*
X033836Y028089D01*
X033878Y027988D01*
X033944Y027901D01*
X034031Y027834D01*
X034132Y027793D01*
X03424Y027778D01*
X034319D01*
X034427Y027793D01*
X034528Y027834D01*
X034615Y027901D01*
X034681Y027988D01*
X034723Y028089D01*
X034737Y028197D01*
X034723Y028305D01*
X034681Y028406D01*
X034615Y028493D01*
X034528Y028559D01*
X034427Y028601D01*
X034319Y028615D01*
D02*
G37*
G36*
X032319D02*
X03224D01*
X032132Y028601D01*
X032031Y028559D01*
X031944Y028493D01*
X031878Y028406D01*
X031836Y028305D01*
X031822Y028197D01*
X031836Y028089D01*
X031878Y027988D01*
X031944Y027901D01*
X032031Y027834D01*
X032132Y027793D01*
X03224Y027778D01*
X032319D01*
X032427Y027793D01*
X032528Y027834D01*
X032615Y027901D01*
X032681Y027988D01*
X032723Y028089D01*
X032737Y028197D01*
X032723Y028305D01*
X032681Y028406D01*
X032615Y028493D01*
X032528Y028559D01*
X032427Y028601D01*
X032319Y028615D01*
D02*
G37*
G36*
X031319D02*
X03124D01*
X031132Y028601D01*
X031031Y028559D01*
X030944Y028493D01*
X030878Y028406D01*
X030836Y028305D01*
X030822Y028197D01*
X030836Y028089D01*
X030878Y027988D01*
X030944Y027901D01*
X031031Y027834D01*
X031132Y027793D01*
X03124Y027778D01*
X031319D01*
X031427Y027793D01*
X031528Y027834D01*
X031615Y027901D01*
X031681Y027988D01*
X031723Y028089D01*
X031737Y028197D01*
X031723Y028305D01*
X031681Y028406D01*
X031615Y028493D01*
X031528Y028559D01*
X031427Y028601D01*
X031319Y028615D01*
D02*
G37*
G36*
X056319Y027615D02*
X05624D01*
X056132Y027601D01*
X056031Y027559D01*
X055944Y027493D01*
X055878Y027406D01*
X055836Y027305D01*
X055822Y027197D01*
X055836Y027089D01*
X055878Y026988D01*
X055944Y026901D01*
X056031Y026834D01*
X056132Y026793D01*
X05624Y026778D01*
X056319D01*
X056427Y026793D01*
X056528Y026834D01*
X056615Y026901D01*
X056681Y026988D01*
X056723Y027089D01*
X056737Y027197D01*
X056723Y027305D01*
X056681Y027406D01*
X056615Y027493D01*
X056528Y027559D01*
X056427Y027601D01*
X056319Y027615D01*
D02*
G37*
G36*
X055319D02*
X05524D01*
X055132Y027601D01*
X055031Y027559D01*
X054944Y027493D01*
X054878Y027406D01*
X054836Y027305D01*
X054822Y027197D01*
X054836Y027089D01*
X054878Y026988D01*
X054944Y026901D01*
X055031Y026834D01*
X055132Y026793D01*
X05524Y026778D01*
X055319D01*
X055427Y026793D01*
X055528Y026834D01*
X055615Y026901D01*
X055681Y026988D01*
X055723Y027089D01*
X055737Y027197D01*
X055723Y027305D01*
X055681Y027406D01*
X055615Y027493D01*
X055528Y027559D01*
X055427Y027601D01*
X055319Y027615D01*
D02*
G37*
G36*
X053319D02*
X05324D01*
X053132Y027601D01*
X053031Y027559D01*
X052944Y027493D01*
X052878Y027406D01*
X052836Y027305D01*
X052822Y027197D01*
X052836Y027089D01*
X052878Y026988D01*
X052944Y026901D01*
X053031Y026834D01*
X053132Y026793D01*
X05324Y026778D01*
X053319D01*
X053427Y026793D01*
X053528Y026834D01*
X053615Y026901D01*
X053681Y026988D01*
X053723Y027089D01*
X053737Y027197D01*
X053723Y027305D01*
X053681Y027406D01*
X053615Y027493D01*
X053528Y027559D01*
X053427Y027601D01*
X053319Y027615D01*
D02*
G37*
G36*
X032319D02*
X03224D01*
X032132Y027601D01*
X032031Y027559D01*
X031944Y027493D01*
X031878Y027406D01*
X031836Y027305D01*
X031822Y027197D01*
X031836Y027089D01*
X031878Y026988D01*
X031944Y026901D01*
X032031Y026834D01*
X032132Y026793D01*
X03224Y026778D01*
X032319D01*
X032427Y026793D01*
X032528Y026834D01*
X032615Y026901D01*
X032681Y026988D01*
X032723Y027089D01*
X032737Y027197D01*
X032723Y027305D01*
X032681Y027406D01*
X032615Y027493D01*
X032528Y027559D01*
X032427Y027601D01*
X032319Y027615D01*
D02*
G37*
G36*
X031319D02*
X03124D01*
X031132Y027601D01*
X031031Y027559D01*
X030944Y027493D01*
X030878Y027406D01*
X030836Y027305D01*
X030822Y027197D01*
X030836Y027089D01*
X030878Y026988D01*
X030944Y026901D01*
X031031Y026834D01*
X031132Y026793D01*
X03124Y026778D01*
X031319D01*
X031427Y026793D01*
X031528Y026834D01*
X031615Y026901D01*
X031681Y026988D01*
X031723Y027089D01*
X031737Y027197D01*
X031723Y027305D01*
X031681Y027406D01*
X031615Y027493D01*
X031528Y027559D01*
X031427Y027601D01*
X031319Y027615D01*
D02*
G37*
G36*
X039103Y026277D02*
X038731D01*
Y025905D01*
X038792Y025913D01*
X038895Y025956D01*
X038984Y026024D01*
X039052Y026112D01*
X039095Y026216D01*
X039103Y026277D01*
D02*
G37*
G36*
X038631D02*
X038259D01*
X038267Y026216D01*
X03831Y026112D01*
X038378Y026024D01*
X038467Y025956D01*
X03857Y025913D01*
X038631Y025905D01*
Y026277D01*
D02*
G37*
G36*
X034734Y026612D02*
X033825D01*
Y025782D01*
X034734D01*
Y026612D01*
D02*
G37*
G36*
X056319Y026615D02*
X05624D01*
X056132Y026601D01*
X056031Y026559D01*
X055944Y026493D01*
X055878Y026406D01*
X055836Y026305D01*
X055822Y026197D01*
X055836Y026089D01*
X055878Y025988D01*
X055944Y025901D01*
X056031Y025834D01*
X056132Y025793D01*
X05624Y025778D01*
X056319D01*
X056427Y025793D01*
X056528Y025834D01*
X056615Y025901D01*
X056681Y025988D01*
X056723Y026089D01*
X056737Y026197D01*
X056723Y026305D01*
X056681Y026406D01*
X056615Y026493D01*
X056528Y026559D01*
X056427Y026601D01*
X056319Y026615D01*
D02*
G37*
G36*
X055319D02*
X05524D01*
X055132Y026601D01*
X055031Y026559D01*
X054944Y026493D01*
X054878Y026406D01*
X054836Y026305D01*
X054822Y026197D01*
X054836Y026089D01*
X054878Y025988D01*
X054944Y025901D01*
X055031Y025834D01*
X055132Y025793D01*
X05524Y025778D01*
X055319D01*
X055427Y025793D01*
X055528Y025834D01*
X055615Y025901D01*
X055681Y025988D01*
X055723Y026089D01*
X055737Y026197D01*
X055723Y026305D01*
X055681Y026406D01*
X055615Y026493D01*
X055528Y026559D01*
X055427Y026601D01*
X055319Y026615D01*
D02*
G37*
G36*
X053319D02*
X05324D01*
X053132Y026601D01*
X053031Y026559D01*
X052944Y026493D01*
X052878Y026406D01*
X052836Y026305D01*
X052822Y026197D01*
X052836Y026089D01*
X052878Y025988D01*
X052944Y025901D01*
X053031Y025834D01*
X053132Y025793D01*
X05324Y025778D01*
X053319D01*
X053427Y025793D01*
X053528Y025834D01*
X053615Y025901D01*
X053681Y025988D01*
X053723Y026089D01*
X053737Y026197D01*
X053723Y026305D01*
X053681Y026406D01*
X053615Y026493D01*
X053528Y026559D01*
X053427Y026601D01*
X053319Y026615D01*
D02*
G37*
G36*
X032319D02*
X03224D01*
X032132Y026601D01*
X032031Y026559D01*
X031944Y026493D01*
X031878Y026406D01*
X031836Y026305D01*
X031822Y026197D01*
X031836Y026089D01*
X031878Y025988D01*
X031944Y025901D01*
X032031Y025834D01*
X032132Y025793D01*
X03224Y025778D01*
X032319D01*
X032427Y025793D01*
X032528Y025834D01*
X032615Y025901D01*
X032681Y025988D01*
X032723Y026089D01*
X032737Y026197D01*
X032723Y026305D01*
X032681Y026406D01*
X032615Y026493D01*
X032528Y026559D01*
X032427Y026601D01*
X032319Y026615D01*
D02*
G37*
G36*
X031319D02*
X03124D01*
X031132Y026601D01*
X031031Y026559D01*
X030944Y026493D01*
X030878Y026406D01*
X030836Y026305D01*
X030822Y026197D01*
X030836Y026089D01*
X030878Y025988D01*
X030944Y025901D01*
X031031Y025834D01*
X031132Y025793D01*
X03124Y025778D01*
X031319D01*
X031427Y025793D01*
X031528Y025834D01*
X031615Y025901D01*
X031681Y025988D01*
X031723Y026089D01*
X031737Y026197D01*
X031723Y026305D01*
X031681Y026406D01*
X031615Y026493D01*
X031528Y026559D01*
X031427Y026601D01*
X031319Y026615D01*
D02*
G37*
G36*
X056319Y025615D02*
X05624D01*
X056132Y025601D01*
X056031Y025559D01*
X055944Y025493D01*
X055878Y025406D01*
X055836Y025305D01*
X055822Y025197D01*
X055836Y025089D01*
X055878Y024988D01*
X055944Y024901D01*
X056031Y024834D01*
X056132Y024793D01*
X05624Y024778D01*
X056319D01*
X056427Y024793D01*
X056528Y024834D01*
X056615Y024901D01*
X056681Y024988D01*
X056723Y025089D01*
X056737Y025197D01*
X056723Y025305D01*
X056681Y025406D01*
X056615Y025493D01*
X056528Y025559D01*
X056427Y025601D01*
X056319Y025615D01*
D02*
G37*
G36*
X055319D02*
X05524D01*
X055132Y025601D01*
X055031Y025559D01*
X054944Y025493D01*
X054878Y025406D01*
X054836Y025305D01*
X054822Y025197D01*
X054836Y025089D01*
X054878Y024988D01*
X054944Y024901D01*
X055031Y024834D01*
X055132Y024793D01*
X05524Y024778D01*
X055319D01*
X055427Y024793D01*
X055528Y024834D01*
X055615Y024901D01*
X055681Y024988D01*
X055723Y025089D01*
X055737Y025197D01*
X055723Y025305D01*
X055681Y025406D01*
X055615Y025493D01*
X055528Y025559D01*
X055427Y025601D01*
X055319Y025615D01*
D02*
G37*
G36*
X053319D02*
X05324D01*
X053132Y025601D01*
X053031Y025559D01*
X052944Y025493D01*
X052878Y025406D01*
X052836Y025305D01*
X052822Y025197D01*
X052836Y025089D01*
X052878Y024988D01*
X052944Y024901D01*
X053031Y024834D01*
X053132Y024793D01*
X05324Y024778D01*
X053319D01*
X053427Y024793D01*
X053528Y024834D01*
X053615Y024901D01*
X053681Y024988D01*
X053723Y025089D01*
X053737Y025197D01*
X053723Y025305D01*
X053681Y025406D01*
X053615Y025493D01*
X053528Y025559D01*
X053427Y025601D01*
X053319Y025615D01*
D02*
G37*
G36*
X034319D02*
X03424D01*
X034132Y025601D01*
X034031Y025559D01*
X033944Y025493D01*
X033878Y025406D01*
X033836Y025305D01*
X033822Y025197D01*
X033836Y025089D01*
X033878Y024988D01*
X033944Y024901D01*
X034031Y024834D01*
X034132Y024793D01*
X03424Y024778D01*
X034319D01*
X034427Y024793D01*
X034528Y024834D01*
X034615Y024901D01*
X034681Y024988D01*
X034723Y025089D01*
X034737Y025197D01*
X034723Y025305D01*
X034681Y025406D01*
X034615Y025493D01*
X034528Y025559D01*
X034427Y025601D01*
X034319Y025615D01*
D02*
G37*
G36*
X031319D02*
X03124D01*
X031132Y025601D01*
X031031Y025559D01*
X030944Y025493D01*
X030878Y025406D01*
X030836Y025305D01*
X030822Y025197D01*
X030836Y025089D01*
X030878Y024988D01*
X030944Y024901D01*
X031031Y024834D01*
X031132Y024793D01*
X03124Y024778D01*
X031319D01*
X031427Y024793D01*
X031528Y024834D01*
X031615Y024901D01*
X031681Y024988D01*
X031723Y025089D01*
X031737Y025197D01*
X031723Y025305D01*
X031681Y025406D01*
X031615Y025493D01*
X031528Y025559D01*
X031427Y025601D01*
X031319Y025615D01*
D02*
G37*
G36*
X056319Y024615D02*
X05624D01*
X056132Y024601D01*
X056031Y024559D01*
X055944Y024493D01*
X055878Y024406D01*
X055836Y024305D01*
X055822Y024197D01*
X055836Y024089D01*
X055878Y023988D01*
X055944Y023901D01*
X056031Y023834D01*
X056132Y023793D01*
X05624Y023778D01*
X056319D01*
X056427Y023793D01*
X056528Y023834D01*
X056615Y023901D01*
X056681Y023988D01*
X056723Y024089D01*
X056737Y024197D01*
X056723Y024305D01*
X056681Y024406D01*
X056615Y024493D01*
X056528Y024559D01*
X056427Y024601D01*
X056319Y024615D01*
D02*
G37*
G36*
X055319D02*
X05524D01*
X055132Y024601D01*
X055031Y024559D01*
X054944Y024493D01*
X054878Y024406D01*
X054836Y024305D01*
X054822Y024197D01*
X054836Y024089D01*
X054878Y023988D01*
X054944Y023901D01*
X055031Y023834D01*
X055132Y023793D01*
X05524Y023778D01*
X055319D01*
X055427Y023793D01*
X055528Y023834D01*
X055615Y023901D01*
X055681Y023988D01*
X055723Y024089D01*
X055737Y024197D01*
X055723Y024305D01*
X055681Y024406D01*
X055615Y024493D01*
X055528Y024559D01*
X055427Y024601D01*
X055319Y024615D01*
D02*
G37*
G36*
X053319D02*
X05324D01*
X053132Y024601D01*
X053031Y024559D01*
X052944Y024493D01*
X052878Y024406D01*
X052836Y024305D01*
X052822Y024197D01*
X052836Y024089D01*
X052878Y023988D01*
X052944Y023901D01*
X053031Y023834D01*
X053132Y023793D01*
X05324Y023778D01*
X053319D01*
X053427Y023793D01*
X053528Y023834D01*
X053615Y023901D01*
X053681Y023988D01*
X053723Y024089D01*
X053737Y024197D01*
X053723Y024305D01*
X053681Y024406D01*
X053615Y024493D01*
X053528Y024559D01*
X053427Y024601D01*
X053319Y024615D01*
D02*
G37*
G36*
X034319D02*
X03424D01*
X034132Y024601D01*
X034031Y024559D01*
X033944Y024493D01*
X033878Y024406D01*
X033836Y024305D01*
X033822Y024197D01*
X033836Y024089D01*
X033878Y023988D01*
X033944Y023901D01*
X034031Y023834D01*
X034132Y023793D01*
X03424Y023778D01*
X034319D01*
X034427Y023793D01*
X034528Y023834D01*
X034615Y023901D01*
X034681Y023988D01*
X034723Y024089D01*
X034737Y024197D01*
X034723Y024305D01*
X034681Y024406D01*
X034615Y024493D01*
X034528Y024559D01*
X034427Y024601D01*
X034319Y024615D01*
D02*
G37*
G36*
X031319D02*
X03124D01*
X031132Y024601D01*
X031031Y024559D01*
X030944Y024493D01*
X030878Y024406D01*
X030836Y024305D01*
X030822Y024197D01*
X030836Y024089D01*
X030878Y023988D01*
X030944Y023901D01*
X031031Y023834D01*
X031132Y023793D01*
X03124Y023778D01*
X031319D01*
X031427Y023793D01*
X031528Y023834D01*
X031615Y023901D01*
X031681Y023988D01*
X031723Y024089D01*
X031737Y024197D01*
X031723Y024305D01*
X031681Y024406D01*
X031615Y024493D01*
X031528Y024559D01*
X031427Y024601D01*
X031319Y024615D01*
D02*
G37*
G36*
X038681Y023755D02*
X03857Y023741D01*
X038467Y023698D01*
X038378Y02363D01*
X03831Y023541D01*
X038267Y023438D01*
X038252Y023327D01*
X038267Y023216D01*
X03831Y023112D01*
X038378Y023024D01*
X038467Y022956D01*
X03857Y022913D01*
X038681Y022898D01*
X038792Y022913D01*
X038895Y022956D01*
X038984Y023024D01*
X039052Y023112D01*
X039095Y023216D01*
X03911Y023327D01*
X039095Y023438D01*
X039052Y023541D01*
X038984Y02363D01*
X038895Y023698D01*
X038792Y023741D01*
X038681Y023755D01*
D02*
G37*
G36*
X056319Y023615D02*
X05624D01*
X056132Y023601D01*
X056031Y023559D01*
X055944Y023493D01*
X055878Y023406D01*
X055836Y023305D01*
X055822Y023197D01*
X055836Y023089D01*
X055878Y022988D01*
X055944Y022901D01*
X056031Y022834D01*
X056132Y022793D01*
X05624Y022778D01*
X056319D01*
X056427Y022793D01*
X056528Y022834D01*
X056615Y022901D01*
X056681Y022988D01*
X056723Y023089D01*
X056737Y023197D01*
X056723Y023305D01*
X056681Y023406D01*
X056615Y023493D01*
X056528Y023559D01*
X056427Y023601D01*
X056319Y023615D01*
D02*
G37*
G36*
X055319D02*
X05524D01*
X055132Y023601D01*
X055031Y023559D01*
X054944Y023493D01*
X054878Y023406D01*
X054836Y023305D01*
X054822Y023197D01*
X054836Y023089D01*
X054878Y022988D01*
X054944Y022901D01*
X055031Y022834D01*
X055132Y022793D01*
X05524Y022778D01*
X055319D01*
X055427Y022793D01*
X055528Y022834D01*
X055615Y022901D01*
X055681Y022988D01*
X055723Y023089D01*
X055737Y023197D01*
X055723Y023305D01*
X055681Y023406D01*
X055615Y023493D01*
X055528Y023559D01*
X055427Y023601D01*
X055319Y023615D01*
D02*
G37*
G36*
X053319D02*
X05324D01*
X053132Y023601D01*
X053031Y023559D01*
X052944Y023493D01*
X052878Y023406D01*
X052836Y023305D01*
X052822Y023197D01*
X052836Y023089D01*
X052878Y022988D01*
X052944Y022901D01*
X053031Y022834D01*
X053132Y022793D01*
X05324Y022778D01*
X053319D01*
X053427Y022793D01*
X053528Y022834D01*
X053615Y022901D01*
X053681Y022988D01*
X053723Y023089D01*
X053737Y023197D01*
X053723Y023305D01*
X053681Y023406D01*
X053615Y023493D01*
X053528Y023559D01*
X053427Y023601D01*
X053319Y023615D01*
D02*
G37*
G36*
X034319D02*
X03424D01*
X034132Y023601D01*
X034031Y023559D01*
X033944Y023493D01*
X033878Y023406D01*
X033836Y023305D01*
X033822Y023197D01*
X033836Y023089D01*
X033878Y022988D01*
X033944Y022901D01*
X034031Y022834D01*
X034132Y022793D01*
X03424Y022778D01*
X034319D01*
X034427Y022793D01*
X034528Y022834D01*
X034615Y022901D01*
X034681Y022988D01*
X034723Y023089D01*
X034737Y023197D01*
X034723Y023305D01*
X034681Y023406D01*
X034615Y023493D01*
X034528Y023559D01*
X034427Y023601D01*
X034319Y023615D01*
D02*
G37*
G36*
X031319D02*
X03124D01*
X031132Y023601D01*
X031031Y023559D01*
X030944Y023493D01*
X030878Y023406D01*
X030836Y023305D01*
X030822Y023197D01*
X030836Y023089D01*
X030878Y022988D01*
X030944Y022901D01*
X031031Y022834D01*
X031132Y022793D01*
X03124Y022778D01*
X031319D01*
X031427Y022793D01*
X031528Y022834D01*
X031615Y022901D01*
X031681Y022988D01*
X031723Y023089D01*
X031737Y023197D01*
X031723Y023305D01*
X031681Y023406D01*
X031615Y023493D01*
X031528Y023559D01*
X031427Y023601D01*
X031319Y023615D01*
D02*
G37*
G36*
X056319Y022615D02*
X05624D01*
X056132Y022601D01*
X056031Y022559D01*
X055944Y022493D01*
X055878Y022406D01*
X055836Y022305D01*
X055822Y022197D01*
X055836Y022089D01*
X055878Y021988D01*
X055944Y021901D01*
X056031Y021834D01*
X056132Y021793D01*
X05624Y021778D01*
X056319D01*
X056427Y021793D01*
X056528Y021834D01*
X056615Y021901D01*
X056681Y021988D01*
X056723Y022089D01*
X056737Y022197D01*
X056723Y022305D01*
X056681Y022406D01*
X056615Y022493D01*
X056528Y022559D01*
X056427Y022601D01*
X056319Y022615D01*
D02*
G37*
G36*
X055319D02*
X05524D01*
X055132Y022601D01*
X055031Y022559D01*
X054944Y022493D01*
X054878Y022406D01*
X054836Y022305D01*
X054822Y022197D01*
X054836Y022089D01*
X054878Y021988D01*
X054944Y021901D01*
X055031Y021834D01*
X055132Y021793D01*
X05524Y021778D01*
X055319D01*
X055427Y021793D01*
X055528Y021834D01*
X055615Y021901D01*
X055681Y021988D01*
X055723Y022089D01*
X055737Y022197D01*
X055723Y022305D01*
X055681Y022406D01*
X055615Y022493D01*
X055528Y022559D01*
X055427Y022601D01*
X055319Y022615D01*
D02*
G37*
G36*
X053319D02*
X05324D01*
X053132Y022601D01*
X053031Y022559D01*
X052944Y022493D01*
X052878Y022406D01*
X052836Y022305D01*
X052822Y022197D01*
X052836Y022089D01*
X052878Y021988D01*
X052944Y021901D01*
X053031Y021834D01*
X053132Y021793D01*
X05324Y021778D01*
X053319D01*
X053427Y021793D01*
X053528Y021834D01*
X053615Y021901D01*
X053681Y021988D01*
X053723Y022089D01*
X053737Y022197D01*
X053723Y022305D01*
X053681Y022406D01*
X053615Y022493D01*
X053528Y022559D01*
X053427Y022601D01*
X053319Y022615D01*
D02*
G37*
G36*
X034319D02*
X03424D01*
X034132Y022601D01*
X034031Y022559D01*
X033944Y022493D01*
X033878Y022406D01*
X033836Y022305D01*
X033822Y022197D01*
X033836Y022089D01*
X033878Y021988D01*
X033944Y021901D01*
X034031Y021834D01*
X034132Y021793D01*
X03424Y021778D01*
X034319D01*
X034427Y021793D01*
X034528Y021834D01*
X034615Y021901D01*
X034681Y021988D01*
X034723Y022089D01*
X034737Y022197D01*
X034723Y022305D01*
X034681Y022406D01*
X034615Y022493D01*
X034528Y022559D01*
X034427Y022601D01*
X034319Y022615D01*
D02*
G37*
G36*
X031319D02*
X03124D01*
X031132Y022601D01*
X031031Y022559D01*
X030944Y022493D01*
X030878Y022406D01*
X030836Y022305D01*
X030822Y022197D01*
X030836Y022089D01*
X030878Y021988D01*
X030944Y021901D01*
X031031Y021834D01*
X031132Y021793D01*
X03124Y021778D01*
X031319D01*
X031427Y021793D01*
X031528Y021834D01*
X031615Y021901D01*
X031681Y021988D01*
X031723Y022089D01*
X031737Y022197D01*
X031723Y022305D01*
X031681Y022406D01*
X031615Y022493D01*
X031528Y022559D01*
X031427Y022601D01*
X031319Y022615D01*
D02*
G37*
G36*
X053734Y021612D02*
X052825D01*
Y020782D01*
X053734D01*
Y021612D01*
D02*
G37*
G36*
X034319Y021615D02*
X03424D01*
X034132Y021601D01*
X034031Y021559D01*
X033944Y021493D01*
X033878Y021406D01*
X033836Y021305D01*
X033822Y021197D01*
X033836Y021089D01*
X033878Y020988D01*
X033944Y020901D01*
X034031Y020834D01*
X034132Y020793D01*
X03424Y020778D01*
X034319D01*
X034427Y020793D01*
X034528Y020834D01*
X034615Y020901D01*
X034681Y020988D01*
X034723Y021089D01*
X034737Y021197D01*
X034723Y021305D01*
X034681Y021406D01*
X034615Y021493D01*
X034528Y021559D01*
X034427Y021601D01*
X034319Y021615D01*
D02*
G37*
G36*
X031319D02*
X03124D01*
X031132Y021601D01*
X031031Y021559D01*
X030944Y021493D01*
X030878Y021406D01*
X030836Y021305D01*
X030822Y021197D01*
X030836Y021089D01*
X030878Y020988D01*
X030944Y020901D01*
X031031Y020834D01*
X031132Y020793D01*
X03124Y020778D01*
X031319D01*
X031427Y020793D01*
X031528Y020834D01*
X031615Y020901D01*
X031681Y020988D01*
X031723Y021089D01*
X031737Y021197D01*
X031723Y021305D01*
X031681Y021406D01*
X031615Y021493D01*
X031528Y021559D01*
X031427Y021601D01*
X031319Y021615D01*
D02*
G37*
%LPD*%
D10*
X052461Y029035D02*
Y029117D01*
X052846Y028732D01*
X056511D01*
X050098Y031102D02*
X050492D01*
X048373Y032305D02*
X048437Y03237D01*
X048228Y032305D02*
X048373D01*
X036319Y027067D02*
Y035835D01*
Y027067D02*
X039862D01*
X036319Y035835D02*
X039624D01*
X039862Y024114D02*
Y027067D01*
X038386Y029035D02*
Y030807D01*
Y029035D02*
X046124D01*
X038386Y030807D02*
X04065D01*
X039624Y038795D02*
X04065D01*
X044374Y040354D02*
Y041142D01*
X046902Y040354D02*
X047295Y040748D01*
X044374Y040354D02*
X046902D01*
X033563Y020472D02*
X034843D01*
X032843Y021193D02*
X033563Y020472D01*
X034843D02*
X035433Y021063D01*
X040846D01*
X041339Y021555D01*
X053969Y035795D02*
X054528Y035236D01*
X05328Y035795D02*
X053969D01*
X054528Y035236D02*
X05524D01*
X055732Y034744D02*
X056035D01*
X05528Y035197D02*
X055732Y034744D01*
X056035D02*
X056048Y034732D01*
X056607D01*
X057087Y034252D01*
X051968Y022244D02*
Y040256D01*
X032843Y021193D02*
Y024736D01*
X032382Y025197D02*
X032843Y024736D01*
X03228Y025197D02*
X032382D01*
X04065Y030807D02*
Y038795D01*
X039624D02*
Y038835D01*
X046124Y026658D02*
Y029035D01*
X039624Y037835D02*
X040256D01*
Y031201D02*
Y037835D01*
X038091Y031201D02*
X040256D01*
X038091Y02874D02*
Y031201D01*
X037697Y031835D02*
X039624D01*
X037697Y028346D02*
Y031835D01*
Y028346D02*
X044624D01*
X037303Y032185D02*
X037402Y032283D01*
X037303Y027953D02*
Y032185D01*
X036909Y027657D02*
Y032835D01*
X039624D01*
X036909Y027657D02*
X042624D01*
X037303Y027953D02*
X043624D01*
X036024Y036835D02*
X039624D01*
X036024Y026802D02*
Y036835D01*
Y026802D02*
X039624D01*
X038091Y02874D02*
X045124D01*
Y026658D02*
Y02874D01*
X044624Y026658D02*
Y028346D01*
X036608Y033835D02*
X039624D01*
X036608Y027362D02*
X040157D01*
X036608D02*
Y033835D01*
X043624Y026658D02*
Y027953D01*
X039624Y036811D02*
Y036835D01*
X042624Y026658D02*
Y027657D01*
X048437Y03237D02*
X050787D01*
X040157Y024803D02*
Y027362D01*
Y024803D02*
X040748D01*
X039862Y024114D02*
X040157D01*
X039624Y023524D02*
Y026802D01*
X041339Y021555D02*
Y025394D01*
Y026658D01*
X050832Y021107D02*
X051968Y022244D01*
X050832Y020866D02*
Y021107D01*
X051673Y022343D02*
Y037835D01*
X050591Y02126D02*
X051673Y022343D01*
X042624Y02126D02*
X050591D01*
X051378Y022441D02*
Y037303D01*
X050502Y021565D02*
X051378Y022441D01*
X043624Y021565D02*
X050502D01*
X051083Y022539D02*
Y032835D01*
X050348Y021805D02*
X051083Y022539D01*
X045124Y021805D02*
X050348D01*
X050787Y022638D02*
Y03237D01*
X050197Y022047D02*
X050787Y022638D01*
X045624Y022047D02*
X050197D01*
X050492Y022736D02*
Y031102D01*
X050098Y022343D02*
X050492Y022736D01*
X046124Y022343D02*
X050098D01*
X048425Y038835D02*
X049124D01*
X048425Y037303D02*
Y038835D01*
Y037303D02*
X051378D01*
X049124Y032835D02*
X051083D01*
X049124Y037835D02*
X051673D01*
X042624Y02126D02*
Y022948D01*
X043624Y021565D02*
Y022948D01*
X051476Y040748D02*
X051968Y040256D01*
X047295Y040748D02*
X051476D01*
X042618Y020571D02*
X045696D01*
X041624Y021565D02*
X042618Y020571D01*
X041624Y021565D02*
Y022948D01*
X045624Y022047D02*
Y022948D01*
X046124Y022343D02*
Y022948D01*
X03428Y029197D02*
X035433D01*
X041339Y026658D02*
X041624D01*
X045124Y021805D02*
Y022948D01*
X056511Y028732D02*
X05652Y02874D01*
X056791D01*
X057087Y028445D01*
Y021161D02*
Y028445D01*
X056594Y020669D02*
X057087Y021161D01*
X055807Y020669D02*
X056594D01*
X05528Y021197D02*
X055807Y020669D01*
X03428Y029197D02*
Y030197D01*
X05524Y035236D02*
X05528Y035197D01*
X057087Y030906D02*
Y034252D01*
X056378Y030197D02*
X057087Y030906D01*
X05628Y030197D02*
X056378D01*
X03128D02*
X03228D01*
Y029197D02*
Y030197D01*
D30*
X05328Y038795D02*
D03*
Y037795D02*
D03*
Y036795D02*
D03*
Y035795D02*
D03*
Y034795D02*
D03*
Y033795D02*
D03*
Y032795D02*
D03*
Y031795D02*
D03*
Y030795D02*
D03*
Y029795D02*
D03*
X05628Y039197D02*
D03*
X05528Y038197D02*
D03*
X05628D02*
D03*
X05528Y037197D02*
D03*
X05628D02*
D03*
X05528Y036197D02*
D03*
X05628D02*
D03*
X05528Y035197D02*
D03*
X05628D02*
D03*
X05528Y034197D02*
D03*
X05628D02*
D03*
X05528Y033197D02*
D03*
X05628D02*
D03*
X05528Y032197D02*
D03*
X05628D02*
D03*
X05528Y031197D02*
D03*
X05628D02*
D03*
X05528Y030197D02*
D03*
X05628D02*
D03*
X05528Y029197D02*
D03*
X05628D02*
D03*
X05528Y028197D02*
D03*
X05628D02*
D03*
X05528Y027197D02*
D03*
X05628D02*
D03*
X05528Y026197D02*
D03*
X05628D02*
D03*
X05528Y025197D02*
D03*
X05628D02*
D03*
X05528Y024197D02*
D03*
X05628D02*
D03*
X05528Y023197D02*
D03*
X05628D02*
D03*
X05528Y022197D02*
D03*
X05628D02*
D03*
X05528Y021197D02*
D03*
X05628D02*
D03*
X03228Y039197D02*
D03*
X03128Y038197D02*
D03*
X03228D02*
D03*
X03128Y037197D02*
D03*
X03228D02*
D03*
X03128Y036197D02*
D03*
X03228D02*
D03*
X03128Y035197D02*
D03*
X03228D02*
D03*
X03128Y034197D02*
D03*
X03228D02*
D03*
X03128Y033197D02*
D03*
X03228D02*
D03*
X03128Y032197D02*
D03*
X03228D02*
D03*
X03128Y031197D02*
D03*
X03228D02*
D03*
X03128Y030197D02*
D03*
X03228D02*
D03*
X03128Y029197D02*
D03*
X03228D02*
D03*
X03128Y028197D02*
D03*
X03228D02*
D03*
X03128Y027197D02*
D03*
X03228D02*
D03*
X03128Y026197D02*
D03*
X03228D02*
D03*
X03128Y025197D02*
D03*
X03228D02*
D03*
X03128Y024197D02*
D03*
X03228D02*
D03*
X03128Y023197D02*
D03*
X03228D02*
D03*
X03128Y022197D02*
D03*
X03228D02*
D03*
X03128Y021197D02*
D03*
X03228D02*
D03*
X03428Y025197D02*
D03*
Y024197D02*
D03*
Y023197D02*
D03*
Y022197D02*
D03*
Y021197D02*
D03*
Y028197D02*
D03*
Y029197D02*
D03*
Y030197D02*
D03*
Y031197D02*
D03*
Y032197D02*
D03*
Y033197D02*
D03*
Y034197D02*
D03*
X05328Y028197D02*
D03*
Y027197D02*
D03*
Y026197D02*
D03*
Y025197D02*
D03*
Y024197D02*
D03*
Y023197D02*
D03*
Y022197D02*
D03*
D31*
X05528Y039197D02*
D03*
X03128D02*
D03*
X03428Y026197D02*
D03*
Y035197D02*
D03*
X05328Y021197D02*
D03*
D32*
X042374Y041043D02*
D03*
D33*
X043374D02*
D03*
X044374D02*
D03*
X045374D02*
D03*
X046374D02*
D03*
D34*
X039624Y038835D02*
D03*
D35*
Y037835D02*
D03*
Y036835D02*
D03*
Y035835D02*
D03*
Y034835D02*
D03*
Y033835D02*
D03*
Y032835D02*
D03*
Y031835D02*
D03*
X049124D02*
D03*
Y032835D02*
D03*
Y033835D02*
D03*
Y034835D02*
D03*
Y035835D02*
D03*
Y036835D02*
D03*
Y037835D02*
D03*
Y038835D02*
D03*
D36*
X047124Y026658D02*
D03*
X046624D02*
D03*
X046124D02*
D03*
X045624D02*
D03*
X045124D02*
D03*
X044624D02*
D03*
X044124D02*
D03*
X043624D02*
D03*
X043124D02*
D03*
X042624D02*
D03*
X042124D02*
D03*
X041624D02*
D03*
Y022948D02*
D03*
X042124D02*
D03*
X042624D02*
D03*
X043124D02*
D03*
X043624D02*
D03*
X044124D02*
D03*
X044624D02*
D03*
X045124D02*
D03*
X045624D02*
D03*
X046124D02*
D03*
X046624D02*
D03*
X047124D02*
D03*
D37*
X038681Y026327D02*
D03*
Y023327D02*
D03*
D38*
X052461Y029035D02*
D03*
X050098Y031102D02*
D03*
X048228Y032305D02*
D03*
X037402Y032283D02*
D03*
X039624Y023524D02*
D03*
X040748Y024803D02*
D03*
X041339Y025394D02*
D03*
X040157Y024114D02*
D03*
X050832Y020866D02*
D03*
X045696Y020571D02*
D03*
X035433Y029197D02*
D03*
M02*
