G04*
G04 #@! TF.GenerationSoftware,Altium Limited,Altium Designer,18.1.6 (161)*
G04*
G04 Layer_Color=255*
%FSTAX24Y24*%
%MOIN*%
G70*
G01*
G75*
%ADD30O,0.0709X0.0630*%
%ADD31R,0.0709X0.0630*%
G04:AMPARAMS|DCode=32|XSize=63mil|YSize=70.9mil|CornerRadius=15.7mil|HoleSize=0mil|Usage=FLASHONLY|Rotation=0.000|XOffset=0mil|YOffset=0mil|HoleType=Round|Shape=RoundedRectangle|*
%AMROUNDEDRECTD32*
21,1,0.0630,0.0394,0,0,0.0*
21,1,0.0315,0.0709,0,0,0.0*
1,1,0.0315,0.0157,-0.0197*
1,1,0.0315,-0.0157,-0.0197*
1,1,0.0315,-0.0157,0.0197*
1,1,0.0315,0.0157,0.0197*
%
%ADD32ROUNDEDRECTD32*%
%ADD33O,0.0630X0.0709*%
G04:AMPARAMS|DCode=34|XSize=63mil|YSize=70.9mil|CornerRadius=15.7mil|HoleSize=0mil|Usage=FLASHONLY|Rotation=270.000|XOffset=0mil|YOffset=0mil|HoleType=Round|Shape=RoundedRectangle|*
%AMROUNDEDRECTD34*
21,1,0.0630,0.0394,0,0,270.0*
21,1,0.0315,0.0709,0,0,270.0*
1,1,0.0315,-0.0197,-0.0157*
1,1,0.0315,-0.0197,0.0157*
1,1,0.0315,0.0197,0.0157*
1,1,0.0315,0.0197,-0.0157*
%
%ADD34ROUNDEDRECTD34*%
%ADD35O,0.0709X0.0630*%
%ADD36R,0.0256X0.0758*%
%ADD37C,0.0650*%
D30*
X05328Y038795D02*
D03*
Y037795D02*
D03*
Y036795D02*
D03*
Y035795D02*
D03*
Y034795D02*
D03*
Y033795D02*
D03*
Y032795D02*
D03*
Y031795D02*
D03*
Y030795D02*
D03*
Y029795D02*
D03*
X05628Y039197D02*
D03*
X05528Y038197D02*
D03*
X05628D02*
D03*
X05528Y037197D02*
D03*
X05628D02*
D03*
X05528Y036197D02*
D03*
X05628D02*
D03*
X05528Y035197D02*
D03*
X05628D02*
D03*
X05528Y034197D02*
D03*
X05628D02*
D03*
X05528Y033197D02*
D03*
X05628D02*
D03*
X05528Y032197D02*
D03*
X05628D02*
D03*
X05528Y031197D02*
D03*
X05628D02*
D03*
X05528Y030197D02*
D03*
X05628D02*
D03*
X05528Y029197D02*
D03*
X05628D02*
D03*
X05528Y028197D02*
D03*
X05628D02*
D03*
X05528Y027197D02*
D03*
X05628D02*
D03*
X05528Y026197D02*
D03*
X05628D02*
D03*
X05528Y025197D02*
D03*
X05628D02*
D03*
X05528Y024197D02*
D03*
X05628D02*
D03*
X05528Y023197D02*
D03*
X05628D02*
D03*
X05528Y022197D02*
D03*
X05628D02*
D03*
X05528Y021197D02*
D03*
X05628D02*
D03*
X03228Y039197D02*
D03*
X03128Y038197D02*
D03*
X03228D02*
D03*
X03128Y037197D02*
D03*
X03228D02*
D03*
X03128Y036197D02*
D03*
X03228D02*
D03*
X03128Y035197D02*
D03*
X03228D02*
D03*
X03128Y034197D02*
D03*
X03228D02*
D03*
X03128Y033197D02*
D03*
X03228D02*
D03*
X03128Y032197D02*
D03*
X03228D02*
D03*
X03128Y031197D02*
D03*
X03228D02*
D03*
X03128Y030197D02*
D03*
X03228D02*
D03*
X03128Y029197D02*
D03*
X03228D02*
D03*
X03128Y028197D02*
D03*
X03228D02*
D03*
X03128Y027197D02*
D03*
X03228D02*
D03*
X03128Y026197D02*
D03*
X03228D02*
D03*
X03128Y025197D02*
D03*
X03228D02*
D03*
X03128Y024197D02*
D03*
X03228D02*
D03*
X03128Y023197D02*
D03*
X03228D02*
D03*
X03128Y022197D02*
D03*
X03228D02*
D03*
X03128Y021197D02*
D03*
X03228D02*
D03*
X03428Y025197D02*
D03*
Y024197D02*
D03*
Y023197D02*
D03*
Y022197D02*
D03*
Y021197D02*
D03*
Y028197D02*
D03*
Y029197D02*
D03*
Y030197D02*
D03*
Y031197D02*
D03*
Y032197D02*
D03*
Y033197D02*
D03*
Y034197D02*
D03*
X05328Y028197D02*
D03*
Y027197D02*
D03*
Y026197D02*
D03*
Y025197D02*
D03*
Y024197D02*
D03*
Y023197D02*
D03*
Y022197D02*
D03*
D31*
X05528Y039197D02*
D03*
X03128D02*
D03*
X03428Y026197D02*
D03*
Y035197D02*
D03*
X05328Y021197D02*
D03*
D32*
X042374Y041043D02*
D03*
D33*
X043374D02*
D03*
X044374D02*
D03*
X045374D02*
D03*
X046374D02*
D03*
D34*
X039624Y038835D02*
D03*
D35*
Y037835D02*
D03*
Y036835D02*
D03*
Y035835D02*
D03*
Y034835D02*
D03*
Y033835D02*
D03*
Y032835D02*
D03*
Y031835D02*
D03*
X049124D02*
D03*
Y032835D02*
D03*
Y033835D02*
D03*
Y034835D02*
D03*
Y035835D02*
D03*
Y036835D02*
D03*
Y037835D02*
D03*
Y038835D02*
D03*
D36*
X047124Y026658D02*
D03*
X046624D02*
D03*
X046124D02*
D03*
X045624D02*
D03*
X045124D02*
D03*
X044624D02*
D03*
X044124D02*
D03*
X043624D02*
D03*
X043124D02*
D03*
X042624D02*
D03*
X042124D02*
D03*
X041624D02*
D03*
Y022948D02*
D03*
X042124D02*
D03*
X042624D02*
D03*
X043124D02*
D03*
X043624D02*
D03*
X044124D02*
D03*
X044624D02*
D03*
X045124D02*
D03*
X045624D02*
D03*
X046124D02*
D03*
X046624D02*
D03*
X047124D02*
D03*
D37*
X038681Y026327D02*
D03*
Y023327D02*
D03*
M02*
