G04*
G04 #@! TF.GenerationSoftware,Altium Limited,Altium Designer,18.1.6 (161)*
G04*
G04 Layer_Color=32896*
%FSTAX24Y24*%
%MOIN*%
G70*
G01*
G75*
%ADD12C,0.0080*%
D12*
X041824Y041543D02*
X046824D01*
X041824Y040543D02*
Y041543D01*
Y040543D02*
X046824D01*
Y041543D01*
X041774Y041593D02*
X041824Y041543D01*
X046305Y039761D02*
X046255Y039811D01*
Y039911D01*
X046305Y039961D01*
X046505D01*
X046555Y039911D01*
Y039811D01*
X046505Y039761D01*
X046255Y039661D02*
X046555D01*
Y039461D01*
X046255Y039361D02*
X046555D01*
X046455D01*
X046255Y039161D01*
X046405Y039311D01*
X046555Y039161D01*
X045321Y039761D02*
X045271Y039811D01*
Y039911D01*
X045321Y039961D01*
X045521D01*
X045571Y039911D01*
Y039811D01*
X045521Y039761D01*
X045321Y039461D02*
X045271Y039511D01*
Y039611D01*
X045321Y039661D01*
X045371D01*
X045421Y039611D01*
Y039511D01*
X045471Y039461D01*
X045521D01*
X045571Y039511D01*
Y039611D01*
X045521Y039661D01*
X044324Y039961D02*
X044624D01*
Y039811D01*
X044574Y039761D01*
X044374D01*
X044324Y039811D01*
Y039961D01*
Y039511D02*
Y039611D01*
X044374Y039661D01*
X044574D01*
X044624Y039611D01*
Y039511D01*
X044574Y039461D01*
X044374D01*
X044324Y039511D01*
Y039361D02*
X044574D01*
X044624Y039311D01*
Y039211D01*
X044574Y039161D01*
X044324D01*
Y039061D02*
Y038861D01*
Y038961D01*
X044624D01*
X043352Y039761D02*
X043302Y039811D01*
Y039911D01*
X043352Y039961D01*
X043552D01*
X043602Y039911D01*
Y039811D01*
X043552Y039761D01*
X043452D01*
Y039861D01*
X043602Y039661D02*
X043302D01*
X043602Y039461D01*
X043302D01*
Y039361D02*
X043602D01*
Y039211D01*
X043552Y039161D01*
X043352D01*
X043302Y039211D01*
Y039361D01*
X042318Y039961D02*
X042518D01*
X042618Y039861D01*
X042518Y039761D01*
X042318D01*
X042368Y039461D02*
X042318Y039511D01*
Y039611D01*
X042368Y039661D01*
X042568D01*
X042618Y039611D01*
Y039511D01*
X042568Y039461D01*
X042368Y039161D02*
X042318Y039211D01*
Y039311D01*
X042368Y039361D01*
X042568D01*
X042618Y039311D01*
Y039211D01*
X042568Y039161D01*
M02*
