G04*
G04 #@! TF.GenerationSoftware,Altium Limited,Altium Designer,18.1.6 (161)*
G04*
G04 Layer_Color=16711935*
%FSTAX24Y24*%
%MOIN*%
G70*
G01*
G75*
%ADD20O,0.0789X0.0710*%
%ADD21R,0.0789X0.0710*%
%ADD22C,0.0080*%
G04:AMPARAMS|DCode=23|XSize=71mil|YSize=78.9mil|CornerRadius=19.7mil|HoleSize=0mil|Usage=FLASHONLY|Rotation=0.000|XOffset=0mil|YOffset=0mil|HoleType=Round|Shape=RoundedRectangle|*
%AMROUNDEDRECTD23*
21,1,0.0710,0.0394,0,0,0.0*
21,1,0.0315,0.0789,0,0,0.0*
1,1,0.0395,0.0157,-0.0197*
1,1,0.0395,-0.0157,-0.0197*
1,1,0.0395,-0.0157,0.0197*
1,1,0.0395,0.0157,0.0197*
%
%ADD23ROUNDEDRECTD23*%
%ADD24O,0.0710X0.0789*%
G04:AMPARAMS|DCode=25|XSize=71mil|YSize=78.9mil|CornerRadius=19.7mil|HoleSize=0mil|Usage=FLASHONLY|Rotation=270.000|XOffset=0mil|YOffset=0mil|HoleType=Round|Shape=RoundedRectangle|*
%AMROUNDEDRECTD25*
21,1,0.0710,0.0394,0,0,270.0*
21,1,0.0315,0.0789,0,0,270.0*
1,1,0.0395,-0.0197,-0.0157*
1,1,0.0395,-0.0197,0.0157*
1,1,0.0395,0.0197,0.0157*
1,1,0.0395,0.0197,-0.0157*
%
%ADD25ROUNDEDRECTD25*%
%ADD26O,0.0789X0.0710*%
%ADD27R,0.0336X0.0838*%
%ADD28C,0.0730*%
%ADD29C,0.0580*%
%ADD39C,0.0060*%
D20*
X05328Y038795D02*
D03*
Y037795D02*
D03*
Y036795D02*
D03*
Y035795D02*
D03*
Y034795D02*
D03*
Y033795D02*
D03*
Y032795D02*
D03*
Y031795D02*
D03*
Y030795D02*
D03*
Y029795D02*
D03*
X05628Y039197D02*
D03*
X05528Y038197D02*
D03*
X05628D02*
D03*
X05528Y037197D02*
D03*
X05628D02*
D03*
X05528Y036197D02*
D03*
X05628D02*
D03*
X05528Y035197D02*
D03*
X05628D02*
D03*
X05528Y034197D02*
D03*
X05628D02*
D03*
X05528Y033197D02*
D03*
X05628D02*
D03*
X05528Y032197D02*
D03*
X05628D02*
D03*
X05528Y031197D02*
D03*
X05628D02*
D03*
X05528Y030197D02*
D03*
X05628D02*
D03*
X05528Y029197D02*
D03*
X05628D02*
D03*
X05528Y028197D02*
D03*
X05628D02*
D03*
X05528Y027197D02*
D03*
X05628D02*
D03*
X05528Y026197D02*
D03*
X05628D02*
D03*
X05528Y025197D02*
D03*
X05628D02*
D03*
X05528Y024197D02*
D03*
X05628D02*
D03*
X05528Y023197D02*
D03*
X05628D02*
D03*
X05528Y022197D02*
D03*
X05628D02*
D03*
X05528Y021197D02*
D03*
X05628D02*
D03*
X03228Y039197D02*
D03*
X03128Y038197D02*
D03*
X03228D02*
D03*
X03128Y037197D02*
D03*
X03228D02*
D03*
X03128Y036197D02*
D03*
X03228D02*
D03*
X03128Y035197D02*
D03*
X03228D02*
D03*
X03128Y034197D02*
D03*
X03228D02*
D03*
X03128Y033197D02*
D03*
X03228D02*
D03*
X03128Y032197D02*
D03*
X03228D02*
D03*
X03128Y031197D02*
D03*
X03228D02*
D03*
X03128Y030197D02*
D03*
X03228D02*
D03*
X03128Y029197D02*
D03*
X03228D02*
D03*
X03128Y028197D02*
D03*
X03228D02*
D03*
X03128Y027197D02*
D03*
X03228D02*
D03*
X03128Y026197D02*
D03*
X03228D02*
D03*
X03128Y025197D02*
D03*
X03228D02*
D03*
X03128Y024197D02*
D03*
X03228D02*
D03*
X03128Y023197D02*
D03*
X03228D02*
D03*
X03128Y022197D02*
D03*
X03228D02*
D03*
X03128Y021197D02*
D03*
X03228D02*
D03*
X03428Y025197D02*
D03*
Y024197D02*
D03*
Y023197D02*
D03*
Y022197D02*
D03*
Y021197D02*
D03*
Y028197D02*
D03*
Y029197D02*
D03*
Y030197D02*
D03*
Y031197D02*
D03*
Y032197D02*
D03*
Y033197D02*
D03*
Y034197D02*
D03*
X05328Y028197D02*
D03*
Y027197D02*
D03*
Y026197D02*
D03*
Y025197D02*
D03*
Y024197D02*
D03*
Y023197D02*
D03*
Y022197D02*
D03*
D21*
X05528Y039197D02*
D03*
X03128D02*
D03*
X03428Y026197D02*
D03*
Y035197D02*
D03*
X05328Y021197D02*
D03*
D22*
X03428Y040697D02*
D03*
X04728Y020197D02*
D03*
X05328Y040197D02*
D03*
D23*
X042374Y041043D02*
D03*
D24*
X043374D02*
D03*
X044374D02*
D03*
X045374D02*
D03*
X046374D02*
D03*
D25*
X039624Y038835D02*
D03*
D26*
Y037835D02*
D03*
Y036835D02*
D03*
Y035835D02*
D03*
Y034835D02*
D03*
Y033835D02*
D03*
Y032835D02*
D03*
Y031835D02*
D03*
X049124D02*
D03*
Y032835D02*
D03*
Y033835D02*
D03*
Y034835D02*
D03*
Y035835D02*
D03*
Y036835D02*
D03*
Y037835D02*
D03*
Y038835D02*
D03*
D27*
X047124Y026658D02*
D03*
X046624D02*
D03*
X046124D02*
D03*
X045624D02*
D03*
X045124D02*
D03*
X044624D02*
D03*
X044124D02*
D03*
X043624D02*
D03*
X043124D02*
D03*
X042624D02*
D03*
X042124D02*
D03*
X041624D02*
D03*
Y022948D02*
D03*
X042124D02*
D03*
X042624D02*
D03*
X043124D02*
D03*
X043624D02*
D03*
X044124D02*
D03*
X044624D02*
D03*
X045124D02*
D03*
X045624D02*
D03*
X046124D02*
D03*
X046624D02*
D03*
X047124D02*
D03*
D28*
X038681Y026327D02*
D03*
Y023327D02*
D03*
D29*
X052461Y029035D02*
D03*
X050098Y031102D02*
D03*
X048228Y032305D02*
D03*
X037402Y032283D02*
D03*
X039624Y023524D02*
D03*
X040748Y024803D02*
D03*
X041339Y025394D02*
D03*
X040157Y024114D02*
D03*
X050832Y020866D02*
D03*
X045696Y020571D02*
D03*
X035433Y029197D02*
D03*
D39*
X041236Y040008D02*
Y040107D01*
X041286Y040157D01*
X041485D01*
X041535Y040107D01*
Y040008D01*
X041485Y039958D01*
X041286D01*
X041236Y040008D01*
Y039858D02*
X041485D01*
X041535Y039808D01*
Y039708D01*
X041485Y039658D01*
X041236D01*
Y039558D02*
Y039358D01*
Y039458D01*
X041535D01*
Y039258D02*
X041236D01*
Y039108D01*
X041286Y039058D01*
X041385D01*
X041435Y039108D01*
Y039258D01*
X041236Y038958D02*
X041485D01*
X041535Y038908D01*
Y038808D01*
X041485Y038758D01*
X041236D01*
Y038658D02*
Y038458D01*
Y038558D01*
X041535D01*
M02*
