M48
;Layer_Color=9474304
;FILE_FORMAT=2:4
INCH,LZ
;TYPE=PLATED
T1F00S00C0.0280
T2F00S00C0.0310
T3F00S00C0.0394
;TYPE=NON_PLATED
T4F00S00C0.1378
%
T01
X050832Y020866
X052461Y029035
X050098Y031102
X041339Y025394
X040748Y024803
X040157Y024114
X039624Y023524
X045696Y020571
X035433Y029197
X037402Y032283
X048228Y032305
T02
X038681Y023327
Y026327
T03
X05328Y021197
Y022197
Y023197
Y024197
Y025197
Y026197
Y027197
Y028197
Y029795
Y030795
X05528Y031197
X05628
Y030197
X05528
Y029197
X05628
Y028197
X05528
Y027197
X05628
Y026197
X05528
Y025197
X05628
Y024197
X05528
Y023197
X05628
Y022197
X05528
Y021197
X05628
X03428
Y022197
Y023197
Y024197
Y025197
Y026197
X03228
Y027197
Y028197
Y029197
Y030197
Y031197
X03128
Y030197
Y029197
Y028197
Y027197
Y026197
Y025197
X03228
Y024197
X03128
Y023197
X03228
Y022197
X03128
Y021197
X03228
X03428Y028197
Y029197
Y030197
Y031197
Y032197
Y033197
Y034197
Y035197
X03228
Y036197
Y037197
Y038197
Y039197
X03128
Y038197
Y037197
Y036197
Y035197
Y034197
X03228
Y033197
X03128
Y032197
X03228
X039624Y031835
Y032835
Y033835
Y034835
Y035835
Y036835
Y037835
Y038835
X042374Y041043
X043374
X044374
X045374
X046374
X049124Y038835
Y037835
Y036835
Y035835
Y034835
Y033835
Y032835
Y031835
X05328Y031795
Y032795
Y033795
Y034795
Y035795
Y036795
Y037795
Y038795
X05528Y039197
X05628
Y038197
X05528
Y037197
X05628
Y036197
X05528
Y035197
X05628
Y034197
X05528
Y033197
X05628
Y032197
X05528
T04
X04728Y020197
X03428Y040697
X05328Y040197
M30
